<svg width="336" height="123" viewBox="0 0 336 123" fill="none" xmlns="http://www.w3.org/2000/svg">
<path d="M168 41L168 0L128 41L168 41Z" fill="#E5FFDE"/>
<rect x="23" y="41" width="290" height="82" rx="8" fill="#E5FFDE"/>
<path d="M68.012 76.14C66.6773 76.14 65.6273 75.818 64.862 75.174C64.106 74.53 63.7047 73.5873 63.658 72.346C63.6487 72.094 63.644 71.6833 63.644 71.114C63.644 70.5353 63.6487 70.1153 63.658 69.854C63.7047 68.6407 64.1107 67.7073 64.876 67.054C65.6507 66.3913 66.696 66.06 68.012 66.06C68.8427 66.06 69.5847 66.1953 70.238 66.466C70.9007 66.7367 71.4233 67.1287 71.806 67.642C72.1887 68.1553 72.3893 68.762 72.408 69.462C72.408 69.546 72.3753 69.616 72.31 69.672C72.254 69.728 72.184 69.756 72.1 69.756H70.112C69.9813 69.756 69.8833 69.7327 69.818 69.686C69.762 69.63 69.7107 69.532 69.664 69.392C69.5333 68.9347 69.3327 68.6173 69.062 68.44C68.8007 68.2533 68.4507 68.16 68.012 68.16C66.9573 68.16 66.4113 68.748 66.374 69.924C66.3647 70.176 66.36 70.5633 66.36 71.086C66.36 71.6087 66.3647 72.0053 66.374 72.276C66.4113 73.452 66.9573 74.04 68.012 74.04C68.4413 74.04 68.7913 73.9467 69.062 73.76C69.342 73.5733 69.5427 73.256 69.664 72.808C69.7013 72.668 69.7527 72.5747 69.818 72.528C69.8833 72.472 69.9813 72.444 70.112 72.444H72.1C72.184 72.444 72.254 72.472 72.31 72.528C72.3753 72.584 72.408 72.654 72.408 72.738C72.3893 73.438 72.1887 74.0447 71.806 74.558C71.4233 75.0713 70.9007 75.4633 70.238 75.734C69.5847 76.0047 68.8427 76.14 68.012 76.14ZM74.0328 76C73.9394 76 73.8554 75.9673 73.7808 75.902C73.7154 75.8273 73.6828 75.7433 73.6828 75.65V69.07C73.6828 68.9673 73.7154 68.8833 73.7808 68.818C73.8554 68.7527 73.9394 68.72 74.0328 68.72H80.5428C80.6454 68.72 80.7294 68.7527 80.7948 68.818C80.8601 68.8833 80.8928 68.9673 80.8928 69.07V75.65C80.8928 75.7433 80.8601 75.8273 80.7948 75.902C80.7294 75.9673 80.6454 76 80.5428 76H78.7928C78.6994 76 78.6154 75.9673 78.5408 75.902C78.4754 75.8273 78.4428 75.7433 78.4428 75.65V70.624H76.1468V75.65C76.1468 75.7527 76.1094 75.8367 76.0348 75.902C75.9694 75.9673 75.8854 76 75.7828 76H74.0328ZM84.7538 76.14C84.2591 76.14 83.8065 76.0467 83.3958 75.86C82.9945 75.664 82.6771 75.398 82.4438 75.062C82.2198 74.726 82.1078 74.3573 82.1078 73.956C82.1078 73.3213 82.3691 72.808 82.8918 72.416C83.4238 72.0147 84.1518 71.7393 85.0758 71.59L86.8118 71.324V71.156C86.8118 70.8107 86.7418 70.5587 86.6018 70.4C86.4618 70.2413 86.2238 70.162 85.8878 70.162C85.7011 70.162 85.5425 70.1947 85.4118 70.26C85.2905 70.3253 85.1505 70.4233 84.9918 70.554C84.8705 70.6567 84.7631 70.7313 84.6698 70.778C84.6325 70.8433 84.5858 70.876 84.5298 70.876H82.9058C82.8125 70.876 82.7331 70.848 82.6678 70.792C82.6118 70.7267 82.5885 70.652 82.5978 70.568C82.6071 70.316 82.7331 70.036 82.9758 69.728C83.2185 69.4107 83.5871 69.14 84.0818 68.916C84.5765 68.692 85.1878 68.58 85.9158 68.58C87.0731 68.58 87.9318 68.8367 88.4918 69.35C89.0518 69.854 89.3318 70.54 89.3318 71.408V75.65C89.3318 75.7433 89.2991 75.8273 89.2338 75.902C89.1685 75.9673 89.0845 76 88.9818 76H87.2598C87.1665 76 87.0825 75.9673 87.0078 75.902C86.9425 75.8273 86.9098 75.7433 86.9098 75.65V75.16C86.7045 75.4493 86.4198 75.6873 86.0558 75.874C85.6918 76.0513 85.2578 76.14 84.7538 76.14ZM85.4538 74.488C85.8645 74.488 86.1958 74.3527 86.4478 74.082C86.7091 73.8113 86.8398 73.4193 86.8398 72.906V72.738L85.6778 72.934C84.8938 73.0833 84.5018 73.3633 84.5018 73.774C84.5018 73.9887 84.5905 74.1613 84.7678 74.292C84.9545 74.4227 85.1831 74.488 85.4538 74.488ZM94.2426 76.14C93.1786 76.14 92.3153 75.86 91.6526 75.3C90.9993 74.7307 90.6493 73.942 90.6026 72.934L90.5886 72.374L90.6026 71.8C90.64 70.792 90.99 70.0033 91.6526 69.434C92.3153 68.8647 93.1786 68.58 94.2426 68.58C95.0546 68.58 95.736 68.7247 96.2866 69.014C96.8373 69.3033 97.248 69.6487 97.5186 70.05C97.7893 70.442 97.934 70.8013 97.9526 71.128C97.962 71.2307 97.9293 71.3193 97.8546 71.394C97.78 71.4593 97.6913 71.492 97.5886 71.492H95.7126C95.61 71.492 95.5306 71.4687 95.4746 71.422C95.4186 71.3753 95.3673 71.3007 95.3206 71.198C95.218 70.9367 95.0826 70.7453 94.9146 70.624C94.756 70.5027 94.5506 70.442 94.2986 70.442C93.58 70.442 93.2066 70.918 93.1786 71.87L93.1646 72.402L93.1786 72.864C93.188 73.3493 93.286 73.7087 93.4726 73.942C93.6593 74.166 93.9346 74.278 94.2986 74.278C94.5693 74.278 94.7793 74.222 94.9286 74.11C95.0873 73.9887 95.218 73.7927 95.3206 73.522C95.3673 73.4193 95.4186 73.3447 95.4746 73.298C95.5306 73.2513 95.61 73.228 95.7126 73.228H97.5886C97.682 73.228 97.766 73.2607 97.8406 73.326C97.9153 73.3913 97.9526 73.4707 97.9526 73.564C97.9526 73.8533 97.822 74.2033 97.5606 74.614C97.3086 75.0153 96.9026 75.37 96.3426 75.678C95.7826 75.986 95.0826 76.14 94.2426 76.14ZM106.307 68.72C106.401 68.72 106.48 68.7527 106.545 68.818C106.62 68.8833 106.657 68.9627 106.657 69.056V75.65C106.657 75.7433 106.625 75.8273 106.559 75.902C106.494 75.9673 106.41 76 106.307 76H104.557C104.455 76 104.366 75.9673 104.291 75.902C104.226 75.8367 104.193 75.7527 104.193 75.65V71.856L101.463 75.776C101.361 75.9253 101.23 76 101.071 76H99.5035C99.4101 76 99.3261 75.9673 99.2515 75.902C99.1861 75.8273 99.1535 75.7433 99.1535 75.65V69.07C99.1535 68.9673 99.1861 68.8833 99.2515 68.818C99.3261 68.7527 99.4101 68.72 99.5035 68.72H101.253C101.356 68.72 101.44 68.7527 101.505 68.818C101.58 68.8833 101.617 68.9673 101.617 69.07V72.864L104.347 68.944C104.45 68.7947 104.581 68.72 104.739 68.72H106.307ZM115.402 72.192C115.421 72.416 115.43 72.5933 115.43 72.724C115.43 72.8453 115.421 73.0087 115.402 73.214C115.346 74.1473 115.001 74.8707 114.366 75.384C113.741 75.888 112.84 76.14 111.664 76.14C110.395 76.14 109.466 75.8367 108.878 75.23C108.3 74.6233 107.978 73.6573 107.912 72.332L107.898 71.478L107.912 70.638C107.959 69.3593 108.178 68.3933 108.57 67.74C108.972 67.0867 109.564 66.5967 110.348 66.27C111.142 65.9433 112.378 65.5933 114.058 65.22C114.152 65.2013 114.24 65.22 114.324 65.276C114.408 65.3227 114.455 65.3973 114.464 65.5L114.716 66.858C114.735 66.9607 114.721 67.054 114.674 67.138C114.628 67.2127 114.558 67.2593 114.464 67.278C113.242 67.5113 112.374 67.7073 111.86 67.866C111.356 68.0247 110.978 68.258 110.726 68.566C110.484 68.8647 110.339 69.3313 110.292 69.966C110.507 69.7607 110.778 69.5927 111.104 69.462C111.431 69.3313 111.772 69.266 112.126 69.266C113.144 69.266 113.928 69.5227 114.478 70.036C115.038 70.5493 115.346 71.268 115.402 72.192ZM112.84 73.158C112.85 73.0833 112.854 72.9387 112.854 72.724C112.854 72.4907 112.85 72.332 112.84 72.248C112.794 71.3333 112.43 70.876 111.748 70.876C110.955 70.876 110.535 71.3333 110.488 72.248L110.474 72.724L110.488 73.158C110.507 73.6247 110.61 73.9747 110.796 74.208C110.992 74.432 111.282 74.544 111.664 74.544C112.047 74.544 112.332 74.432 112.518 74.208C112.714 73.9747 112.822 73.6247 112.84 73.158ZM120.263 76.14C119.087 76.14 118.182 75.8693 117.547 75.328C116.922 74.7773 116.581 73.998 116.525 72.99C116.516 72.8687 116.511 72.6587 116.511 72.36C116.511 72.0613 116.516 71.8513 116.525 71.73C116.581 70.7407 116.931 69.9707 117.575 69.42C118.228 68.86 119.124 68.58 120.263 68.58C121.402 68.58 122.293 68.86 122.937 69.42C123.59 69.9707 123.945 70.7407 124.001 71.73C124.02 71.9727 124.029 72.1827 124.029 72.36C124.029 72.5373 124.02 72.7473 124.001 72.99C123.945 73.998 123.6 74.7773 122.965 75.328C122.34 75.8693 121.439 76.14 120.263 76.14ZM120.263 74.376C120.646 74.376 120.93 74.2593 121.117 74.026C121.304 73.7833 121.411 73.4147 121.439 72.92C121.448 72.8267 121.453 72.64 121.453 72.36C121.453 72.08 121.448 71.8933 121.439 71.8C121.411 71.3147 121.304 70.9507 121.117 70.708C120.93 70.4653 120.646 70.344 120.263 70.344C119.88 70.344 119.596 70.4653 119.409 70.708C119.222 70.9507 119.115 71.3147 119.087 71.8L119.073 72.36L119.087 72.92C119.115 73.4147 119.222 73.7833 119.409 74.026C119.596 74.2593 119.88 74.376 120.263 74.376ZM131.41 76.14C130.598 76.14 129.945 76.028 129.45 75.804C128.955 75.5707 128.596 75.2953 128.372 74.978C128.157 74.6513 128.031 74.3247 127.994 73.998V73.97C127.994 73.914 128.022 73.8627 128.078 73.816C128.134 73.7693 128.19 73.746 128.246 73.746H129.954C130.057 73.746 130.131 73.7647 130.178 73.802C130.234 73.83 130.285 73.8813 130.332 73.956C130.407 74.124 130.533 74.25 130.71 74.334C130.887 74.4087 131.13 74.446 131.438 74.446C131.755 74.446 131.998 74.39 132.166 74.278C132.343 74.1567 132.432 73.9747 132.432 73.732C132.432 73.508 132.362 73.34 132.222 73.228C132.091 73.1067 131.867 73.046 131.55 73.046H130.766C130.682 73.046 130.607 73.018 130.542 72.962C130.486 72.8967 130.458 72.822 130.458 72.738V71.898C130.458 71.814 130.486 71.744 130.542 71.688C130.598 71.6227 130.673 71.59 130.766 71.59H131.508C131.788 71.59 131.989 71.5433 132.11 71.45C132.241 71.3473 132.306 71.1933 132.306 70.988C132.306 70.7827 132.231 70.6147 132.082 70.484C131.933 70.3533 131.699 70.288 131.382 70.288C131.074 70.288 130.845 70.33 130.696 70.414C130.556 70.498 130.439 70.638 130.346 70.834C130.299 70.9087 130.248 70.9647 130.192 71.002C130.145 71.03 130.071 71.044 129.968 71.044H128.316C128.241 71.044 128.176 71.0207 128.12 70.974C128.073 70.918 128.055 70.8573 128.064 70.792C128.101 70.4373 128.232 70.092 128.456 69.756C128.68 69.42 129.035 69.14 129.52 68.916C130.005 68.692 130.635 68.58 131.41 68.58C132.539 68.58 133.365 68.7713 133.888 69.154C134.411 69.5367 134.672 70.036 134.672 70.652C134.672 71.3707 134.369 71.8747 133.762 72.164C134.49 72.4253 134.863 73.018 134.882 73.942C134.882 74.614 134.569 75.1507 133.944 75.552C133.328 75.944 132.483 76.14 131.41 76.14ZM138.389 76.14C137.894 76.14 137.441 76.0467 137.031 75.86C136.629 75.664 136.312 75.398 136.079 75.062C135.855 74.726 135.743 74.3573 135.743 73.956C135.743 73.3213 136.004 72.808 136.527 72.416C137.059 72.0147 137.787 71.7393 138.711 71.59L140.447 71.324V71.156C140.447 70.8107 140.377 70.5587 140.237 70.4C140.097 70.2413 139.859 70.162 139.523 70.162C139.336 70.162 139.177 70.1947 139.047 70.26C138.925 70.3253 138.785 70.4233 138.627 70.554C138.505 70.6567 138.398 70.7313 138.305 70.778C138.267 70.8433 138.221 70.876 138.165 70.876H136.541C136.447 70.876 136.368 70.848 136.303 70.792C136.247 70.7267 136.223 70.652 136.233 70.568C136.242 70.316 136.368 70.036 136.611 69.728C136.853 69.4107 137.222 69.14 137.717 68.916C138.211 68.692 138.823 68.58 139.551 68.58C140.708 68.58 141.567 68.8367 142.127 69.35C142.687 69.854 142.967 70.54 142.967 71.408V75.65C142.967 75.7433 142.934 75.8273 142.869 75.902C142.803 75.9673 142.719 76 142.617 76H140.895C140.801 76 140.717 75.9673 140.643 75.902C140.577 75.8273 140.545 75.7433 140.545 75.65V75.16C140.339 75.4493 140.055 75.6873 139.691 75.874C139.327 76.0513 138.893 76.14 138.389 76.14ZM139.089 74.488C139.499 74.488 139.831 74.3527 140.083 74.082C140.344 73.8113 140.475 73.4193 140.475 72.906V72.738L139.313 72.934C138.529 73.0833 138.137 73.3633 138.137 73.774C138.137 73.9887 138.225 74.1613 138.403 74.292C138.589 74.4227 138.818 74.488 139.089 74.488ZM149.641 76C149.538 76 149.45 75.9673 149.375 75.902C149.31 75.8367 149.277 75.7527 149.277 75.65V70.624H147.191C147.088 70.624 147 70.5913 146.925 70.526C146.86 70.4607 146.827 70.3767 146.827 70.274V69.07C146.827 68.9673 146.86 68.8833 146.925 68.818C147 68.7527 147.088 68.72 147.191 68.72H153.799C153.902 68.72 153.986 68.7527 154.051 68.818C154.116 68.8833 154.149 68.9673 154.149 69.07V70.274C154.149 70.3673 154.116 70.4513 154.051 70.526C153.986 70.5913 153.902 70.624 153.799 70.624H151.699V75.65C151.699 75.7433 151.666 75.8273 151.601 75.902C151.536 75.9673 151.452 76 151.349 76H149.641ZM158.653 76.14C157.477 76.14 156.572 75.8693 155.937 75.328C155.312 74.7773 154.971 73.998 154.915 72.99C154.906 72.8687 154.901 72.6587 154.901 72.36C154.901 72.0613 154.906 71.8513 154.915 71.73C154.971 70.7407 155.321 69.9707 155.965 69.42C156.619 68.86 157.515 68.58 158.653 68.58C159.792 68.58 160.683 68.86 161.327 69.42C161.981 69.9707 162.335 70.7407 162.391 71.73C162.41 71.9727 162.419 72.1827 162.419 72.36C162.419 72.5373 162.41 72.7473 162.391 72.99C162.335 73.998 161.99 74.7773 161.355 75.328C160.73 75.8693 159.829 76.14 158.653 76.14ZM158.653 74.376C159.036 74.376 159.321 74.2593 159.507 74.026C159.694 73.7833 159.801 73.4147 159.829 72.92C159.839 72.8267 159.843 72.64 159.843 72.36C159.843 72.08 159.839 71.8933 159.829 71.8C159.801 71.3147 159.694 70.9507 159.507 70.708C159.321 70.4653 159.036 70.344 158.653 70.344C158.271 70.344 157.986 70.4653 157.799 70.708C157.613 70.9507 157.505 71.3147 157.477 71.8L157.463 72.36L157.477 72.92C157.505 73.4147 157.613 73.7833 157.799 74.026C157.986 74.2593 158.271 74.376 158.653 74.376ZM163.614 77.05C163.53 77.05 163.46 77.0173 163.404 76.952C163.358 76.896 163.339 76.826 163.348 76.742L163.782 73.928C163.801 73.7973 163.852 73.6853 163.936 73.592C164.02 73.4893 164.142 73.438 164.3 73.438H165.994C166.069 73.438 166.134 73.466 166.19 73.522C166.246 73.578 166.274 73.6433 166.274 73.718C166.274 73.774 166.265 73.8253 166.246 73.872L165.154 76.658C165.052 76.9193 164.879 77.05 164.636 77.05H163.614ZM175.209 76C175.107 76 175.018 75.9673 174.943 75.902C174.878 75.8367 174.845 75.7527 174.845 75.65V73.564C174.425 73.9 173.8 74.068 172.969 74.068C172.064 74.068 171.378 73.8393 170.911 73.382C170.454 72.9153 170.225 72.1873 170.225 71.198V69.07C170.225 68.9673 170.258 68.8833 170.323 68.818C170.398 68.7527 170.482 68.72 170.575 68.72H172.395C172.498 68.72 172.582 68.7527 172.647 68.818C172.713 68.8833 172.745 68.9673 172.745 69.07V71.072C172.745 71.3893 172.82 71.6133 172.969 71.744C173.119 71.8747 173.371 71.94 173.725 71.94C174.071 71.94 174.341 71.8887 174.537 71.786C174.743 71.674 174.845 71.5153 174.845 71.31V69.07C174.845 68.9673 174.878 68.8833 174.943 68.818C175.018 68.7527 175.107 68.72 175.209 68.72H177.099C177.202 68.72 177.286 68.7527 177.351 68.818C177.426 68.8833 177.463 68.9673 177.463 69.07V75.65C177.463 75.7527 177.426 75.8367 177.351 75.902C177.286 75.9673 177.202 76 177.099 76H175.209ZM181.332 76C181.23 76 181.141 75.9673 181.066 75.902C181.001 75.8367 180.968 75.7527 180.968 75.65V70.624H178.882C178.78 70.624 178.691 70.5913 178.616 70.526C178.551 70.4607 178.518 70.3767 178.518 70.274V69.07C178.518 68.9673 178.551 68.8833 178.616 68.818C178.691 68.7527 178.78 68.72 178.882 68.72H185.49C185.593 68.72 185.677 68.7527 185.742 68.818C185.808 68.8833 185.84 68.9673 185.84 69.07V70.274C185.84 70.3673 185.808 70.4513 185.742 70.526C185.677 70.5913 185.593 70.624 185.49 70.624H183.39V75.65C183.39 75.7433 183.358 75.8273 183.292 75.902C183.227 75.9673 183.143 76 183.04 76H181.332ZM190.345 76.14C189.169 76.14 188.264 75.8693 187.629 75.328C187.004 74.7773 186.663 73.998 186.607 72.99C186.598 72.8687 186.593 72.6587 186.593 72.36C186.593 72.0613 186.598 71.8513 186.607 71.73C186.663 70.7407 187.013 69.9707 187.657 69.42C188.31 68.86 189.206 68.58 190.345 68.58C191.484 68.58 192.375 68.86 193.019 69.42C193.672 69.9707 194.027 70.7407 194.083 71.73C194.102 71.9727 194.111 72.1827 194.111 72.36C194.111 72.5373 194.102 72.7473 194.083 72.99C194.027 73.998 193.682 74.7773 193.047 75.328C192.422 75.8693 191.521 76.14 190.345 76.14ZM190.345 74.376C190.728 74.376 191.012 74.2593 191.199 74.026C191.386 73.7833 191.493 73.4147 191.521 72.92C191.53 72.8267 191.535 72.64 191.535 72.36C191.535 72.08 191.53 71.8933 191.521 71.8C191.493 71.3147 191.386 70.9507 191.199 70.708C191.012 70.4653 190.728 70.344 190.345 70.344C189.962 70.344 189.678 70.4653 189.491 70.708C189.304 70.9507 189.197 71.3147 189.169 71.8L189.155 72.36L189.169 72.92C189.197 73.4147 189.304 73.7833 189.491 74.026C189.678 74.2593 189.962 74.376 190.345 74.376ZM198.734 76C198.641 76 198.557 75.9673 198.482 75.902C198.417 75.8273 198.384 75.7433 198.384 75.65V69.07C198.384 68.9673 198.417 68.8833 198.482 68.818C198.557 68.7527 198.641 68.72 198.734 68.72H202.052C203.144 68.72 203.956 68.902 204.488 69.266C205.029 69.63 205.3 70.1433 205.3 70.806C205.3 71.1327 205.235 71.4127 205.104 71.646C204.973 71.87 204.787 72.066 204.544 72.234C204.852 72.3927 205.09 72.612 205.258 72.892C205.435 73.1627 205.524 73.48 205.524 73.844C205.524 74.5253 205.253 75.0573 204.712 75.44C204.171 75.8133 203.354 76 202.262 76H198.734ZM202.108 71.548C202.705 71.548 203.004 71.324 203.004 70.876C203.004 70.652 202.925 70.498 202.766 70.414C202.617 70.3207 202.397 70.274 202.108 70.274H200.764V71.548H202.108ZM202.136 74.446C202.743 74.446 203.046 74.236 203.046 73.816C203.046 73.5827 202.971 73.4147 202.822 73.312C202.673 73.2093 202.444 73.158 202.136 73.158H200.764V74.446H202.136ZM207.279 76C207.186 76 207.102 75.9673 207.027 75.902C206.962 75.8273 206.929 75.7433 206.929 75.65V69.07C206.929 68.9673 206.962 68.8833 207.027 68.818C207.102 68.7527 207.186 68.72 207.279 68.72H209.043C209.146 68.72 209.23 68.7527 209.295 68.818C209.36 68.8833 209.393 68.9673 209.393 69.07V70.946H210.653C211.586 70.946 212.314 71.1747 212.837 71.632C213.369 72.08 213.635 72.7007 213.635 73.494C213.635 74.306 213.364 74.9267 212.823 75.356C212.291 75.7853 211.544 76 210.583 76H207.279ZM214.825 76C214.732 76 214.648 75.9673 214.573 75.902C214.508 75.8273 214.475 75.7433 214.475 75.65V69.07C214.475 68.9673 214.508 68.8833 214.573 68.818C214.648 68.7527 214.732 68.72 214.825 68.72H216.575C216.678 68.72 216.762 68.7527 216.827 68.818C216.902 68.8833 216.939 68.9673 216.939 69.07V75.65C216.939 75.7527 216.902 75.8367 216.827 75.902C216.762 75.9673 216.678 76 216.575 76H214.825ZM210.443 74.334C210.788 74.334 211.04 74.2687 211.199 74.138C211.358 74.0073 211.437 73.7927 211.437 73.494C211.437 73.1953 211.358 72.9713 211.199 72.822C211.04 72.6727 210.788 72.598 210.443 72.598H209.351V74.334H210.443ZM224.932 76.14C223.868 76.14 223.005 75.86 222.342 75.3C221.689 74.7307 221.339 73.942 221.292 72.934L221.278 72.374L221.292 71.8C221.329 70.792 221.679 70.0033 222.342 69.434C223.005 68.8647 223.868 68.58 224.932 68.58C225.744 68.58 226.425 68.7247 226.976 69.014C227.527 69.3033 227.937 69.6487 228.208 70.05C228.479 70.442 228.623 70.8013 228.642 71.128C228.651 71.2307 228.619 71.3193 228.544 71.394C228.469 71.4593 228.381 71.492 228.278 71.492H226.402C226.299 71.492 226.22 71.4687 226.164 71.422C226.108 71.3753 226.057 71.3007 226.01 71.198C225.907 70.9367 225.772 70.7453 225.604 70.624C225.445 70.5027 225.24 70.442 224.988 70.442C224.269 70.442 223.896 70.918 223.868 71.87L223.854 72.402L223.868 72.864C223.877 73.3493 223.975 73.7087 224.162 73.942C224.349 74.166 224.624 74.278 224.988 74.278C225.259 74.278 225.469 74.222 225.618 74.11C225.777 73.9887 225.907 73.7927 226.01 73.522C226.057 73.4193 226.108 73.3447 226.164 73.298C226.22 73.2513 226.299 73.228 226.402 73.228H228.278C228.371 73.228 228.455 73.2607 228.53 73.326C228.605 73.3913 228.642 73.4707 228.642 73.564C228.642 73.8533 228.511 74.2033 228.25 74.614C227.998 75.0153 227.592 75.37 227.032 75.678C226.472 75.986 225.772 76.14 224.932 76.14ZM233.132 76C233.039 76 232.955 75.9673 232.88 75.902C232.815 75.8273 232.782 75.7433 232.782 75.65V69.07C232.782 68.9673 232.815 68.8833 232.88 68.818C232.955 68.7527 233.039 68.72 233.132 68.72H234.882C234.985 68.72 235.069 68.7527 235.134 68.818C235.209 68.8833 235.246 68.9673 235.246 69.07V71.352H237.626V69.07C237.626 68.9673 237.659 68.8833 237.724 68.818C237.799 68.7527 237.888 68.72 237.99 68.72H239.74C239.843 68.72 239.927 68.7527 239.992 68.818C240.058 68.8833 240.09 68.9673 240.09 69.07V75.65C240.09 75.7433 240.058 75.8273 239.992 75.902C239.927 75.9673 239.843 76 239.74 76H237.99C237.888 76 237.799 75.9673 237.724 75.902C237.659 75.8367 237.626 75.7527 237.626 75.65V73.256H235.246V75.65C235.246 75.7527 235.209 75.8367 235.134 75.902C235.069 75.9673 234.985 76 234.882 76H233.132ZM243.949 76.14C243.454 76.14 243.002 76.0467 242.591 75.86C242.19 75.664 241.872 75.398 241.639 75.062C241.415 74.726 241.303 74.3573 241.303 73.956C241.303 73.3213 241.564 72.808 242.087 72.416C242.619 72.0147 243.347 71.7393 244.271 71.59L246.007 71.324V71.156C246.007 70.8107 245.937 70.5587 245.797 70.4C245.657 70.2413 245.419 70.162 245.083 70.162C244.896 70.162 244.738 70.1947 244.607 70.26C244.486 70.3253 244.346 70.4233 244.187 70.554C244.066 70.6567 243.958 70.7313 243.865 70.778C243.828 70.8433 243.781 70.876 243.725 70.876H242.101C242.008 70.876 241.928 70.848 241.863 70.792C241.807 70.7267 241.784 70.652 241.793 70.568C241.802 70.316 241.928 70.036 242.171 69.728C242.414 69.4107 242.782 69.14 243.277 68.916C243.772 68.692 244.383 68.58 245.111 68.58C246.268 68.58 247.127 68.8367 247.687 69.35C248.247 69.854 248.527 70.54 248.527 71.408V75.65C248.527 75.7433 248.494 75.8273 248.429 75.902C248.364 75.9673 248.28 76 248.177 76H246.455C246.362 76 246.278 75.9673 246.203 75.902C246.138 75.8273 246.105 75.7433 246.105 75.65V75.16C245.9 75.4493 245.615 75.6873 245.251 75.874C244.887 76.0513 244.453 76.14 243.949 76.14ZM244.649 74.488C245.06 74.488 245.391 74.3527 245.643 74.082C245.904 73.8113 246.035 73.4193 246.035 72.906V72.738L244.873 72.934C244.089 73.0833 243.697 73.3633 243.697 73.774C243.697 73.9887 243.786 74.1613 243.963 74.292C244.15 74.4227 244.378 74.488 244.649 74.488ZM258.296 68.72C258.371 68.72 258.436 68.748 258.492 68.804C258.548 68.86 258.576 68.9253 258.576 69V75.706C258.576 75.79 258.548 75.86 258.492 75.916C258.436 75.972 258.366 76 258.282 76H256.448C256.364 76 256.294 75.972 256.238 75.916C256.182 75.86 256.154 75.79 256.154 75.706V72.612L255.006 74.614C254.95 74.7167 254.889 74.796 254.824 74.852C254.768 74.8987 254.693 74.922 254.6 74.922H254.026C253.858 74.922 253.718 74.8193 253.606 74.614L252.458 72.626V75.706C252.458 75.79 252.43 75.86 252.374 75.916C252.318 75.972 252.253 76 252.178 76H250.344C250.26 76 250.19 75.972 250.134 75.916C250.078 75.86 250.05 75.79 250.05 75.706V69C250.05 68.9253 250.078 68.86 250.134 68.804C250.19 68.748 250.255 68.72 250.33 68.72H252.038C252.206 68.72 252.341 68.804 252.444 68.972L254.306 72.276L256.182 68.972C256.285 68.804 256.42 68.72 256.588 68.72H258.296ZM267.39 68.72C267.483 68.72 267.562 68.7527 267.628 68.818C267.702 68.8833 267.74 68.9627 267.74 69.056V75.65C267.74 75.7433 267.707 75.8273 267.642 75.902C267.576 75.9673 267.492 76 267.39 76H265.64C265.537 76 265.448 75.9673 265.374 75.902C265.308 75.8367 265.276 75.7527 265.276 75.65V71.856L262.546 75.776C262.443 75.9253 262.312 76 262.154 76H260.586C260.492 76 260.408 75.9673 260.334 75.902C260.268 75.8273 260.236 75.7433 260.236 75.65V69.07C260.236 68.9673 260.268 68.8833 260.334 68.818C260.408 68.7527 260.492 68.72 260.586 68.72H262.336C262.438 68.72 262.522 68.7527 262.588 68.818C262.662 68.8833 262.7 68.9673 262.7 69.07V72.864L265.43 68.944C265.532 68.7947 265.663 68.72 265.822 68.72H267.39ZM269.498 76C269.396 76 269.307 75.9673 269.232 75.902C269.167 75.8367 269.134 75.7527 269.134 75.65V73.802C269.134 73.6993 269.167 73.6153 269.232 73.55C269.307 73.4753 269.396 73.438 269.498 73.438H271.346C271.449 73.438 271.533 73.4753 271.598 73.55C271.664 73.6153 271.696 73.6993 271.696 73.802V75.65C271.696 75.7433 271.664 75.8273 271.598 75.902C271.533 75.9673 271.449 76 271.346 76H269.498ZM68.012 97.14C66.6773 97.14 65.6273 96.818 64.862 96.174C64.106 95.53 63.7047 94.5873 63.658 93.346C63.6487 93.094 63.644 92.6833 63.644 92.114C63.644 91.5353 63.6487 91.1153 63.658 90.854C63.7047 89.6407 64.1107 88.7073 64.876 88.054C65.6507 87.3913 66.696 87.06 68.012 87.06C68.8427 87.06 69.5847 87.1953 70.238 87.466C70.9007 87.7367 71.4233 88.1287 71.806 88.642C72.1887 89.1553 72.3893 89.762 72.408 90.462C72.408 90.546 72.3753 90.616 72.31 90.672C72.254 90.728 72.184 90.756 72.1 90.756H70.112C69.9813 90.756 69.8833 90.7327 69.818 90.686C69.762 90.63 69.7107 90.532 69.664 90.392C69.5333 89.9347 69.3327 89.6173 69.062 89.44C68.8007 89.2533 68.4507 89.16 68.012 89.16C66.9573 89.16 66.4113 89.748 66.374 90.924C66.3647 91.176 66.36 91.5633 66.36 92.086C66.36 92.6087 66.3647 93.0053 66.374 93.276C66.4113 94.452 66.9573 95.04 68.012 95.04C68.4413 95.04 68.7913 94.9467 69.062 94.76C69.342 94.5733 69.5427 94.256 69.664 93.808C69.7013 93.668 69.7527 93.5747 69.818 93.528C69.8833 93.472 69.9813 93.444 70.112 93.444H72.1C72.184 93.444 72.254 93.472 72.31 93.528C72.3753 93.584 72.408 93.654 72.408 93.738C72.3893 94.438 72.1887 95.0447 71.806 95.558C71.4233 96.0713 70.9007 96.4633 70.238 96.734C69.5847 97.0047 68.8427 97.14 68.012 97.14ZM77.0988 97.14C75.9601 97.14 75.0641 96.8367 74.4108 96.23C73.7574 95.614 73.4214 94.7227 73.4028 93.556V93.122C73.4401 92.0113 73.7854 91.1433 74.4388 90.518C75.0921 89.8927 75.9741 89.58 77.0848 89.58C77.8874 89.58 78.5641 89.7433 79.1148 90.07C79.6748 90.3873 80.0901 90.8307 80.3608 91.4C80.6408 91.96 80.7808 92.5993 80.7808 93.318V93.668C80.7808 93.7707 80.7434 93.8593 80.6688 93.934C80.6034 93.9993 80.5194 94.032 80.4168 94.032H75.9788V94.116C75.9881 94.536 76.0861 94.8767 76.2728 95.138C76.4594 95.39 76.7254 95.516 77.0708 95.516C77.2948 95.516 77.4721 95.474 77.6028 95.39C77.7428 95.2967 77.8734 95.18 77.9948 95.04C78.0788 94.9467 78.1441 94.8907 78.1908 94.872C78.2468 94.844 78.3308 94.83 78.4428 94.83H80.2768C80.3608 94.83 80.4308 94.858 80.4868 94.914C80.5521 94.9607 80.5848 95.0213 80.5848 95.096C80.5848 95.3387 80.4448 95.6233 80.1648 95.95C79.8941 96.2767 79.4928 96.5567 78.9608 96.79C78.4381 97.0233 77.8174 97.14 77.0988 97.14ZM78.2048 92.604V92.576C78.2048 92.128 78.1068 91.7827 77.9108 91.54C77.7148 91.288 77.4394 91.162 77.0848 91.162C76.7301 91.162 76.4548 91.288 76.2588 91.54C76.0721 91.7827 75.9788 92.128 75.9788 92.576V92.604H78.2048ZM82.3863 97C82.2929 97 82.2089 96.9673 82.1343 96.902C82.0689 96.8273 82.0363 96.7433 82.0363 96.65V90.07C82.0363 89.9673 82.0689 89.8833 82.1343 89.818C82.2089 89.7527 82.2929 89.72 82.3863 89.72H85.7043C86.7963 89.72 87.6083 89.902 88.1403 90.266C88.6816 90.63 88.9523 91.1433 88.9523 91.806C88.9523 92.1327 88.8869 92.4127 88.7563 92.646C88.6256 92.87 88.4389 93.066 88.1963 93.234C88.5043 93.3927 88.7423 93.612 88.9103 93.892C89.0876 94.1627 89.1763 94.48 89.1763 94.844C89.1763 95.5253 88.9056 96.0573 88.3643 96.44C87.8229 96.8133 87.0063 97 85.9143 97H82.3863ZM85.7603 92.548C86.3576 92.548 86.6563 92.324 86.6563 91.876C86.6563 91.652 86.5769 91.498 86.4183 91.414C86.2689 91.3207 86.0496 91.274 85.7603 91.274H84.4163V92.548H85.7603ZM85.7883 95.446C86.3949 95.446 86.6983 95.236 86.6983 94.816C86.6983 94.5827 86.6236 94.4147 86.4743 94.312C86.3249 94.2093 86.0963 94.158 85.7883 94.158H84.4163V95.446H85.7883ZM93.9972 97.14C92.8585 97.14 91.9625 96.8367 91.3092 96.23C90.6559 95.614 90.3199 94.7227 90.3012 93.556V93.122C90.3385 92.0113 90.6839 91.1433 91.3372 90.518C91.9905 89.8927 92.8725 89.58 93.9832 89.58C94.7859 89.58 95.4625 89.7433 96.0132 90.07C96.5732 90.3873 96.9885 90.8307 97.2592 91.4C97.5392 91.96 97.6792 92.5993 97.6792 93.318V93.668C97.6792 93.7707 97.6419 93.8593 97.5672 93.934C97.5019 93.9993 97.4179 94.032 97.3152 94.032H92.8772V94.116C92.8865 94.536 92.9845 94.8767 93.1712 95.138C93.3579 95.39 93.6239 95.516 93.9692 95.516C94.1932 95.516 94.3705 95.474 94.5012 95.39C94.6412 95.2967 94.7719 95.18 94.8932 95.04C94.9772 94.9467 95.0425 94.8907 95.0892 94.872C95.1452 94.844 95.2292 94.83 95.3412 94.83H97.1752C97.2592 94.83 97.3292 94.858 97.3852 94.914C97.4505 94.9607 97.4832 95.0213 97.4832 95.096C97.4832 95.3387 97.3432 95.6233 97.0632 95.95C96.7925 96.2767 96.3912 96.5567 95.8592 96.79C95.3365 97.0233 94.7159 97.14 93.9972 97.14ZM95.1032 92.604V92.576C95.1032 92.128 95.0052 91.7827 94.8092 91.54C94.6132 91.288 94.3379 91.162 93.9832 91.162C93.6285 91.162 93.3532 91.288 93.1572 91.54C92.9705 91.7827 92.8772 92.128 92.8772 92.576V92.604H95.1032ZM99.2987 99.66C99.1961 99.66 99.1074 99.6273 99.0327 99.562C98.9674 99.4967 98.9347 99.4127 98.9347 99.31V90.07C98.9347 89.9673 98.9674 89.8833 99.0327 89.818C99.1074 89.7527 99.1961 89.72 99.2987 89.72H100.965C101.067 89.72 101.151 89.7527 101.217 89.818C101.282 89.8833 101.315 89.9673 101.315 90.07V90.574C101.819 89.9113 102.542 89.58 103.485 89.58C104.39 89.58 105.099 89.8647 105.613 90.434C106.135 90.994 106.415 91.7967 106.453 92.842C106.462 92.9633 106.467 93.136 106.467 93.36C106.467 93.584 106.462 93.7613 106.453 93.892C106.415 94.9 106.135 95.6933 105.613 96.272C105.09 96.8507 104.381 97.14 103.485 97.14C102.579 97.14 101.903 96.832 101.455 96.216V99.31C101.455 99.4127 101.422 99.4967 101.357 99.562C101.291 99.6273 101.207 99.66 101.105 99.66H99.2987ZM102.673 95.194C103.093 95.194 103.391 95.0727 103.569 94.83C103.755 94.578 103.863 94.2327 103.891 93.794C103.9 93.7007 103.905 93.556 103.905 93.36C103.905 93.164 103.9 93.0193 103.891 92.926C103.863 92.4873 103.755 92.1467 103.569 91.904C103.391 91.652 103.093 91.526 102.673 91.526C102.271 91.526 101.973 91.6567 101.777 91.918C101.581 92.17 101.473 92.492 101.455 92.884C101.445 93.0053 101.441 93.1827 101.441 93.416C101.441 93.64 101.445 93.8127 101.455 93.934C101.473 94.298 101.581 94.6013 101.777 94.844C101.982 95.0773 102.281 95.194 102.673 95.194ZM114.332 89.72C114.434 89.72 114.518 89.7527 114.584 89.818C114.649 89.8833 114.682 89.9673 114.682 90.07V96.65C114.682 96.7433 114.649 96.8273 114.584 96.902C114.518 96.9673 114.434 97 114.332 97H112.526C112.423 97 112.334 96.9673 112.26 96.902C112.194 96.8367 112.162 96.7527 112.162 96.65V94.69H111.21L110.076 96.79C110.01 96.93 109.903 97 109.754 97H107.99C107.896 97 107.822 96.972 107.766 96.916C107.71 96.86 107.682 96.7947 107.682 96.72C107.682 96.6453 107.705 96.58 107.752 96.524L109.138 94.228C108.746 94.0227 108.447 93.7473 108.242 93.402C108.036 93.0567 107.934 92.6507 107.934 92.184C107.934 91.3907 108.195 90.784 108.718 90.364C109.25 89.9347 109.987 89.72 110.93 89.72H114.332ZM112.218 91.386H111.07C110.743 91.386 110.5 91.4513 110.342 91.582C110.192 91.7033 110.118 91.904 110.118 92.184C110.118 92.4453 110.192 92.6507 110.342 92.8C110.5 92.9493 110.729 93.024 111.028 93.024H112.218V91.386ZM116.703 97C116.609 97 116.525 96.9673 116.451 96.902C116.385 96.8273 116.353 96.7433 116.353 96.65V90.07C116.353 89.9673 116.385 89.8833 116.451 89.818C116.525 89.7527 116.609 89.72 116.703 89.72H118.453C118.555 89.72 118.639 89.7527 118.705 89.818C118.779 89.8833 118.817 89.9673 118.817 90.07V92.352H121.197V90.07C121.197 89.9673 121.229 89.8833 121.295 89.818C121.369 89.7527 121.458 89.72 121.561 89.72H123.311C123.413 89.72 123.497 89.7527 123.563 89.818C123.628 89.8833 123.661 89.9673 123.661 90.07V96.65C123.661 96.7433 123.628 96.8273 123.563 96.902C123.497 96.9673 123.413 97 123.311 97H121.561C121.458 97 121.369 96.9673 121.295 96.902C121.229 96.8367 121.197 96.7527 121.197 96.65V94.256H118.817V96.65C118.817 96.7527 118.779 96.8367 118.705 96.902C118.639 96.9673 118.555 97 118.453 97H116.703ZM128.821 97.14C127.645 97.14 126.74 96.8693 126.105 96.328C125.48 95.7773 125.139 94.998 125.083 93.99C125.074 93.8687 125.069 93.6587 125.069 93.36C125.069 93.0613 125.074 92.8513 125.083 92.73C125.139 91.7407 125.489 90.9707 126.133 90.42C126.787 89.86 127.683 89.58 128.821 89.58C129.96 89.58 130.851 89.86 131.495 90.42C132.149 90.9707 132.503 91.7407 132.559 92.73C132.578 92.9727 132.587 93.1827 132.587 93.36C132.587 93.5373 132.578 93.7473 132.559 93.99C132.503 94.998 132.158 95.7773 131.523 96.328C130.898 96.8693 129.997 97.14 128.821 97.14ZM128.821 95.376C129.204 95.376 129.489 95.2593 129.675 95.026C129.862 94.7833 129.969 94.4147 129.997 93.92C130.007 93.8267 130.011 93.64 130.011 93.36C130.011 93.08 130.007 92.8933 129.997 92.8C129.969 92.3147 129.862 91.9507 129.675 91.708C129.489 91.4653 129.204 91.344 128.821 91.344C128.439 91.344 128.154 91.4653 127.967 91.708C127.781 91.9507 127.673 92.3147 127.645 92.8L127.631 93.36L127.645 93.92C127.673 94.4147 127.781 94.7833 127.967 95.026C128.154 95.2593 128.439 95.376 128.821 95.376ZM138.555 97C138.452 97 138.364 96.9673 138.289 96.902C138.224 96.8367 138.191 96.7527 138.191 96.65V94.564C137.771 94.9 137.146 95.068 136.315 95.068C135.41 95.068 134.724 94.8393 134.257 94.382C133.8 93.9153 133.571 93.1873 133.571 92.198V90.07C133.571 89.9673 133.604 89.8833 133.669 89.818C133.744 89.7527 133.828 89.72 133.921 89.72H135.741C135.844 89.72 135.928 89.7527 135.993 89.818C136.058 89.8833 136.091 89.9673 136.091 90.07V92.072C136.091 92.3893 136.166 92.6133 136.315 92.744C136.464 92.8747 136.716 92.94 137.071 92.94C137.416 92.94 137.687 92.8887 137.883 92.786C138.088 92.674 138.191 92.5153 138.191 92.31V90.07C138.191 89.9673 138.224 89.8833 138.289 89.818C138.364 89.7527 138.452 89.72 138.555 89.72H140.445C140.548 89.72 140.632 89.7527 140.697 89.818C140.772 89.8833 140.809 89.9673 140.809 90.07V96.65C140.809 96.7527 140.772 96.8367 140.697 96.902C140.632 96.9673 140.548 97 140.445 97H138.555ZM149.928 96.524C149.965 96.5707 149.984 96.6313 149.984 96.706C149.984 96.79 149.956 96.86 149.9 96.916C149.844 96.972 149.769 97 149.676 97H147.59C147.422 97 147.287 96.9253 147.184 96.776L145.588 94.27H144.888V96.65C144.888 96.7433 144.855 96.8273 144.79 96.902C144.725 96.9673 144.641 97 144.538 97H142.816C142.723 97 142.639 96.9673 142.564 96.902C142.499 96.8273 142.466 96.7433 142.466 96.65V90.07C142.466 89.9673 142.499 89.8833 142.564 89.818C142.639 89.7527 142.723 89.72 142.816 89.72H144.538C144.641 89.72 144.725 89.7527 144.79 89.818C144.855 89.8833 144.888 89.9673 144.888 90.07V92.352H145.616L147.086 89.944C147.189 89.7947 147.319 89.72 147.478 89.72H149.354C149.447 89.72 149.522 89.748 149.578 89.804C149.643 89.86 149.676 89.93 149.676 90.014C149.676 90.0513 149.653 90.1167 149.606 90.21L147.716 93.262L149.928 96.524ZM153.25 97.14C152.755 97.14 152.303 97.0467 151.892 96.86C151.491 96.664 151.173 96.398 150.94 96.062C150.716 95.726 150.604 95.3573 150.604 94.956C150.604 94.3213 150.865 93.808 151.388 93.416C151.92 93.0147 152.648 92.7393 153.572 92.59L155.308 92.324V92.156C155.308 91.8107 155.238 91.5587 155.098 91.4C154.958 91.2413 154.72 91.162 154.384 91.162C154.197 91.162 154.039 91.1947 153.908 91.26C153.787 91.3253 153.647 91.4233 153.488 91.554C153.367 91.6567 153.259 91.7313 153.166 91.778C153.129 91.8433 153.082 91.876 153.026 91.876H151.402C151.309 91.876 151.229 91.848 151.164 91.792C151.108 91.7267 151.085 91.652 151.094 91.568C151.103 91.316 151.229 91.036 151.472 90.728C151.715 90.4107 152.083 90.14 152.578 89.916C153.073 89.692 153.684 89.58 154.412 89.58C155.569 89.58 156.428 89.8367 156.988 90.35C157.548 90.854 157.828 91.54 157.828 92.408V96.65C157.828 96.7433 157.795 96.8273 157.73 96.902C157.665 96.9673 157.581 97 157.478 97H155.756C155.663 97 155.579 96.9673 155.504 96.902C155.439 96.8273 155.406 96.7433 155.406 96.65V96.16C155.201 96.4493 154.916 96.6873 154.552 96.874C154.188 97.0513 153.754 97.14 153.25 97.14ZM153.95 95.488C154.361 95.488 154.692 95.3527 154.944 95.082C155.205 94.8113 155.336 94.4193 155.336 93.906V93.738L154.174 93.934C153.39 94.0833 152.998 94.3633 152.998 94.774C152.998 94.9887 153.087 95.1613 153.264 95.292C153.451 95.4227 153.679 95.488 153.95 95.488ZM159.267 98.05C159.183 98.05 159.113 98.0173 159.057 97.952C159.01 97.896 158.991 97.826 159.001 97.742L159.435 94.928C159.453 94.7973 159.505 94.6853 159.589 94.592C159.673 94.4893 159.794 94.438 159.953 94.438H161.647C161.721 94.438 161.787 94.466 161.843 94.522C161.899 94.578 161.927 94.6433 161.927 94.718C161.927 94.774 161.917 94.8253 161.899 94.872L160.807 97.658C160.704 97.9193 160.531 98.05 160.289 98.05H159.267ZM166.578 97C166.484 97 166.4 96.9673 166.326 96.902C166.26 96.8273 166.228 96.7433 166.228 96.65V90.07C166.228 89.9673 166.26 89.8833 166.326 89.818C166.4 89.7527 166.484 89.72 166.578 89.72H169.896C170.988 89.72 171.8 89.902 172.332 90.266C172.873 90.63 173.144 91.1433 173.144 91.806C173.144 92.1327 173.078 92.4127 172.948 92.646C172.817 92.87 172.63 93.066 172.388 93.234C172.696 93.3927 172.934 93.612 173.102 93.892C173.279 94.1627 173.368 94.48 173.368 94.844C173.368 95.5253 173.097 96.0573 172.556 96.44C172.014 96.8133 171.198 97 170.106 97H166.578ZM169.952 92.548C170.549 92.548 170.848 92.324 170.848 91.876C170.848 91.652 170.768 91.498 170.61 91.414C170.46 91.3207 170.241 91.274 169.952 91.274H168.608V92.548H169.952ZM169.98 95.446C170.586 95.446 170.89 95.236 170.89 94.816C170.89 94.5827 170.815 94.4147 170.666 94.312C170.516 94.2093 170.288 94.158 169.98 94.158H168.608V95.446H169.98ZM178.189 97.14C177.05 97.14 176.154 96.8367 175.501 96.23C174.847 95.614 174.511 94.7227 174.493 93.556V93.122C174.53 92.0113 174.875 91.1433 175.529 90.518C176.182 89.8927 177.064 89.58 178.175 89.58C178.977 89.58 179.654 89.7433 180.205 90.07C180.765 90.3873 181.18 90.8307 181.451 91.4C181.731 91.96 181.871 92.5993 181.871 93.318V93.668C181.871 93.7707 181.833 93.8593 181.759 93.934C181.693 93.9993 181.609 94.032 181.507 94.032H177.069V94.116C177.078 94.536 177.176 94.8767 177.363 95.138C177.549 95.39 177.815 95.516 178.161 95.516C178.385 95.516 178.562 95.474 178.693 95.39C178.833 95.2967 178.963 95.18 179.085 95.04C179.169 94.9467 179.234 94.8907 179.281 94.872C179.337 94.844 179.421 94.83 179.533 94.83H181.367C181.451 94.83 181.521 94.858 181.577 94.914C181.642 94.9607 181.675 95.0213 181.675 95.096C181.675 95.3387 181.535 95.6233 181.255 95.95C180.984 96.2767 180.583 96.5567 180.051 96.79C179.528 97.0233 178.907 97.14 178.189 97.14ZM179.295 92.604V92.576C179.295 92.128 179.197 91.7827 179.001 91.54C178.805 91.288 178.529 91.162 178.175 91.162C177.82 91.162 177.545 91.288 177.349 91.54C177.162 91.7827 177.069 92.128 177.069 92.576V92.604H179.295ZM186.234 97.14C185.422 97.14 184.769 97.028 184.274 96.804C183.779 96.5707 183.42 96.2953 183.196 95.978C182.981 95.6513 182.855 95.3247 182.818 94.998V94.97C182.818 94.914 182.846 94.8627 182.902 94.816C182.958 94.7693 183.014 94.746 183.07 94.746H184.778C184.881 94.746 184.955 94.7647 185.002 94.802C185.058 94.83 185.109 94.8813 185.156 94.956C185.231 95.124 185.357 95.25 185.534 95.334C185.711 95.4087 185.954 95.446 186.262 95.446C186.579 95.446 186.822 95.39 186.99 95.278C187.167 95.1567 187.256 94.9747 187.256 94.732C187.256 94.508 187.186 94.34 187.046 94.228C186.915 94.1067 186.691 94.046 186.374 94.046H185.59C185.506 94.046 185.431 94.018 185.366 93.962C185.31 93.8967 185.282 93.822 185.282 93.738V92.898C185.282 92.814 185.31 92.744 185.366 92.688C185.422 92.6227 185.497 92.59 185.59 92.59H186.332C186.612 92.59 186.813 92.5433 186.934 92.45C187.065 92.3473 187.13 92.1933 187.13 91.988C187.13 91.7827 187.055 91.6147 186.906 91.484C186.757 91.3533 186.523 91.288 186.206 91.288C185.898 91.288 185.669 91.33 185.52 91.414C185.38 91.498 185.263 91.638 185.17 91.834C185.123 91.9087 185.072 91.9647 185.016 92.002C184.969 92.03 184.895 92.044 184.792 92.044H183.14C183.065 92.044 183 92.0207 182.944 91.974C182.897 91.918 182.879 91.8573 182.888 91.792C182.925 91.4373 183.056 91.092 183.28 90.756C183.504 90.42 183.859 90.14 184.344 89.916C184.829 89.692 185.459 89.58 186.234 89.58C187.363 89.58 188.189 89.7713 188.712 90.154C189.235 90.5367 189.496 91.036 189.496 91.652C189.496 92.3707 189.193 92.8747 188.586 93.164C189.314 93.4253 189.687 94.018 189.706 94.942C189.706 95.614 189.393 96.1507 188.768 96.552C188.152 96.944 187.307 97.14 186.234 97.14ZM194.431 97.14C193.292 97.14 192.396 96.8367 191.743 96.23C191.089 95.614 190.753 94.7227 190.735 93.556V93.122C190.772 92.0113 191.117 91.1433 191.771 90.518C192.424 89.8927 193.306 89.58 194.417 89.58C195.219 89.58 195.896 89.7433 196.447 90.07C197.007 90.3873 197.422 90.8307 197.693 91.4C197.973 91.96 198.113 92.5993 198.113 93.318V93.668C198.113 93.7707 198.075 93.8593 198.001 93.934C197.935 93.9993 197.851 94.032 197.749 94.032H193.311V94.116C193.32 94.536 193.418 94.8767 193.605 95.138C193.791 95.39 194.057 95.516 194.403 95.516C194.627 95.516 194.804 95.474 194.935 95.39C195.075 95.2967 195.205 95.18 195.327 95.04C195.411 94.9467 195.476 94.8907 195.523 94.872C195.579 94.844 195.663 94.83 195.775 94.83H197.609C197.693 94.83 197.763 94.858 197.819 94.914C197.884 94.9607 197.917 95.0213 197.917 95.096C197.917 95.3387 197.777 95.6233 197.497 95.95C197.226 96.2767 196.825 96.5567 196.293 96.79C195.77 97.0233 195.149 97.14 194.431 97.14ZM195.537 92.604V92.576C195.537 92.128 195.439 91.7827 195.243 91.54C195.047 91.288 194.771 91.162 194.417 91.162C194.062 91.162 193.787 91.288 193.591 91.54C193.404 91.7827 193.311 92.128 193.311 92.576V92.604H195.537ZM201.58 97C201.478 97 201.389 96.9673 201.314 96.902C201.249 96.8367 201.216 96.7527 201.216 96.65V91.624H199.13C199.028 91.624 198.939 91.5913 198.864 91.526C198.799 91.4607 198.766 91.3767 198.766 91.274V90.07C198.766 89.9673 198.799 89.8833 198.864 89.818C198.939 89.7527 199.028 89.72 199.13 89.72H205.738C205.841 89.72 205.925 89.7527 205.99 89.818C206.056 89.8833 206.088 89.9673 206.088 90.07V91.274C206.088 91.3673 206.056 91.4513 205.99 91.526C205.925 91.5913 205.841 91.624 205.738 91.624H203.638V96.65C203.638 96.7433 203.606 96.8273 203.54 96.902C203.475 96.9673 203.391 97 203.288 97H201.58ZM210.382 97C210.289 97 210.205 96.9673 210.13 96.902C210.065 96.8273 210.032 96.7433 210.032 96.65V90.07C210.032 89.9673 210.065 89.8833 210.13 89.818C210.205 89.7527 210.289 89.72 210.382 89.72H213.7C214.792 89.72 215.604 89.902 216.136 90.266C216.678 90.63 216.948 91.1433 216.948 91.806C216.948 92.1327 216.883 92.4127 216.752 92.646C216.622 92.87 216.435 93.066 216.192 93.234C216.5 93.3927 216.738 93.612 216.906 93.892C217.084 94.1627 217.172 94.48 217.172 94.844C217.172 95.5253 216.902 96.0573 216.36 96.44C215.819 96.8133 215.002 97 213.91 97H210.382ZM213.756 92.548C214.354 92.548 214.652 92.324 214.652 91.876C214.652 91.652 214.573 91.498 214.414 91.414C214.265 91.3207 214.046 91.274 213.756 91.274H212.412V92.548H213.756ZM213.784 95.446C214.391 95.446 214.694 95.236 214.694 94.816C214.694 94.5827 214.62 94.4147 214.47 94.312C214.321 94.2093 214.092 94.158 213.784 94.158H212.412V95.446H213.784ZM221.965 97.14C220.901 97.14 220.038 96.86 219.375 96.3C218.722 95.7307 218.372 94.942 218.325 93.934L218.311 93.374L218.325 92.8C218.363 91.792 218.713 91.0033 219.375 90.434C220.038 89.8647 220.901 89.58 221.965 89.58C222.777 89.58 223.459 89.7247 224.009 90.014C224.56 90.3033 224.971 90.6487 225.241 91.05C225.512 91.442 225.657 91.8013 225.675 92.128C225.685 92.2307 225.652 92.3193 225.577 92.394C225.503 92.4593 225.414 92.492 225.311 92.492H223.435C223.333 92.492 223.253 92.4687 223.197 92.422C223.141 92.3753 223.09 92.3007 223.043 92.198C222.941 91.9367 222.805 91.7453 222.637 91.624C222.479 91.5027 222.273 91.442 222.021 91.442C221.303 91.442 220.929 91.918 220.901 92.87L220.887 93.402L220.901 93.864C220.911 94.3493 221.009 94.7087 221.195 94.942C221.382 95.166 221.657 95.278 222.021 95.278C222.292 95.278 222.502 95.222 222.651 95.11C222.81 94.9887 222.941 94.7927 223.043 94.522C223.09 94.4193 223.141 94.3447 223.197 94.298C223.253 94.2513 223.333 94.228 223.435 94.228H225.311C225.405 94.228 225.489 94.2607 225.563 94.326C225.638 94.3913 225.675 94.4707 225.675 94.564C225.675 94.8533 225.545 95.2033 225.283 95.614C225.031 96.0153 224.625 96.37 224.065 96.678C223.505 96.986 222.805 97.14 221.965 97.14ZM230.292 97.14C229.153 97.14 228.257 96.8367 227.604 96.23C226.951 95.614 226.615 94.7227 226.596 93.556V93.122C226.633 92.0113 226.979 91.1433 227.632 90.518C228.285 89.8927 229.167 89.58 230.278 89.58C231.081 89.58 231.757 89.7433 232.308 90.07C232.868 90.3873 233.283 90.8307 233.554 91.4C233.834 91.96 233.974 92.5993 233.974 93.318V93.668C233.974 93.7707 233.937 93.8593 233.862 93.934C233.797 93.9993 233.713 94.032 233.61 94.032H229.172V94.116C229.181 94.536 229.279 94.8767 229.466 95.138C229.653 95.39 229.919 95.516 230.264 95.516C230.488 95.516 230.665 95.474 230.796 95.39C230.936 95.2967 231.067 95.18 231.188 95.04C231.272 94.9467 231.337 94.8907 231.384 94.872C231.44 94.844 231.524 94.83 231.636 94.83H233.47C233.554 94.83 233.624 94.858 233.68 94.914C233.745 94.9607 233.778 95.0213 233.778 95.096C233.778 95.3387 233.638 95.6233 233.358 95.95C233.087 96.2767 232.686 96.5567 232.154 96.79C231.631 97.0233 231.011 97.14 230.292 97.14ZM231.398 92.604V92.576C231.398 92.128 231.3 91.7827 231.104 91.54C230.908 91.288 230.633 91.162 230.278 91.162C229.923 91.162 229.648 91.288 229.452 91.54C229.265 91.7827 229.172 92.128 229.172 92.576V92.604H231.398ZM235.58 97C235.486 97 235.402 96.9673 235.328 96.902C235.262 96.8273 235.23 96.7433 235.23 96.65V90.07C235.23 89.9673 235.262 89.8833 235.328 89.818C235.402 89.7527 235.486 89.72 235.58 89.72H240.312C240.414 89.72 240.498 89.7527 240.564 89.818C240.629 89.8833 240.662 89.9673 240.662 90.07V91.274C240.662 91.3673 240.629 91.4513 240.564 91.526C240.498 91.5913 240.414 91.624 240.312 91.624H237.694V96.65C237.694 96.7527 237.656 96.8367 237.582 96.902C237.516 96.9673 237.432 97 237.33 97H235.58ZM241.584 98.54C241.482 98.54 241.393 98.5073 241.318 98.442C241.253 98.3767 241.22 98.2927 241.22 98.19V95.446C241.22 95.3433 241.253 95.2593 241.318 95.194C241.393 95.1287 241.482 95.096 241.584 95.096H241.724C242.06 95.096 242.294 94.8533 242.424 94.368C242.555 93.8733 242.62 93.108 242.62 92.072V90.07C242.62 89.9673 242.653 89.8833 242.718 89.818C242.793 89.7527 242.882 89.72 242.984 89.72H248.584C248.687 89.72 248.771 89.7527 248.836 89.818C248.902 89.8833 248.934 89.9673 248.934 90.07V95.082H249.522C249.625 95.082 249.709 95.1193 249.774 95.194C249.849 95.2593 249.886 95.3433 249.886 95.446V98.19C249.886 98.2927 249.849 98.3767 249.774 98.442C249.709 98.5073 249.625 98.54 249.522 98.54H247.772C247.679 98.54 247.595 98.5073 247.52 98.442C247.455 98.3767 247.422 98.2927 247.422 98.19V97H243.684V98.19C243.684 98.2927 243.652 98.3767 243.586 98.442C243.521 98.5073 243.437 98.54 243.334 98.54H241.584ZM246.47 95.082V91.624H244.958V92.338C244.958 93.626 244.8 94.5453 244.482 95.096L246.47 95.082ZM253.15 97.14C252.656 97.14 252.203 97.0467 251.792 96.86C251.391 96.664 251.074 96.398 250.84 96.062C250.616 95.726 250.504 95.3573 250.504 94.956C250.504 94.3213 250.766 93.808 251.288 93.416C251.82 93.0147 252.548 92.7393 253.472 92.59L255.208 92.324V92.156C255.208 91.8107 255.138 91.5587 254.998 91.4C254.858 91.2413 254.62 91.162 254.284 91.162C254.098 91.162 253.939 91.1947 253.808 91.26C253.687 91.3253 253.547 91.4233 253.388 91.554C253.267 91.6567 253.16 91.7313 253.066 91.778C253.029 91.8433 252.982 91.876 252.926 91.876H251.302C251.209 91.876 251.13 91.848 251.064 91.792C251.008 91.7267 250.985 91.652 250.994 91.568C251.004 91.316 251.13 91.036 251.372 90.728C251.615 90.4107 251.984 90.14 252.478 89.916C252.973 89.692 253.584 89.58 254.312 89.58C255.47 89.58 256.328 89.8367 256.888 90.35C257.448 90.854 257.728 91.54 257.728 92.408V96.65C257.728 96.7433 257.696 96.8273 257.63 96.902C257.565 96.9673 257.481 97 257.378 97H255.656C255.563 97 255.479 96.9673 255.404 96.902C255.339 96.8273 255.306 96.7433 255.306 96.65V96.16C255.101 96.4493 254.816 96.6873 254.452 96.874C254.088 97.0513 253.654 97.14 253.15 97.14ZM253.85 95.488C254.261 95.488 254.592 95.3527 254.844 95.082C255.106 94.8113 255.236 94.4193 255.236 93.906V93.738L254.074 93.934C253.29 94.0833 252.898 94.3633 252.898 94.774C252.898 94.9887 252.987 95.1613 253.164 95.292C253.351 95.4227 253.58 95.488 253.85 95.488ZM259.671 93.836C259.568 93.836 259.48 93.8033 259.405 93.738C259.34 93.6633 259.307 93.5747 259.307 93.472V87.55C259.307 87.4473 259.34 87.3633 259.405 87.298C259.48 87.2327 259.568 87.2 259.671 87.2H261.365C261.468 87.2 261.552 87.2327 261.617 87.298C261.692 87.3633 261.729 87.4473 261.729 87.55V93.472C261.729 93.5747 261.692 93.6633 261.617 93.738C261.552 93.8033 261.468 93.836 261.365 93.836H259.671ZM259.615 97C259.522 97 259.438 96.9673 259.363 96.902C259.298 96.8273 259.265 96.7433 259.265 96.65V94.844C259.265 94.7413 259.298 94.6573 259.363 94.592C259.438 94.5173 259.522 94.48 259.615 94.48H261.421C261.514 94.48 261.594 94.5173 261.659 94.592C261.734 94.6573 261.771 94.7413 261.771 94.844V96.65C261.771 96.7433 261.738 96.8273 261.673 96.902C261.608 96.9673 261.524 97 261.421 97H259.615Z" fill="#70C05B"/>
</svg>
