<svg width="391" height="94" viewBox="0 0 391 94" fill="none" xmlns="http://www.w3.org/2000/svg">
<path d="M40 26L40 67L0 26L40 26Z" fill="#E5FFDE"/>
<rect x="40" width="351" height="94" rx="8" fill="#E5FFDE"/>
<path d="M86.444 40.18C84.728 40.18 83.378 39.766 82.394 38.938C81.422 38.11 80.906 36.898 80.846 35.302C80.834 34.978 80.828 34.45 80.828 33.718C80.828 32.974 80.834 32.434 80.846 32.098C80.906 30.538 81.428 29.338 82.412 28.498C83.408 27.646 84.752 27.22 86.444 27.22C87.512 27.22 88.466 27.394 89.306 27.742C90.158 28.09 90.83 28.594 91.322 29.254C91.814 29.914 92.072 30.694 92.096 31.594C92.096 31.702 92.054 31.792 91.97 31.864C91.898 31.936 91.808 31.972 91.7 31.972H89.144C88.976 31.972 88.85 31.942 88.766 31.882C88.694 31.81 88.628 31.684 88.568 31.504C88.4 30.916 88.142 30.508 87.794 30.28C87.458 30.04 87.008 29.92 86.444 29.92C85.088 29.92 84.386 30.676 84.338 32.188C84.326 32.512 84.32 33.01 84.32 33.682C84.32 34.354 84.326 34.864 84.338 35.212C84.386 36.724 85.088 37.48 86.444 37.48C86.996 37.48 87.446 37.36 87.794 37.12C88.154 36.88 88.412 36.472 88.568 35.896C88.616 35.716 88.682 35.596 88.766 35.536C88.85 35.464 88.976 35.428 89.144 35.428H91.7C91.808 35.428 91.898 35.464 91.97 35.536C92.054 35.608 92.096 35.698 92.096 35.806C92.072 36.706 91.814 37.486 91.322 38.146C90.83 38.806 90.158 39.31 89.306 39.658C88.466 40.006 87.512 40.18 86.444 40.18ZM94.185 40C94.065 40 93.957 39.958 93.861 39.874C93.777 39.778 93.735 39.67 93.735 39.55V31.09C93.735 30.958 93.777 30.85 93.861 30.766C93.957 30.682 94.065 30.64 94.185 30.64H102.555C102.687 30.64 102.795 30.682 102.879 30.766C102.963 30.85 103.005 30.958 103.005 31.09V39.55C103.005 39.67 102.963 39.778 102.879 39.874C102.795 39.958 102.687 40 102.555 40H100.305C100.185 40 100.077 39.958 99.981 39.874C99.897 39.778 99.855 39.67 99.855 39.55V33.088H96.903V39.55C96.903 39.682 96.855 39.79 96.759 39.874C96.675 39.958 96.567 40 96.435 40H94.185ZM107.969 40.18C107.333 40.18 106.751 40.06 106.223 39.82C105.707 39.568 105.299 39.226 104.999 38.794C104.711 38.362 104.567 37.888 104.567 37.372C104.567 36.556 104.903 35.896 105.575 35.392C106.259 34.876 107.195 34.522 108.383 34.33L110.615 33.988V33.772C110.615 33.328 110.525 33.004 110.345 32.8C110.165 32.596 109.859 32.494 109.427 32.494C109.187 32.494 108.983 32.536 108.815 32.62C108.659 32.704 108.479 32.83 108.275 32.998C108.119 33.13 107.981 33.226 107.861 33.286C107.813 33.37 107.753 33.412 107.681 33.412H105.593C105.473 33.412 105.371 33.376 105.287 33.304C105.215 33.22 105.185 33.124 105.197 33.016C105.209 32.692 105.371 32.332 105.683 31.936C105.995 31.528 106.469 31.18 107.105 30.892C107.741 30.604 108.527 30.46 109.463 30.46C110.951 30.46 112.055 30.79 112.775 31.45C113.495 32.098 113.855 32.98 113.855 34.096V39.55C113.855 39.67 113.813 39.778 113.729 39.874C113.645 39.958 113.537 40 113.405 40H111.191C111.071 40 110.963 39.958 110.867 39.874C110.783 39.778 110.741 39.67 110.741 39.55V38.92C110.477 39.292 110.111 39.598 109.643 39.838C109.175 40.066 108.617 40.18 107.969 40.18ZM108.869 38.056C109.397 38.056 109.823 37.882 110.147 37.534C110.483 37.186 110.651 36.682 110.651 36.022V35.806L109.157 36.058C108.149 36.25 107.645 36.61 107.645 37.138C107.645 37.414 107.759 37.636 107.987 37.804C108.227 37.972 108.521 38.056 108.869 38.056ZM120.169 40.18C118.801 40.18 117.691 39.82 116.839 39.1C115.999 38.368 115.549 37.354 115.489 36.058L115.471 35.338L115.489 34.6C115.537 33.304 115.987 32.29 116.839 31.558C117.691 30.826 118.801 30.46 120.169 30.46C121.213 30.46 122.089 30.646 122.797 31.018C123.505 31.39 124.033 31.834 124.381 32.35C124.729 32.854 124.915 33.316 124.939 33.736C124.951 33.868 124.909 33.982 124.813 34.078C124.717 34.162 124.603 34.204 124.471 34.204H122.059C121.927 34.204 121.825 34.174 121.753 34.114C121.681 34.054 121.615 33.958 121.555 33.826C121.423 33.49 121.249 33.244 121.033 33.088C120.829 32.932 120.565 32.854 120.241 32.854C119.317 32.854 118.837 33.466 118.801 34.69L118.783 35.374L118.801 35.968C118.813 36.592 118.939 37.054 119.179 37.354C119.419 37.642 119.773 37.786 120.241 37.786C120.589 37.786 120.859 37.714 121.051 37.57C121.255 37.414 121.423 37.162 121.555 36.814C121.615 36.682 121.681 36.586 121.753 36.526C121.825 36.466 121.927 36.436 122.059 36.436H124.471C124.591 36.436 124.699 36.478 124.795 36.562C124.891 36.646 124.939 36.748 124.939 36.868C124.939 37.24 124.771 37.69 124.435 38.218C124.111 38.734 123.589 39.19 122.869 39.586C122.149 39.982 121.249 40.18 120.169 40.18ZM135.681 30.64C135.801 30.64 135.903 30.682 135.987 30.766C136.083 30.85 136.131 30.952 136.131 31.072V39.55C136.131 39.67 136.089 39.778 136.005 39.874C135.921 39.958 135.813 40 135.681 40H133.431C133.299 40 133.185 39.958 133.089 39.874C133.005 39.79 132.963 39.682 132.963 39.55V34.672L129.453 39.712C129.321 39.904 129.153 40 128.949 40H126.933C126.813 40 126.705 39.958 126.609 39.874C126.525 39.778 126.483 39.67 126.483 39.55V31.09C126.483 30.958 126.525 30.85 126.609 30.766C126.705 30.682 126.813 30.64 126.933 30.64H129.183C129.315 30.64 129.423 30.682 129.507 30.766C129.603 30.85 129.651 30.958 129.651 31.09V35.968L133.161 30.928C133.293 30.736 133.461 30.64 133.665 30.64H135.681ZM147.374 35.104C147.398 35.392 147.41 35.62 147.41 35.788C147.41 35.944 147.398 36.154 147.374 36.418C147.302 37.618 146.858 38.548 146.042 39.208C145.238 39.856 144.08 40.18 142.568 40.18C140.936 40.18 139.742 39.79 138.986 39.01C138.242 38.23 137.828 36.988 137.744 35.284L137.726 34.186L137.744 33.106C137.804 31.462 138.086 30.22 138.59 29.38C139.106 28.54 139.868 27.91 140.876 27.49C141.896 27.07 143.486 26.62 145.646 26.14C145.766 26.116 145.88 26.14 145.988 26.212C146.096 26.272 146.156 26.368 146.168 26.5L146.492 28.246C146.516 28.378 146.498 28.498 146.438 28.606C146.378 28.702 146.288 28.762 146.168 28.786C144.596 29.086 143.48 29.338 142.82 29.542C142.172 29.746 141.686 30.046 141.362 30.442C141.05 30.826 140.864 31.426 140.804 32.242C141.08 31.978 141.428 31.762 141.848 31.594C142.268 31.426 142.706 31.342 143.162 31.342C144.47 31.342 145.478 31.672 146.186 32.332C146.906 32.992 147.302 33.916 147.374 35.104ZM144.08 36.346C144.092 36.25 144.098 36.064 144.098 35.788C144.098 35.488 144.092 35.284 144.08 35.176C144.02 34 143.552 33.412 142.676 33.412C141.656 33.412 141.116 34 141.056 35.176L141.038 35.788L141.056 36.346C141.08 36.946 141.212 37.396 141.452 37.696C141.704 37.984 142.076 38.128 142.568 38.128C143.06 38.128 143.426 37.984 143.666 37.696C143.918 37.396 144.056 36.946 144.08 36.346ZM153.624 40.18C152.112 40.18 150.948 39.832 150.132 39.136C149.328 38.428 148.89 37.426 148.818 36.13C148.806 35.974 148.8 35.704 148.8 35.32C148.8 34.936 148.806 34.666 148.818 34.51C148.89 33.238 149.34 32.248 150.168 31.54C151.008 30.82 152.16 30.46 153.624 30.46C155.088 30.46 156.234 30.82 157.062 31.54C157.902 32.248 158.358 33.238 158.43 34.51C158.454 34.822 158.466 35.092 158.466 35.32C158.466 35.548 158.454 35.818 158.43 36.13C158.358 37.426 157.914 38.428 157.098 39.136C156.294 39.832 155.136 40.18 153.624 40.18ZM153.624 37.912C154.116 37.912 154.482 37.762 154.722 37.462C154.962 37.15 155.1 36.676 155.136 36.04C155.148 35.92 155.154 35.68 155.154 35.32C155.154 34.96 155.148 34.72 155.136 34.6C155.1 33.976 154.962 33.508 154.722 33.196C154.482 32.884 154.116 32.728 153.624 32.728C153.132 32.728 152.766 32.884 152.526 33.196C152.286 33.508 152.148 33.976 152.112 34.6L152.094 35.32L152.112 36.04C152.148 36.676 152.286 37.15 152.526 37.462C152.766 37.762 153.132 37.912 153.624 37.912ZM167.956 40.18C166.912 40.18 166.072 40.036 165.436 39.748C164.8 39.448 164.338 39.094 164.05 38.686C163.774 38.266 163.612 37.846 163.564 37.426V37.39C163.564 37.318 163.6 37.252 163.672 37.192C163.744 37.132 163.816 37.102 163.888 37.102H166.084C166.216 37.102 166.312 37.126 166.372 37.174C166.444 37.21 166.51 37.276 166.57 37.372C166.666 37.588 166.828 37.75 167.056 37.858C167.284 37.954 167.596 38.002 167.992 38.002C168.4 38.002 168.712 37.93 168.928 37.786C169.156 37.63 169.27 37.396 169.27 37.084C169.27 36.796 169.18 36.58 169 36.436C168.832 36.28 168.544 36.202 168.136 36.202H167.128C167.02 36.202 166.924 36.166 166.84 36.094C166.768 36.01 166.732 35.914 166.732 35.806V34.726C166.732 34.618 166.768 34.528 166.84 34.456C166.912 34.372 167.008 34.33 167.128 34.33H168.082C168.442 34.33 168.7 34.27 168.856 34.15C169.024 34.018 169.108 33.82 169.108 33.556C169.108 33.292 169.012 33.076 168.82 32.908C168.628 32.74 168.328 32.656 167.92 32.656C167.524 32.656 167.23 32.71 167.038 32.818C166.858 32.926 166.708 33.106 166.588 33.358C166.528 33.454 166.462 33.526 166.39 33.574C166.33 33.61 166.234 33.628 166.102 33.628H163.978C163.882 33.628 163.798 33.598 163.726 33.538C163.666 33.466 163.642 33.388 163.654 33.304C163.702 32.848 163.87 32.404 164.158 31.972C164.446 31.54 164.902 31.18 165.526 30.892C166.15 30.604 166.96 30.46 167.956 30.46C169.408 30.46 170.47 30.706 171.142 31.198C171.814 31.69 172.15 32.332 172.15 33.124C172.15 34.048 171.76 34.696 170.98 35.068C171.916 35.404 172.396 36.166 172.42 37.354C172.42 38.218 172.018 38.908 171.214 39.424C170.422 39.928 169.336 40.18 167.956 40.18ZM176.928 40.18C176.292 40.18 175.71 40.06 175.182 39.82C174.666 39.568 174.258 39.226 173.958 38.794C173.67 38.362 173.526 37.888 173.526 37.372C173.526 36.556 173.862 35.896 174.534 35.392C175.218 34.876 176.154 34.522 177.342 34.33L179.574 33.988V33.772C179.574 33.328 179.484 33.004 179.304 32.8C179.124 32.596 178.818 32.494 178.386 32.494C178.146 32.494 177.942 32.536 177.774 32.62C177.618 32.704 177.438 32.83 177.234 32.998C177.078 33.13 176.94 33.226 176.82 33.286C176.772 33.37 176.712 33.412 176.64 33.412H174.552C174.432 33.412 174.33 33.376 174.246 33.304C174.174 33.22 174.144 33.124 174.156 33.016C174.168 32.692 174.33 32.332 174.642 31.936C174.954 31.528 175.428 31.18 176.064 30.892C176.7 30.604 177.486 30.46 178.422 30.46C179.91 30.46 181.014 30.79 181.734 31.45C182.454 32.098 182.814 32.98 182.814 34.096V39.55C182.814 39.67 182.772 39.778 182.688 39.874C182.604 39.958 182.496 40 182.364 40H180.15C180.03 40 179.922 39.958 179.826 39.874C179.742 39.778 179.7 39.67 179.7 39.55V38.92C179.436 39.292 179.07 39.598 178.602 39.838C178.134 40.066 177.576 40.18 176.928 40.18ZM177.828 38.056C178.356 38.056 178.782 37.882 179.106 37.534C179.442 37.186 179.61 36.682 179.61 36.022V35.806L178.116 36.058C177.108 36.25 176.604 36.61 176.604 37.138C176.604 37.414 176.718 37.636 176.946 37.804C177.186 37.972 177.48 38.056 177.828 38.056ZM191.395 40C191.263 40 191.149 39.958 191.053 39.874C190.969 39.79 190.927 39.682 190.927 39.55V33.088H188.245C188.113 33.088 187.999 33.046 187.903 32.962C187.819 32.878 187.777 32.77 187.777 32.638V31.09C187.777 30.958 187.819 30.85 187.903 30.766C187.999 30.682 188.113 30.64 188.245 30.64H196.741C196.873 30.64 196.981 30.682 197.065 30.766C197.149 30.85 197.191 30.958 197.191 31.09V32.638C197.191 32.758 197.149 32.866 197.065 32.962C196.981 33.046 196.873 33.088 196.741 33.088H194.041V39.55C194.041 39.67 193.999 39.778 193.915 39.874C193.831 39.958 193.723 40 193.591 40H191.395ZM202.983 40.18C201.471 40.18 200.307 39.832 199.491 39.136C198.687 38.428 198.249 37.426 198.177 36.13C198.165 35.974 198.159 35.704 198.159 35.32C198.159 34.936 198.165 34.666 198.177 34.51C198.249 33.238 198.699 32.248 199.527 31.54C200.367 30.82 201.519 30.46 202.983 30.46C204.447 30.46 205.593 30.82 206.421 31.54C207.261 32.248 207.717 33.238 207.789 34.51C207.813 34.822 207.825 35.092 207.825 35.32C207.825 35.548 207.813 35.818 207.789 36.13C207.717 37.426 207.273 38.428 206.457 39.136C205.653 39.832 204.495 40.18 202.983 40.18ZM202.983 37.912C203.475 37.912 203.841 37.762 204.081 37.462C204.321 37.15 204.459 36.676 204.495 36.04C204.507 35.92 204.513 35.68 204.513 35.32C204.513 34.96 204.507 34.72 204.495 34.6C204.459 33.976 204.321 33.508 204.081 33.196C203.841 32.884 203.475 32.728 202.983 32.728C202.491 32.728 202.125 32.884 201.885 33.196C201.645 33.508 201.507 33.976 201.471 34.6L201.453 35.32L201.471 36.04C201.507 36.676 201.645 37.15 201.885 37.462C202.125 37.762 202.491 37.912 202.983 37.912ZM209.361 41.35C209.253 41.35 209.163 41.308 209.091 41.224C209.031 41.152 209.007 41.062 209.019 40.954L209.577 37.336C209.601 37.168 209.667 37.024 209.775 36.904C209.883 36.772 210.039 36.706 210.243 36.706H212.421C212.517 36.706 212.601 36.742 212.673 36.814C212.745 36.886 212.781 36.97 212.781 37.066C212.781 37.138 212.769 37.204 212.745 37.264L211.341 40.846C211.209 41.182 210.987 41.35 210.675 41.35H209.361ZM224.269 40C224.137 40 224.023 39.958 223.927 39.874C223.843 39.79 223.801 39.682 223.801 39.55V36.868C223.261 37.3 222.457 37.516 221.389 37.516C220.225 37.516 219.343 37.222 218.743 36.634C218.155 36.034 217.861 35.098 217.861 33.826V31.09C217.861 30.958 217.903 30.85 217.987 30.766C218.083 30.682 218.191 30.64 218.311 30.64H220.651C220.783 30.64 220.891 30.682 220.975 30.766C221.059 30.85 221.101 30.958 221.101 31.09V33.664C221.101 34.072 221.197 34.36 221.389 34.528C221.581 34.696 221.905 34.78 222.361 34.78C222.805 34.78 223.153 34.714 223.405 34.582C223.669 34.438 223.801 34.234 223.801 33.97V31.09C223.801 30.958 223.843 30.85 223.927 30.766C224.023 30.682 224.137 30.64 224.269 30.64H226.699C226.831 30.64 226.939 30.682 227.023 30.766C227.119 30.85 227.167 30.958 227.167 31.09V39.55C227.167 39.682 227.119 39.79 227.023 39.874C226.939 39.958 226.831 40 226.699 40H224.269ZM232.141 40C232.009 40 231.895 39.958 231.799 39.874C231.715 39.79 231.673 39.682 231.673 39.55V33.088H228.991C228.859 33.088 228.745 33.046 228.649 32.962C228.565 32.878 228.523 32.77 228.523 32.638V31.09C228.523 30.958 228.565 30.85 228.649 30.766C228.745 30.682 228.859 30.64 228.991 30.64H237.487C237.619 30.64 237.727 30.682 237.811 30.766C237.895 30.85 237.937 30.958 237.937 31.09V32.638C237.937 32.758 237.895 32.866 237.811 32.962C237.727 33.046 237.619 33.088 237.487 33.088H234.787V39.55C234.787 39.67 234.745 39.778 234.661 39.874C234.577 39.958 234.469 40 234.337 40H232.141ZM243.729 40.18C242.217 40.18 241.053 39.832 240.237 39.136C239.433 38.428 238.995 37.426 238.923 36.13C238.911 35.974 238.905 35.704 238.905 35.32C238.905 34.936 238.911 34.666 238.923 34.51C238.995 33.238 239.445 32.248 240.273 31.54C241.113 30.82 242.265 30.46 243.729 30.46C245.193 30.46 246.339 30.82 247.167 31.54C248.007 32.248 248.463 33.238 248.535 34.51C248.559 34.822 248.571 35.092 248.571 35.32C248.571 35.548 248.559 35.818 248.535 36.13C248.463 37.426 248.019 38.428 247.203 39.136C246.399 39.832 245.241 40.18 243.729 40.18ZM243.729 37.912C244.221 37.912 244.587 37.762 244.827 37.462C245.067 37.15 245.205 36.676 245.241 36.04C245.253 35.92 245.259 35.68 245.259 35.32C245.259 34.96 245.253 34.72 245.241 34.6C245.205 33.976 245.067 33.508 244.827 33.196C244.587 32.884 244.221 32.728 243.729 32.728C243.237 32.728 242.871 32.884 242.631 33.196C242.391 33.508 242.253 33.976 242.217 34.6L242.199 35.32L242.217 36.04C242.253 36.676 242.391 37.15 242.631 37.462C242.871 37.762 243.237 37.912 243.729 37.912ZM254.515 40C254.395 40 254.287 39.958 254.191 39.874C254.107 39.778 254.065 39.67 254.065 39.55V31.09C254.065 30.958 254.107 30.85 254.191 30.766C254.287 30.682 254.395 30.64 254.515 30.64H258.781C260.185 30.64 261.229 30.874 261.913 31.342C262.609 31.81 262.957 32.47 262.957 33.322C262.957 33.742 262.873 34.102 262.705 34.402C262.537 34.69 262.297 34.942 261.985 35.158C262.381 35.362 262.687 35.644 262.903 36.004C263.131 36.352 263.245 36.76 263.245 37.228C263.245 38.104 262.897 38.788 262.201 39.28C261.505 39.76 260.455 40 259.051 40H254.515ZM258.853 34.276C259.621 34.276 260.005 33.988 260.005 33.412C260.005 33.124 259.903 32.926 259.699 32.818C259.507 32.698 259.225 32.638 258.853 32.638H257.125V34.276H258.853ZM258.889 38.002C259.669 38.002 260.059 37.732 260.059 37.192C260.059 36.892 259.963 36.676 259.771 36.544C259.579 36.412 259.285 36.346 258.889 36.346H257.125V38.002H258.889ZM265.501 40C265.381 40 265.273 39.958 265.177 39.874C265.093 39.778 265.051 39.67 265.051 39.55V31.09C265.051 30.958 265.093 30.85 265.177 30.766C265.273 30.682 265.381 30.64 265.501 30.64H267.769C267.901 30.64 268.009 30.682 268.093 30.766C268.177 30.85 268.219 30.958 268.219 31.09V33.502H269.839C271.039 33.502 271.975 33.796 272.647 34.384C273.331 34.96 273.673 35.758 273.673 36.778C273.673 37.822 273.325 38.62 272.629 39.172C271.945 39.724 270.985 40 269.749 40H265.501ZM275.203 40C275.083 40 274.975 39.958 274.879 39.874C274.795 39.778 274.753 39.67 274.753 39.55V31.09C274.753 30.958 274.795 30.85 274.879 30.766C274.975 30.682 275.083 30.64 275.203 30.64H277.453C277.585 30.64 277.693 30.682 277.777 30.766C277.873 30.85 277.921 30.958 277.921 31.09V39.55C277.921 39.682 277.873 39.79 277.777 39.874C277.693 39.958 277.585 40 277.453 40H275.203ZM269.569 37.858C270.013 37.858 270.337 37.774 270.541 37.606C270.745 37.438 270.847 37.162 270.847 36.778C270.847 36.394 270.745 36.106 270.541 35.914C270.337 35.722 270.013 35.626 269.569 35.626H268.165V37.858H269.569ZM288.198 40.18C286.83 40.18 285.72 39.82 284.868 39.1C284.028 38.368 283.578 37.354 283.518 36.058L283.5 35.338L283.518 34.6C283.566 33.304 284.016 32.29 284.868 31.558C285.72 30.826 286.83 30.46 288.198 30.46C289.242 30.46 290.118 30.646 290.826 31.018C291.534 31.39 292.062 31.834 292.41 32.35C292.758 32.854 292.944 33.316 292.968 33.736C292.98 33.868 292.938 33.982 292.842 34.078C292.746 34.162 292.632 34.204 292.5 34.204H290.088C289.956 34.204 289.854 34.174 289.782 34.114C289.71 34.054 289.644 33.958 289.584 33.826C289.452 33.49 289.278 33.244 289.062 33.088C288.858 32.932 288.594 32.854 288.27 32.854C287.346 32.854 286.866 33.466 286.83 34.69L286.812 35.374L286.83 35.968C286.842 36.592 286.968 37.054 287.208 37.354C287.448 37.642 287.802 37.786 288.27 37.786C288.618 37.786 288.888 37.714 289.08 37.57C289.284 37.414 289.452 37.162 289.584 36.814C289.644 36.682 289.71 36.586 289.782 36.526C289.854 36.466 289.956 36.436 290.088 36.436H292.5C292.62 36.436 292.728 36.478 292.824 36.562C292.92 36.646 292.968 36.748 292.968 36.868C292.968 37.24 292.8 37.69 292.464 38.218C292.14 38.734 291.618 39.19 290.898 39.586C290.178 39.982 289.278 40.18 288.198 40.18ZM298.742 40C298.622 40 298.514 39.958 298.418 39.874C298.334 39.778 298.292 39.67 298.292 39.55V31.09C298.292 30.958 298.334 30.85 298.418 30.766C298.514 30.682 298.622 30.64 298.742 30.64H300.992C301.124 30.64 301.232 30.682 301.316 30.766C301.412 30.85 301.46 30.958 301.46 31.09V34.024H304.52V31.09C304.52 30.958 304.562 30.85 304.646 30.766C304.742 30.682 304.856 30.64 304.988 30.64H307.238C307.37 30.64 307.478 30.682 307.562 30.766C307.646 30.85 307.688 30.958 307.688 31.09V39.55C307.688 39.67 307.646 39.778 307.562 39.874C307.478 39.958 307.37 40 307.238 40H304.988C304.856 40 304.742 39.958 304.646 39.874C304.562 39.79 304.52 39.682 304.52 39.55V36.472H301.46V39.55C301.46 39.682 301.412 39.79 301.316 39.874C301.232 39.958 301.124 40 300.992 40H298.742ZM312.649 40.18C312.013 40.18 311.431 40.06 310.903 39.82C310.387 39.568 309.979 39.226 309.679 38.794C309.391 38.362 309.247 37.888 309.247 37.372C309.247 36.556 309.583 35.896 310.255 35.392C310.939 34.876 311.875 34.522 313.063 34.33L315.295 33.988V33.772C315.295 33.328 315.205 33.004 315.025 32.8C314.845 32.596 314.539 32.494 314.107 32.494C313.867 32.494 313.663 32.536 313.495 32.62C313.339 32.704 313.159 32.83 312.955 32.998C312.799 33.13 312.661 33.226 312.541 33.286C312.493 33.37 312.433 33.412 312.361 33.412H310.273C310.153 33.412 310.051 33.376 309.967 33.304C309.895 33.22 309.865 33.124 309.877 33.016C309.889 32.692 310.051 32.332 310.363 31.936C310.675 31.528 311.149 31.18 311.785 30.892C312.421 30.604 313.207 30.46 314.143 30.46C315.631 30.46 316.735 30.79 317.455 31.45C318.175 32.098 318.535 32.98 318.535 34.096V39.55C318.535 39.67 318.493 39.778 318.409 39.874C318.325 39.958 318.217 40 318.085 40H315.871C315.751 40 315.643 39.958 315.547 39.874C315.463 39.778 315.421 39.67 315.421 39.55V38.92C315.157 39.292 314.791 39.598 314.323 39.838C313.855 40.066 313.297 40.18 312.649 40.18ZM313.549 38.056C314.077 38.056 314.503 37.882 314.827 37.534C315.163 37.186 315.331 36.682 315.331 36.022V35.806L313.837 36.058C312.829 36.25 312.325 36.61 312.325 37.138C312.325 37.414 312.439 37.636 312.667 37.804C312.907 37.972 313.201 38.056 313.549 38.056ZM331.095 30.64C331.191 30.64 331.275 30.676 331.347 30.748C331.419 30.82 331.455 30.904 331.455 31V39.622C331.455 39.73 331.419 39.82 331.347 39.892C331.275 39.964 331.185 40 331.077 40H328.719C328.611 40 328.521 39.964 328.449 39.892C328.377 39.82 328.341 39.73 328.341 39.622V35.644L326.865 38.218C326.793 38.35 326.715 38.452 326.631 38.524C326.559 38.584 326.463 38.614 326.343 38.614H325.605C325.389 38.614 325.209 38.482 325.065 38.218L323.589 35.662V39.622C323.589 39.73 323.553 39.82 323.481 39.892C323.409 39.964 323.325 40 323.229 40H320.871C320.763 40 320.673 39.964 320.601 39.892C320.529 39.82 320.493 39.73 320.493 39.622V31C320.493 30.904 320.529 30.82 320.601 30.748C320.673 30.676 320.757 30.64 320.853 30.64H323.049C323.265 30.64 323.439 30.748 323.571 30.964L325.965 35.212L328.377 30.964C328.509 30.748 328.683 30.64 328.899 30.64H331.095ZM342.787 30.64C342.907 30.64 343.009 30.682 343.093 30.766C343.189 30.85 343.237 30.952 343.237 31.072V39.55C343.237 39.67 343.195 39.778 343.111 39.874C343.027 39.958 342.919 40 342.787 40H340.537C340.405 40 340.291 39.958 340.195 39.874C340.111 39.79 340.069 39.682 340.069 39.55V34.672L336.559 39.712C336.427 39.904 336.259 40 336.055 40H334.039C333.919 40 333.811 39.958 333.715 39.874C333.631 39.778 333.589 39.67 333.589 39.55V31.09C333.589 30.958 333.631 30.85 333.715 30.766C333.811 30.682 333.919 30.64 334.039 30.64H336.289C336.421 30.64 336.529 30.682 336.613 30.766C336.709 30.85 336.757 30.958 336.757 31.09V35.968L340.267 30.928C340.399 30.736 340.567 30.64 340.771 30.64H342.787ZM345.498 40C345.366 40 345.252 39.958 345.156 39.874C345.072 39.79 345.03 39.682 345.03 39.55V37.174C345.03 37.042 345.072 36.934 345.156 36.85C345.252 36.754 345.366 36.706 345.498 36.706H347.874C348.006 36.706 348.114 36.754 348.198 36.85C348.282 36.934 348.324 37.042 348.324 37.174V39.55C348.324 39.67 348.282 39.778 348.198 39.874C348.114 39.958 348.006 40 347.874 40H345.498ZM86.444 67.18C84.728 67.18 83.378 66.766 82.394 65.938C81.422 65.11 80.906 63.898 80.846 62.302C80.834 61.978 80.828 61.45 80.828 60.718C80.828 59.974 80.834 59.434 80.846 59.098C80.906 57.538 81.428 56.338 82.412 55.498C83.408 54.646 84.752 54.22 86.444 54.22C87.512 54.22 88.466 54.394 89.306 54.742C90.158 55.09 90.83 55.594 91.322 56.254C91.814 56.914 92.072 57.694 92.096 58.594C92.096 58.702 92.054 58.792 91.97 58.864C91.898 58.936 91.808 58.972 91.7 58.972H89.144C88.976 58.972 88.85 58.942 88.766 58.882C88.694 58.81 88.628 58.684 88.568 58.504C88.4 57.916 88.142 57.508 87.794 57.28C87.458 57.04 87.008 56.92 86.444 56.92C85.088 56.92 84.386 57.676 84.338 59.188C84.326 59.512 84.32 60.01 84.32 60.682C84.32 61.354 84.326 61.864 84.338 62.212C84.386 63.724 85.088 64.48 86.444 64.48C86.996 64.48 87.446 64.36 87.794 64.12C88.154 63.88 88.412 63.472 88.568 62.896C88.616 62.716 88.682 62.596 88.766 62.536C88.85 62.464 88.976 62.428 89.144 62.428H91.7C91.808 62.428 91.898 62.464 91.97 62.536C92.054 62.608 92.096 62.698 92.096 62.806C92.072 63.706 91.814 64.486 91.322 65.146C90.83 65.806 90.158 66.31 89.306 66.658C88.466 67.006 87.512 67.18 86.444 67.18ZM98.127 67.18C96.663 67.18 95.511 66.79 94.671 66.01C93.831 65.218 93.399 64.072 93.375 62.572V62.014C93.423 60.586 93.867 59.47 94.707 58.666C95.547 57.862 96.681 57.46 98.109 57.46C99.141 57.46 100.011 57.67 100.719 58.09C101.439 58.498 101.973 59.068 102.321 59.8C102.681 60.52 102.861 61.342 102.861 62.266V62.716C102.861 62.848 102.813 62.962 102.717 63.058C102.633 63.142 102.525 63.184 102.393 63.184H96.687V63.292C96.699 63.832 96.825 64.27 97.065 64.606C97.305 64.93 97.647 65.092 98.091 65.092C98.379 65.092 98.607 65.038 98.775 64.93C98.955 64.81 99.123 64.66 99.279 64.48C99.387 64.36 99.471 64.288 99.531 64.264C99.603 64.228 99.711 64.21 99.855 64.21H102.213C102.321 64.21 102.411 64.246 102.483 64.318C102.567 64.378 102.609 64.456 102.609 64.552C102.609 64.864 102.429 65.23 102.069 65.65C101.721 66.07 101.205 66.43 100.521 66.73C99.849 67.03 99.051 67.18 98.127 67.18ZM99.549 61.348V61.312C99.549 60.736 99.423 60.292 99.171 59.98C98.919 59.656 98.565 59.494 98.109 59.494C97.653 59.494 97.299 59.656 97.047 59.98C96.807 60.292 96.687 60.736 96.687 61.312V61.348H99.549ZM104.925 67C104.805 67 104.697 66.958 104.601 66.874C104.517 66.778 104.475 66.67 104.475 66.55V58.09C104.475 57.958 104.517 57.85 104.601 57.766C104.697 57.682 104.805 57.64 104.925 57.64H109.191C110.595 57.64 111.639 57.874 112.323 58.342C113.019 58.81 113.367 59.47 113.367 60.322C113.367 60.742 113.283 61.102 113.115 61.402C112.947 61.69 112.707 61.942 112.395 62.158C112.791 62.362 113.097 62.644 113.313 63.004C113.541 63.352 113.655 63.76 113.655 64.228C113.655 65.104 113.307 65.788 112.611 66.28C111.915 66.76 110.865 67 109.461 67H104.925ZM109.263 61.276C110.031 61.276 110.415 60.988 110.415 60.412C110.415 60.124 110.313 59.926 110.109 59.818C109.917 59.698 109.635 59.638 109.263 59.638H107.535V61.276H109.263ZM109.299 65.002C110.079 65.002 110.469 64.732 110.469 64.192C110.469 63.892 110.373 63.676 110.181 63.544C109.989 63.412 109.695 63.346 109.299 63.346H107.535V65.002H109.299ZM119.854 67.18C118.39 67.18 117.238 66.79 116.398 66.01C115.558 65.218 115.126 64.072 115.102 62.572V62.014C115.15 60.586 115.594 59.47 116.434 58.666C117.274 57.862 118.408 57.46 119.836 57.46C120.868 57.46 121.738 57.67 122.446 58.09C123.166 58.498 123.7 59.068 124.048 59.8C124.408 60.52 124.588 61.342 124.588 62.266V62.716C124.588 62.848 124.54 62.962 124.444 63.058C124.36 63.142 124.252 63.184 124.12 63.184H118.414V63.292C118.426 63.832 118.552 64.27 118.792 64.606C119.032 64.93 119.374 65.092 119.818 65.092C120.106 65.092 120.334 65.038 120.502 64.93C120.682 64.81 120.85 64.66 121.006 64.48C121.114 64.36 121.198 64.288 121.258 64.264C121.33 64.228 121.438 64.21 121.582 64.21H123.94C124.048 64.21 124.138 64.246 124.21 64.318C124.294 64.378 124.336 64.456 124.336 64.552C124.336 64.864 124.156 65.23 123.796 65.65C123.448 66.07 122.932 66.43 122.248 66.73C121.576 67.03 120.778 67.18 119.854 67.18ZM121.276 61.348V61.312C121.276 60.736 121.15 60.292 120.898 59.98C120.646 59.656 120.292 59.494 119.836 59.494C119.38 59.494 119.026 59.656 118.774 59.98C118.534 60.292 118.414 60.736 118.414 61.312V61.348H121.276ZM126.67 70.42C126.538 70.42 126.424 70.378 126.328 70.294C126.244 70.21 126.202 70.102 126.202 69.97V58.09C126.202 57.958 126.244 57.85 126.328 57.766C126.424 57.682 126.538 57.64 126.67 57.64H128.812C128.944 57.64 129.052 57.682 129.136 57.766C129.22 57.85 129.262 57.958 129.262 58.09V58.738C129.91 57.886 130.84 57.46 132.052 57.46C133.216 57.46 134.128 57.826 134.788 58.558C135.46 59.278 135.82 60.31 135.868 61.654C135.88 61.81 135.886 62.032 135.886 62.32C135.886 62.608 135.88 62.836 135.868 63.004C135.82 64.3 135.46 65.32 134.788 66.064C134.116 66.808 133.204 67.18 132.052 67.18C130.888 67.18 130.018 66.784 129.442 65.992V69.97C129.442 70.102 129.4 70.21 129.316 70.294C129.232 70.378 129.124 70.42 128.992 70.42H126.67ZM131.008 64.678C131.548 64.678 131.932 64.522 132.16 64.21C132.4 63.886 132.538 63.442 132.574 62.878C132.586 62.758 132.592 62.572 132.592 62.32C132.592 62.068 132.586 61.882 132.574 61.762C132.538 61.198 132.4 60.76 132.16 60.448C131.932 60.124 131.548 59.962 131.008 59.962C130.492 59.962 130.108 60.13 129.856 60.466C129.604 60.79 129.466 61.204 129.442 61.708C129.43 61.864 129.424 62.092 129.424 62.392C129.424 62.68 129.43 62.902 129.442 63.058C129.466 63.526 129.604 63.916 129.856 64.228C130.12 64.528 130.504 64.678 131.008 64.678ZM145.998 57.64C146.13 57.64 146.238 57.682 146.322 57.766C146.406 57.85 146.448 57.958 146.448 58.09V66.55C146.448 66.67 146.406 66.778 146.322 66.874C146.238 66.958 146.13 67 145.998 67H143.676C143.544 67 143.43 66.958 143.334 66.874C143.25 66.79 143.208 66.682 143.208 66.55V64.03H141.984L140.526 66.73C140.442 66.91 140.304 67 140.112 67H137.844C137.724 67 137.628 66.964 137.556 66.892C137.484 66.82 137.448 66.736 137.448 66.64C137.448 66.544 137.478 66.46 137.538 66.388L139.32 63.436C138.816 63.172 138.432 62.818 138.168 62.374C137.904 61.93 137.772 61.408 137.772 60.808C137.772 59.788 138.108 59.008 138.78 58.468C139.464 57.916 140.412 57.64 141.624 57.64H145.998ZM143.28 59.782H141.804C141.384 59.782 141.072 59.866 140.868 60.034C140.676 60.19 140.58 60.448 140.58 60.808C140.58 61.144 140.676 61.408 140.868 61.6C141.072 61.792 141.366 61.888 141.75 61.888H143.28V59.782ZM149.046 67C148.926 67 148.818 66.958 148.722 66.874C148.638 66.778 148.596 66.67 148.596 66.55V58.09C148.596 57.958 148.638 57.85 148.722 57.766C148.818 57.682 148.926 57.64 149.046 57.64H151.296C151.428 57.64 151.536 57.682 151.62 57.766C151.716 57.85 151.764 57.958 151.764 58.09V61.024H154.824V58.09C154.824 57.958 154.866 57.85 154.95 57.766C155.046 57.682 155.16 57.64 155.292 57.64H157.542C157.674 57.64 157.782 57.682 157.866 57.766C157.95 57.85 157.992 57.958 157.992 58.09V66.55C157.992 66.67 157.95 66.778 157.866 66.874C157.782 66.958 157.674 67 157.542 67H155.292C155.16 67 155.046 66.958 154.95 66.874C154.866 66.79 154.824 66.682 154.824 66.55V63.472H151.764V66.55C151.764 66.682 151.716 66.79 151.62 66.874C151.536 66.958 151.428 67 151.296 67H149.046ZM164.628 67.18C163.116 67.18 161.952 66.832 161.136 66.136C160.332 65.428 159.894 64.426 159.822 63.13C159.81 62.974 159.804 62.704 159.804 62.32C159.804 61.936 159.81 61.666 159.822 61.51C159.894 60.238 160.344 59.248 161.172 58.54C162.012 57.82 163.164 57.46 164.628 57.46C166.092 57.46 167.238 57.82 168.066 58.54C168.906 59.248 169.362 60.238 169.434 61.51C169.458 61.822 169.47 62.092 169.47 62.32C169.47 62.548 169.458 62.818 169.434 63.13C169.362 64.426 168.918 65.428 168.102 66.136C167.298 66.832 166.14 67.18 164.628 67.18ZM164.628 64.912C165.12 64.912 165.486 64.762 165.726 64.462C165.966 64.15 166.104 63.676 166.14 63.04C166.152 62.92 166.158 62.68 166.158 62.32C166.158 61.96 166.152 61.72 166.14 61.6C166.104 60.976 165.966 60.508 165.726 60.196C165.486 59.884 165.12 59.728 164.628 59.728C164.136 59.728 163.77 59.884 163.53 60.196C163.29 60.508 163.152 60.976 163.116 61.6L163.098 62.32L163.116 63.04C163.152 63.676 163.29 64.15 163.53 64.462C163.77 64.762 164.136 64.912 164.628 64.912ZM177.142 67C177.01 67 176.896 66.958 176.8 66.874C176.716 66.79 176.674 66.682 176.674 66.55V63.868C176.134 64.3 175.33 64.516 174.262 64.516C173.098 64.516 172.216 64.222 171.616 63.634C171.028 63.034 170.734 62.098 170.734 60.826V58.09C170.734 57.958 170.776 57.85 170.86 57.766C170.956 57.682 171.064 57.64 171.184 57.64H173.524C173.656 57.64 173.764 57.682 173.848 57.766C173.932 57.85 173.974 57.958 173.974 58.09V60.664C173.974 61.072 174.07 61.36 174.262 61.528C174.454 61.696 174.778 61.78 175.234 61.78C175.678 61.78 176.026 61.714 176.278 61.582C176.542 61.438 176.674 61.234 176.674 60.97V58.09C176.674 57.958 176.716 57.85 176.8 57.766C176.896 57.682 177.01 57.64 177.142 57.64H179.572C179.704 57.64 179.812 57.682 179.896 57.766C179.992 57.85 180.04 57.958 180.04 58.09V66.55C180.04 66.682 179.992 66.79 179.896 66.874C179.812 66.958 179.704 67 179.572 67H177.142ZM191.765 66.388C191.813 66.448 191.837 66.526 191.837 66.622C191.837 66.73 191.801 66.82 191.729 66.892C191.657 66.964 191.561 67 191.441 67H188.759C188.543 67 188.369 66.904 188.237 66.712L186.185 63.49H185.285V66.55C185.285 66.67 185.243 66.778 185.159 66.874C185.075 66.958 184.967 67 184.835 67H182.621C182.501 67 182.393 66.958 182.297 66.874C182.213 66.778 182.171 66.67 182.171 66.55V58.09C182.171 57.958 182.213 57.85 182.297 57.766C182.393 57.682 182.501 57.64 182.621 57.64H184.835C184.967 57.64 185.075 57.682 185.159 57.766C185.243 57.85 185.285 57.958 185.285 58.09V61.024H186.221L188.111 57.928C188.243 57.736 188.411 57.64 188.615 57.64H191.027C191.147 57.64 191.243 57.676 191.315 57.748C191.399 57.82 191.441 57.91 191.441 58.018C191.441 58.066 191.411 58.15 191.351 58.27L188.921 62.194L191.765 66.388ZM196.036 67.18C195.4 67.18 194.818 67.06 194.29 66.82C193.774 66.568 193.366 66.226 193.066 65.794C192.778 65.362 192.634 64.888 192.634 64.372C192.634 63.556 192.97 62.896 193.642 62.392C194.326 61.876 195.262 61.522 196.45 61.33L198.682 60.988V60.772C198.682 60.328 198.592 60.004 198.412 59.8C198.232 59.596 197.926 59.494 197.494 59.494C197.254 59.494 197.05 59.536 196.882 59.62C196.726 59.704 196.546 59.83 196.342 59.998C196.186 60.13 196.048 60.226 195.928 60.286C195.88 60.37 195.82 60.412 195.748 60.412H193.66C193.54 60.412 193.438 60.376 193.354 60.304C193.282 60.22 193.252 60.124 193.264 60.016C193.276 59.692 193.438 59.332 193.75 58.936C194.062 58.528 194.536 58.18 195.172 57.892C195.808 57.604 196.594 57.46 197.53 57.46C199.018 57.46 200.122 57.79 200.842 58.45C201.562 59.098 201.922 59.98 201.922 61.096V66.55C201.922 66.67 201.88 66.778 201.796 66.874C201.712 66.958 201.604 67 201.472 67H199.258C199.138 67 199.03 66.958 198.934 66.874C198.85 66.778 198.808 66.67 198.808 66.55V65.92C198.544 66.292 198.178 66.598 197.71 66.838C197.242 67.066 196.684 67.18 196.036 67.18ZM196.936 65.056C197.464 65.056 197.89 64.882 198.214 64.534C198.55 64.186 198.718 63.682 198.718 63.022V62.806L197.224 63.058C196.216 63.25 195.712 63.61 195.712 64.138C195.712 64.414 195.826 64.636 196.054 64.804C196.294 64.972 196.588 65.056 196.936 65.056ZM203.772 68.35C203.664 68.35 203.574 68.308 203.502 68.224C203.442 68.152 203.418 68.062 203.43 67.954L203.988 64.336C204.012 64.168 204.078 64.024 204.186 63.904C204.294 63.772 204.45 63.706 204.654 63.706H206.832C206.928 63.706 207.012 63.742 207.084 63.814C207.156 63.886 207.192 63.97 207.192 64.066C207.192 64.138 207.18 64.204 207.156 64.264L205.752 67.846C205.62 68.182 205.398 68.35 205.086 68.35H203.772ZM213.171 67C213.051 67 212.943 66.958 212.847 66.874C212.763 66.778 212.721 66.67 212.721 66.55V58.09C212.721 57.958 212.763 57.85 212.847 57.766C212.943 57.682 213.051 57.64 213.171 57.64H217.437C218.841 57.64 219.885 57.874 220.569 58.342C221.265 58.81 221.613 59.47 221.613 60.322C221.613 60.742 221.529 61.102 221.361 61.402C221.193 61.69 220.953 61.942 220.641 62.158C221.037 62.362 221.343 62.644 221.559 63.004C221.787 63.352 221.901 63.76 221.901 64.228C221.901 65.104 221.553 65.788 220.857 66.28C220.161 66.76 219.111 67 217.707 67H213.171ZM217.509 61.276C218.277 61.276 218.661 60.988 218.661 60.412C218.661 60.124 218.559 59.926 218.355 59.818C218.163 59.698 217.881 59.638 217.509 59.638H215.781V61.276H217.509ZM217.545 65.002C218.325 65.002 218.715 64.732 218.715 64.192C218.715 63.892 218.619 63.676 218.427 63.544C218.235 63.412 217.941 63.346 217.545 63.346H215.781V65.002H217.545ZM228.1 67.18C226.636 67.18 225.484 66.79 224.644 66.01C223.804 65.218 223.372 64.072 223.348 62.572V62.014C223.396 60.586 223.84 59.47 224.68 58.666C225.52 57.862 226.654 57.46 228.082 57.46C229.114 57.46 229.984 57.67 230.692 58.09C231.412 58.498 231.946 59.068 232.294 59.8C232.654 60.52 232.834 61.342 232.834 62.266V62.716C232.834 62.848 232.786 62.962 232.69 63.058C232.606 63.142 232.498 63.184 232.366 63.184H226.66V63.292C226.672 63.832 226.798 64.27 227.038 64.606C227.278 64.93 227.62 65.092 228.064 65.092C228.352 65.092 228.58 65.038 228.748 64.93C228.928 64.81 229.096 64.66 229.252 64.48C229.36 64.36 229.444 64.288 229.504 64.264C229.576 64.228 229.684 64.21 229.828 64.21H232.186C232.294 64.21 232.384 64.246 232.456 64.318C232.54 64.378 232.582 64.456 232.582 64.552C232.582 64.864 232.402 65.23 232.042 65.65C231.694 66.07 231.178 66.43 230.494 66.73C229.822 67.03 229.024 67.18 228.1 67.18ZM229.522 61.348V61.312C229.522 60.736 229.396 60.292 229.144 59.98C228.892 59.656 228.538 59.494 228.082 59.494C227.626 59.494 227.272 59.656 227.02 59.98C226.78 60.292 226.66 60.736 226.66 61.312V61.348H229.522ZM238.444 67.18C237.4 67.18 236.56 67.036 235.924 66.748C235.288 66.448 234.826 66.094 234.538 65.686C234.262 65.266 234.1 64.846 234.052 64.426V64.39C234.052 64.318 234.088 64.252 234.16 64.192C234.232 64.132 234.304 64.102 234.376 64.102H236.572C236.704 64.102 236.8 64.126 236.86 64.174C236.932 64.21 236.998 64.276 237.058 64.372C237.154 64.588 237.316 64.75 237.544 64.858C237.772 64.954 238.084 65.002 238.48 65.002C238.888 65.002 239.2 64.93 239.416 64.786C239.644 64.63 239.758 64.396 239.758 64.084C239.758 63.796 239.668 63.58 239.488 63.436C239.32 63.28 239.032 63.202 238.624 63.202H237.616C237.508 63.202 237.412 63.166 237.328 63.094C237.256 63.01 237.22 62.914 237.22 62.806V61.726C237.22 61.618 237.256 61.528 237.328 61.456C237.4 61.372 237.496 61.33 237.616 61.33H238.57C238.93 61.33 239.188 61.27 239.344 61.15C239.512 61.018 239.596 60.82 239.596 60.556C239.596 60.292 239.5 60.076 239.308 59.908C239.116 59.74 238.816 59.656 238.408 59.656C238.012 59.656 237.718 59.71 237.526 59.818C237.346 59.926 237.196 60.106 237.076 60.358C237.016 60.454 236.95 60.526 236.878 60.574C236.818 60.61 236.722 60.628 236.59 60.628H234.466C234.37 60.628 234.286 60.598 234.214 60.538C234.154 60.466 234.13 60.388 234.142 60.304C234.19 59.848 234.358 59.404 234.646 58.972C234.934 58.54 235.39 58.18 236.014 57.892C236.638 57.604 237.448 57.46 238.444 57.46C239.896 57.46 240.958 57.706 241.63 58.198C242.302 58.69 242.638 59.332 242.638 60.124C242.638 61.048 242.248 61.696 241.468 62.068C242.404 62.404 242.884 63.166 242.908 64.354C242.908 65.218 242.506 65.908 241.702 66.424C240.91 66.928 239.824 67.18 238.444 67.18ZM248.982 67.18C247.518 67.18 246.366 66.79 245.526 66.01C244.686 65.218 244.254 64.072 244.23 62.572V62.014C244.278 60.586 244.722 59.47 245.562 58.666C246.402 57.862 247.536 57.46 248.964 57.46C249.996 57.46 250.866 57.67 251.574 58.09C252.294 58.498 252.828 59.068 253.176 59.8C253.536 60.52 253.716 61.342 253.716 62.266V62.716C253.716 62.848 253.668 62.962 253.572 63.058C253.488 63.142 253.38 63.184 253.248 63.184H247.542V63.292C247.554 63.832 247.68 64.27 247.92 64.606C248.16 64.93 248.502 65.092 248.946 65.092C249.234 65.092 249.462 65.038 249.63 64.93C249.81 64.81 249.978 64.66 250.134 64.48C250.242 64.36 250.326 64.288 250.386 64.264C250.458 64.228 250.566 64.21 250.71 64.21H253.068C253.176 64.21 253.266 64.246 253.338 64.318C253.422 64.378 253.464 64.456 253.464 64.552C253.464 64.864 253.284 65.23 252.924 65.65C252.576 66.07 252.06 66.43 251.376 66.73C250.704 67.03 249.906 67.18 248.982 67.18ZM250.404 61.348V61.312C250.404 60.736 250.278 60.292 250.026 59.98C249.774 59.656 249.42 59.494 248.964 59.494C248.508 59.494 248.154 59.656 247.902 59.98C247.662 60.292 247.542 60.736 247.542 61.312V61.348H250.404ZM258.175 67C258.043 67 257.929 66.958 257.833 66.874C257.749 66.79 257.707 66.682 257.707 66.55V60.088H255.025C254.893 60.088 254.779 60.046 254.683 59.962C254.599 59.878 254.557 59.77 254.557 59.638V58.09C254.557 57.958 254.599 57.85 254.683 57.766C254.779 57.682 254.893 57.64 255.025 57.64H263.521C263.653 57.64 263.761 57.682 263.845 57.766C263.929 57.85 263.971 57.958 263.971 58.09V59.638C263.971 59.758 263.929 59.866 263.845 59.962C263.761 60.046 263.653 60.088 263.521 60.088H260.821V66.55C260.821 66.67 260.779 66.778 260.695 66.874C260.611 66.958 260.503 67 260.371 67H258.175ZM269.492 67C269.372 67 269.264 66.958 269.168 66.874C269.084 66.778 269.042 66.67 269.042 66.55V58.09C269.042 57.958 269.084 57.85 269.168 57.766C269.264 57.682 269.372 57.64 269.492 57.64H273.758C275.162 57.64 276.206 57.874 276.89 58.342C277.586 58.81 277.934 59.47 277.934 60.322C277.934 60.742 277.85 61.102 277.682 61.402C277.514 61.69 277.274 61.942 276.962 62.158C277.358 62.362 277.664 62.644 277.88 63.004C278.108 63.352 278.222 63.76 278.222 64.228C278.222 65.104 277.874 65.788 277.178 66.28C276.482 66.76 275.432 67 274.028 67H269.492ZM273.83 61.276C274.598 61.276 274.982 60.988 274.982 60.412C274.982 60.124 274.88 59.926 274.676 59.818C274.484 59.698 274.202 59.638 273.83 59.638H272.102V61.276H273.83ZM273.866 65.002C274.646 65.002 275.036 64.732 275.036 64.192C275.036 63.892 274.94 63.676 274.748 63.544C274.556 63.412 274.262 63.346 273.866 63.346H272.102V65.002H273.866ZM284.384 67.18C283.016 67.18 281.906 66.82 281.054 66.1C280.214 65.368 279.764 64.354 279.704 63.058L279.686 62.338L279.704 61.6C279.752 60.304 280.202 59.29 281.054 58.558C281.906 57.826 283.016 57.46 284.384 57.46C285.428 57.46 286.304 57.646 287.012 58.018C287.72 58.39 288.248 58.834 288.596 59.35C288.944 59.854 289.13 60.316 289.154 60.736C289.166 60.868 289.124 60.982 289.028 61.078C288.932 61.162 288.818 61.204 288.686 61.204H286.274C286.142 61.204 286.04 61.174 285.968 61.114C285.896 61.054 285.83 60.958 285.77 60.826C285.638 60.49 285.464 60.244 285.248 60.088C285.044 59.932 284.78 59.854 284.456 59.854C283.532 59.854 283.052 60.466 283.016 61.69L282.998 62.374L283.016 62.968C283.028 63.592 283.154 64.054 283.394 64.354C283.634 64.642 283.988 64.786 284.456 64.786C284.804 64.786 285.074 64.714 285.266 64.57C285.47 64.414 285.638 64.162 285.77 63.814C285.83 63.682 285.896 63.586 285.968 63.526C286.04 63.466 286.142 63.436 286.274 63.436H288.686C288.806 63.436 288.914 63.478 289.01 63.562C289.106 63.646 289.154 63.748 289.154 63.868C289.154 64.24 288.986 64.69 288.65 65.218C288.326 65.734 287.804 66.19 287.084 66.586C286.364 66.982 285.464 67.18 284.384 67.18ZM295.09 67.18C293.626 67.18 292.474 66.79 291.634 66.01C290.794 65.218 290.362 64.072 290.338 62.572V62.014C290.386 60.586 290.83 59.47 291.67 58.666C292.51 57.862 293.644 57.46 295.072 57.46C296.104 57.46 296.974 57.67 297.682 58.09C298.402 58.498 298.936 59.068 299.284 59.8C299.644 60.52 299.824 61.342 299.824 62.266V62.716C299.824 62.848 299.776 62.962 299.68 63.058C299.596 63.142 299.488 63.184 299.356 63.184H293.65V63.292C293.662 63.832 293.788 64.27 294.028 64.606C294.268 64.93 294.61 65.092 295.054 65.092C295.342 65.092 295.57 65.038 295.738 64.93C295.918 64.81 296.086 64.66 296.242 64.48C296.35 64.36 296.434 64.288 296.494 64.264C296.566 64.228 296.674 64.21 296.818 64.21H299.176C299.284 64.21 299.374 64.246 299.446 64.318C299.53 64.378 299.572 64.456 299.572 64.552C299.572 64.864 299.392 65.23 299.032 65.65C298.684 66.07 298.168 66.43 297.484 66.73C296.812 67.03 296.014 67.18 295.09 67.18ZM296.512 61.348V61.312C296.512 60.736 296.386 60.292 296.134 59.98C295.882 59.656 295.528 59.494 295.072 59.494C294.616 59.494 294.262 59.656 294.01 59.98C293.77 60.292 293.65 60.736 293.65 61.312V61.348H296.512ZM301.888 67C301.768 67 301.66 66.958 301.564 66.874C301.48 66.778 301.438 66.67 301.438 66.55V58.09C301.438 57.958 301.48 57.85 301.564 57.766C301.66 57.682 301.768 57.64 301.888 57.64H307.972C308.104 57.64 308.212 57.682 308.296 57.766C308.38 57.85 308.422 57.958 308.422 58.09V59.638C308.422 59.758 308.38 59.866 308.296 59.962C308.212 60.046 308.104 60.088 307.972 60.088H304.606V66.55C304.606 66.682 304.558 66.79 304.462 66.874C304.378 66.958 304.27 67 304.138 67H301.888ZM309.609 68.98C309.477 68.98 309.363 68.938 309.267 68.854C309.183 68.77 309.141 68.662 309.141 68.53V65.002C309.141 64.87 309.183 64.762 309.267 64.678C309.363 64.594 309.477 64.552 309.609 64.552H309.789C310.221 64.552 310.521 64.24 310.689 63.616C310.857 62.98 310.941 61.996 310.941 60.664V58.09C310.941 57.958 310.983 57.85 311.067 57.766C311.163 57.682 311.277 57.64 311.409 57.64H318.609C318.741 57.64 318.849 57.682 318.933 57.766C319.017 57.85 319.059 57.958 319.059 58.09V64.534H319.815C319.947 64.534 320.055 64.582 320.139 64.678C320.235 64.762 320.283 64.87 320.283 65.002V68.53C320.283 68.662 320.235 68.77 320.139 68.854C320.055 68.938 319.947 68.98 319.815 68.98H317.565C317.445 68.98 317.337 68.938 317.241 68.854C317.157 68.77 317.115 68.662 317.115 68.53V67H312.309V68.53C312.309 68.662 312.267 68.77 312.183 68.854C312.099 68.938 311.991 68.98 311.859 68.98H309.609ZM315.891 64.534V60.088H313.947V61.006C313.947 62.662 313.743 63.844 313.335 64.552L315.891 64.534ZM324.479 67.18C323.843 67.18 323.261 67.06 322.733 66.82C322.217 66.568 321.809 66.226 321.509 65.794C321.221 65.362 321.077 64.888 321.077 64.372C321.077 63.556 321.413 62.896 322.085 62.392C322.769 61.876 323.705 61.522 324.893 61.33L327.125 60.988V60.772C327.125 60.328 327.035 60.004 326.855 59.8C326.675 59.596 326.369 59.494 325.937 59.494C325.697 59.494 325.493 59.536 325.325 59.62C325.169 59.704 324.989 59.83 324.785 59.998C324.629 60.13 324.491 60.226 324.371 60.286C324.323 60.37 324.263 60.412 324.191 60.412H322.103C321.983 60.412 321.881 60.376 321.797 60.304C321.725 60.22 321.695 60.124 321.707 60.016C321.719 59.692 321.881 59.332 322.193 58.936C322.505 58.528 322.979 58.18 323.615 57.892C324.251 57.604 325.037 57.46 325.973 57.46C327.461 57.46 328.565 57.79 329.285 58.45C330.005 59.098 330.365 59.98 330.365 61.096V66.55C330.365 66.67 330.323 66.778 330.239 66.874C330.155 66.958 330.047 67 329.915 67H327.701C327.581 67 327.473 66.958 327.377 66.874C327.293 66.778 327.251 66.67 327.251 66.55V65.92C326.987 66.292 326.621 66.598 326.153 66.838C325.685 67.066 325.127 67.18 324.479 67.18ZM325.379 65.056C325.907 65.056 326.333 64.882 326.657 64.534C326.993 64.186 327.161 63.682 327.161 63.022V62.806L325.667 63.058C324.659 63.25 324.155 63.61 324.155 64.138C324.155 64.414 324.269 64.636 324.497 64.804C324.737 64.972 325.031 65.056 325.379 65.056ZM332.863 62.932C332.731 62.932 332.617 62.89 332.521 62.806C332.437 62.71 332.395 62.596 332.395 62.464V54.85C332.395 54.718 332.437 54.61 332.521 54.526C332.617 54.442 332.731 54.4 332.863 54.4H335.041C335.173 54.4 335.281 54.442 335.365 54.526C335.461 54.61 335.509 54.718 335.509 54.85V62.464C335.509 62.596 335.461 62.71 335.365 62.806C335.281 62.89 335.173 62.932 335.041 62.932H332.863ZM332.791 67C332.671 67 332.563 66.958 332.467 66.874C332.383 66.778 332.341 66.67 332.341 66.55V64.228C332.341 64.096 332.383 63.988 332.467 63.904C332.563 63.808 332.671 63.76 332.791 63.76H335.113C335.233 63.76 335.335 63.808 335.419 63.904C335.515 63.988 335.563 64.096 335.563 64.228V66.55C335.563 66.67 335.521 66.778 335.437 66.874C335.353 66.958 335.245 67 335.113 67H332.791Z" fill="#70C05B"/>
</svg>
