<svg width="623" height="275" viewBox="0 0 623 275" fill="none" xmlns="http://www.w3.org/2000/svg">
<path d="M257.088 32.8151H305.242C306.216 32.8151 307.006 32.0249 307.006 31.0511V2.70925C307.006 1.73552 306.216 0.945312 305.242 0.945312H257.088C256.114 0.945312 255.324 1.73552 255.324 2.70925V31.0511C255.324 32.0249 256.114 32.8151 257.088 32.8151Z" fill="white"/>
<path d="M260.177 6.74653H303.271C303.569 6.74653 303.811 6.50471 303.811 6.20676C303.811 5.90881 303.569 5.66699 303.271 5.66699H260.177C259.879 5.66699 259.638 5.90881 259.638 6.20676C259.638 6.50471 259.879 6.74653 260.177 6.74653Z" fill="#61A3C5"/>
<path d="M260.177 12.8808H303.271C303.569 12.8808 303.811 12.639 303.811 12.341C303.811 12.0431 303.569 11.8013 303.271 11.8013H260.177C259.879 11.8013 259.638 12.0431 259.638 12.341C259.638 12.639 259.879 12.8808 260.177 12.8808Z" fill="#61A3C5"/>
<path d="M275.273 19.0146H303.274C303.571 19.0146 303.813 18.7728 303.813 18.4748C303.813 18.1769 303.571 17.9351 303.274 17.9351H275.273C274.975 17.9351 274.733 18.1769 274.733 18.4748C274.733 18.7728 274.975 19.0146 275.273 19.0146Z" fill="#61A3C5"/>
<path d="M259.858 19.0146H271.033C271.33 19.0146 271.572 18.7728 271.572 18.4748C271.572 18.1769 271.33 17.9351 271.033 17.9351H259.858C259.56 17.9351 259.318 18.1769 259.318 18.4748C259.318 18.7728 259.56 19.0146 259.858 19.0146Z" fill="#61A3C5"/>
<path d="M285.672 25.1484H303.271C303.569 25.1484 303.811 24.9066 303.811 24.6086C303.811 24.3107 303.569 24.0688 303.271 24.0688H285.672C285.374 24.0688 285.132 24.3107 285.132 24.6086C285.132 24.9066 285.374 25.1484 285.672 25.1484Z" fill="#61A3C5"/>
<path d="M259.858 25.1484H281.725C282.023 25.1484 282.265 24.9066 282.265 24.6086C282.265 24.3107 282.023 24.0688 281.725 24.0688H259.858C259.56 24.0688 259.318 24.3107 259.318 24.6086C259.318 24.9066 259.56 25.1484 259.858 25.1484Z" fill="#61A3C5"/>
<path d="M271.129 31.4053C271.075 31.6191 262.755 42.4467 262.703 42.1272C262.649 41.8076 263.664 30.4985 263.664 30.4985L271.129 31.4053Z" fill="white"/>
<path d="M125.991 92.0722H174.143C175.117 92.0722 175.907 91.282 175.907 90.3082V67.0984C175.907 66.1247 175.117 65.3345 174.143 65.3345H125.991C125.018 65.3345 124.228 66.1247 124.228 67.0984V90.3082C124.228 91.282 125.016 92.0722 125.991 92.0722Z" fill="white"/>
<path d="M129.081 72.1376H172.174C172.472 72.1376 172.714 71.8958 172.714 71.5979C172.714 71.2999 172.472 71.0581 172.174 71.0581H129.081C128.783 71.0581 128.541 71.2999 128.541 71.5979C128.539 71.8958 128.781 72.1376 129.081 72.1376Z" fill="#61A3C5"/>
<path d="M144.174 78.2714H172.174C172.472 78.2714 172.714 78.0296 172.714 77.7317C172.714 77.4337 172.472 77.1919 172.174 77.1919H144.174C143.876 77.1919 143.634 77.4337 143.634 77.7317C143.634 78.0296 143.876 78.2714 144.174 78.2714Z" fill="#61A3C5"/>
<path d="M128.759 78.2714H139.933C140.231 78.2714 140.473 78.0296 140.473 77.7317C140.473 77.4337 140.231 77.1919 139.933 77.1919H128.759C128.461 77.1919 128.219 77.4337 128.219 77.7317C128.219 78.0296 128.461 78.2714 128.759 78.2714Z" fill="#61A3C5"/>
<path d="M154.573 84.4052H172.172C172.47 84.4052 172.712 84.1634 172.712 83.8654C172.712 83.5675 172.47 83.3257 172.172 83.3257H154.573C154.275 83.3257 154.033 83.5675 154.033 83.8654C154.033 84.1634 154.275 84.4052 154.573 84.4052Z" fill="#61A3C5"/>
<path d="M128.759 84.4052H150.626C150.924 84.4052 151.166 84.1634 151.166 83.8654C151.166 83.5675 150.924 83.3257 150.626 83.3257H128.759C128.461 83.3257 128.219 83.5675 128.219 83.8654C128.219 84.1634 128.461 84.4052 128.759 84.4052Z" fill="#61A3C5"/>
<path d="M140.031 90.6622C139.977 90.8759 131.656 101.704 131.605 101.384C131.551 101.065 132.565 89.7554 132.565 89.7554L140.031 90.6622Z" fill="white"/>
<path d="M430.706 78.8094H382.552C381.579 78.8094 380.789 78.0192 380.789 77.0455V53.8357C380.789 52.862 381.579 52.0718 382.552 52.0718H430.706C431.68 52.0718 432.47 52.862 432.47 53.8357V77.0455C432.47 78.0192 431.682 78.8094 430.706 78.8094Z" fill="white"/>
<path d="M427.617 58.8749H384.524C384.226 58.8749 383.984 58.6331 383.984 58.3352C383.984 58.0372 384.226 57.7954 384.524 57.7954H427.617C427.915 57.7954 428.157 58.0372 428.157 58.3352C428.159 58.6331 427.917 58.8749 427.617 58.8749Z" fill="#61A3C5"/>
<path d="M412.524 65.0087H384.524C384.226 65.0087 383.984 64.7669 383.984 64.4689C383.984 64.171 384.226 63.9292 384.524 63.9292H412.524C412.822 63.9292 413.064 64.171 413.064 64.4689C413.064 64.7669 412.822 65.0087 412.524 65.0087Z" fill="#61A3C5"/>
<path d="M427.939 65.0087H416.764C416.466 65.0087 416.225 64.7669 416.225 64.4689C416.225 64.171 416.466 63.9292 416.764 63.9292H427.939C428.237 63.9292 428.478 64.171 428.478 64.4689C428.478 64.7669 428.237 65.0087 427.939 65.0087Z" fill="#61A3C5"/>
<path d="M402.125 71.1425H384.526C384.228 71.1425 383.986 70.9007 383.986 70.6027C383.986 70.3048 384.228 70.063 384.526 70.063H402.125C402.423 70.063 402.665 70.3048 402.665 70.6027C402.665 70.9007 402.423 71.1425 402.125 71.1425Z" fill="#61A3C5"/>
<path d="M427.939 71.1425H406.071C405.774 71.1425 405.532 70.9007 405.532 70.6027C405.532 70.3048 405.774 70.063 406.071 70.063H427.939C428.237 70.063 428.479 70.3048 428.479 70.6027C428.479 70.9007 428.237 71.1425 427.939 71.1425Z" fill="#61A3C5"/>
<path d="M416.667 77.3995C416.721 77.6132 425.041 88.4408 425.093 88.1213C425.147 87.8017 424.132 76.4927 424.132 76.4927L416.667 77.3995Z" fill="white"/>
<path d="M328.178 69.9269C327.868 69.4066 327.19 69.2382 326.65 69.5145L323.291 71.231C323.185 71.285 323.057 71.2655 322.973 71.1835C322.848 71.0626 322.865 70.8575 323.008 70.7581L327.591 67.5887C328.116 67.2259 328.17 66.5653 327.712 66.1205C327.254 65.6758 326.449 65.611 325.925 65.9737L321.253 69.2058C321.145 69.2814 320.998 69.2684 320.903 69.1777L320.836 69.113C320.726 69.0072 320.724 68.8323 320.829 68.7222L325.214 64.1946C325.635 63.7585 325.676 63.0611 325.268 62.6121C324.821 62.1198 324.061 62.1133 323.606 62.584L319.195 67.1396C319.089 67.2497 318.915 67.2519 318.804 67.1461L318.591 66.9388C318.491 66.8416 318.478 66.6862 318.56 66.5761L322.075 61.8478C322.438 61.362 322.386 60.6624 321.924 60.2716C321.417 59.842 320.661 59.9348 320.273 60.4595C320.273 60.4595 314.528 67.3814 313.541 68.3918L312.876 65.1684C312.865 64.5401 312.349 64.0392 311.719 64.0478C311.091 64.0586 310.59 64.5746 310.598 65.2051L309.862 72.4983C309.869 72.9086 310.456 73.4807 311.039 73.8283C315.495 78.8567 316.222 79.5951 317.548 80.8387L322.367 75.5167C323.757 73.9816 325.415 72.7099 327.261 71.7686L327.725 71.5311C328.299 71.2267 328.517 70.4969 328.178 69.9269Z" fill="#FE9F73"/>
<path d="M268.858 268.73L253.625 268.94L253.405 254.571L268.58 252.676L268.858 268.73Z" fill="#FE9F73"/>
<path d="M284.511 271.317H253.408V265.058C253.408 265.058 255.67 262.053 259.116 263.588C259.116 263.588 264.215 267.28 268.809 262.869L280.325 267.813C280.323 267.813 284.511 269.188 284.511 271.317Z" fill="#3AA1C9"/>
<path d="M253.405 273.509H285.43C285.667 273.509 285.859 273.316 285.859 273.079V271.749C285.859 271.511 285.667 271.319 285.43 271.319H253.405V273.509Z" fill="#472A31"/>
<path d="M272.215 264.33C271.172 265.96 269.076 269.234 267.744 271.317H265.624C266.814 269.456 269.311 265.557 270.553 263.616L272.215 264.33Z" fill="#D7E4F7"/>
<path d="M271.142 271.317H269.022C269.992 269.804 271.881 266.852 273.217 264.762L274.879 265.477C273.757 267.232 272.2 269.665 271.142 271.317Z" fill="#D7E4F7"/>
<path d="M238.142 268.73L222.908 268.94L222.69 254.571L237.863 252.676L238.142 268.73Z" fill="#FE9F73"/>
<path d="M244.253 144.361C244.759 159.198 246.952 217.239 251.566 255.213C251.87 257.715 253.99 259.604 256.512 259.598C259.303 259.591 263.185 259.257 267.487 257.944C269.567 257.309 271.011 255.418 271.045 253.244L272.921 137.7C272.926 137.419 272.906 137.139 272.863 136.86L272.775 136.29C272.291 133.144 269.027 131.251 266.056 132.391L247.451 139.539C245.465 140.299 244.18 142.234 244.253 144.361Z" fill="#FF424D"/>
<path d="M219.305 141.366C219.305 141.366 218.038 212.735 221.341 256.761C221.497 258.844 223.152 260.492 225.236 260.649C228.185 260.874 232.675 260.839 237.74 259.496C239.456 259.041 240.706 257.557 240.86 255.787L249.692 153.435L255.13 125.018L219.305 141.366Z" fill="#EF3A4C"/>
<path d="M253.794 271.317H222.69V265.058C222.69 265.058 224.953 262.053 228.399 263.588C228.399 263.588 233.498 267.28 238.092 262.869L249.607 267.813C249.605 267.813 253.794 269.188 253.794 271.317Z" fill="#4CB7D8"/>
<path d="M222.69 273.509H254.715C254.953 273.509 255.145 273.316 255.145 273.079V271.749C255.145 271.511 254.953 271.319 254.715 271.319H222.69V273.509Z" fill="#683D46"/>
<path d="M241.499 264.33C240.456 265.96 238.36 269.234 237.028 271.317H234.908C236.097 269.456 238.595 265.557 239.836 263.616L241.499 264.33Z" fill="#D7E4F7"/>
<path d="M240.428 271.317H238.308C239.277 269.804 241.167 266.852 242.503 264.762L244.165 265.477C243.043 267.232 241.486 269.665 240.428 271.317Z" fill="#D7E4F7"/>
<path d="M274.018 159.143L274.193 158.899L273.276 103.822C273.276 103.822 290.184 115.971 295.251 116.204C300.318 116.437 321.27 83.1188 321.27 83.1188C316.855 72.2609 307.557 70.7561 307.557 70.7561L290.255 91.0749L269.985 71.3757C267.282 69.6183 246.505 69.2383 246.505 69.2383C246.505 69.2383 230.195 68.3401 227.494 70.0976C224.791 71.855 207.511 101.132 205.968 114.263C204.424 127.397 205.968 135.901 215.331 137.451L218.738 137.529L218.999 159.141C219.001 159.143 237.87 163.695 274.018 159.143Z" fill="#61A3C5"/>
<path d="M307.561 70.7561L290.259 91.0749L269.989 71.3757C268.975 70.7151 265.408 70.2487 261.35 69.9249L249.169 101.013L230.777 69.2383C224.335 69.3009 222.671 70.9223 221.272 71.8335C218.569 73.5909 207.515 101.132 205.97 114.263C204.426 127.397 205.97 135.901 215.333 137.451L218.74 137.529L217.766 159.141C217.766 159.141 237.872 163.69 274.018 159.141L274.193 158.897L273.275 103.82C273.275 103.82 290.184 115.969 295.251 116.202C300.318 116.435 321.27 83.1166 321.27 83.1166C316.857 72.2609 307.561 70.7561 307.561 70.7561Z" fill="#FECC86"/>
<path d="M223.923 118.024L223.537 117.536L227.304 114.125L228.742 95.4189L229.335 95.4708L227.878 114.442L223.923 118.024Z" fill="#21111D"/>
<path d="M218.731 137.851L215.285 137.769C210.689 137.007 207.744 134.569 206.279 130.312C205.007 126.62 204.815 121.507 205.672 114.225L206.264 114.304C204.517 129.148 207.153 135.765 215.357 137.134L218.742 137.212L218.731 137.851Z" fill="#21111D"/>
<path d="M290.467 96.5118L289.973 91.2307L270.344 72.1555C268.906 70.7565 266.108 70.7392 266.08 70.7392V70.1001C266.207 70.1001 269.135 70.1174 270.743 71.6827L290.543 90.9241L291.061 96.4491L290.467 96.5118Z" fill="#21111D"/>
<path d="M290.48 91.2908L290.04 90.859L307.451 70.4106L307.611 70.4387C307.704 70.4538 316.907 72.1789 321.547 82.9828L321.005 83.2505C316.832 73.5326 308.88 71.3779 307.671 71.1037L290.48 91.2908Z" fill="#21111D"/>
<path d="M251.423 161.361C251.246 161.361 251.071 161.361 250.901 161.358L250.907 160.719C258.368 160.804 271.674 159.124 273.718 158.86L272.978 98.5257L273.574 98.5171L274.321 159.426L274.055 159.461C273.908 159.48 259.61 161.361 251.423 161.361Z" fill="#21111D"/>
<path d="M240.842 81.1888C237.837 79.183 235.655 76.074 234.698 72.4403L235.273 72.2676C236.188 75.7501 238.278 78.7253 241.158 80.6468L240.842 81.1888Z" fill="#21111D"/>
<path d="M241.695 46.2792C241.695 46.2792 246.212 44.3577 250.223 45.7373C252.546 46.5361 254.087 48.7427 254.087 51.1997V53.6006L241.728 48.3217C241.728 48.3217 239.772 49.2457 239.929 48.9651C240.085 48.6844 241.695 46.2792 241.695 46.2792Z" fill="#FE9F73"/>
<path d="M254.085 50.9274V61.0534C254.085 61.0534 254.236 64.672 251.069 65.1232L251.661 69.9508C251.881 71.745 250.808 73.4636 249.085 74.0098C248.243 74.2776 247.237 74.4719 246.095 74.4719C242.477 74.4719 240.517 71.758 240.217 70.4021C239.914 69.0462 240.819 62.5626 240.819 62.5626L240.709 59.378L241.121 47.0347L254.085 50.9274Z" fill="#FE9F73"/>
<path d="M245.351 55.7033C245.314 55.7033 245.275 55.6903 245.247 55.6601C245.186 55.6018 245.184 55.5068 245.243 55.4463C245.264 55.4247 247.337 53.3045 249.232 54.831C249.297 54.8828 249.308 54.9778 249.256 55.0426C249.204 55.1074 249.109 55.1182 249.044 55.0663C247.365 53.7148 245.538 55.5759 245.463 55.6558C245.43 55.6881 245.392 55.7033 245.351 55.7033Z" fill="#21111D"/>
<path d="M251.566 54.7988C251.523 54.7988 251.482 54.7816 251.452 54.747C251.398 54.6844 251.404 54.5894 251.467 54.5354C251.527 54.4836 252.965 53.2529 253.874 54.0323C253.937 54.0863 253.945 54.1813 253.891 54.2439C253.837 54.3066 253.742 54.3152 253.68 54.2612C252.967 53.6502 251.678 54.7513 251.665 54.7643C251.635 54.7859 251.601 54.7988 251.566 54.7988Z" fill="#21111D"/>
<path d="M248.398 56.3121C248.398 56.5625 248.196 56.7633 247.947 56.7633C247.697 56.7633 247.496 56.5604 247.496 56.3121C247.496 56.0616 247.699 55.8608 247.947 55.8608C248.198 55.8608 248.398 56.0616 248.398 56.3121Z" fill="black"/>
<path d="M252.755 56.3122C253.005 56.3122 253.207 56.1101 253.207 55.8609C253.207 55.6117 253.005 55.4097 252.755 55.4097C252.506 55.4097 252.304 55.6117 252.304 55.8609C252.304 56.1101 252.506 56.3122 252.755 56.3122Z" fill="black"/>
<path d="M241.695 46.1214C241.695 46.1214 237.866 45.9379 236.894 49.2887C235.923 52.6396 237.578 54.41 237.611 55.4097C237.645 56.4093 236.967 63.1434 241.693 62.6403L242.969 51.5169L241.324 47.0887L241.695 46.1214Z" fill="#FECC86"/>
<path d="M244.664 56.1543C244.664 57.6527 243.448 58.8683 241.95 58.8683C240.452 58.8683 239.236 57.6527 239.236 56.1543C239.236 54.656 240.452 53.4404 241.95 53.4404C243.448 53.4404 244.664 54.656 244.664 56.1543Z" fill="#FE9F73"/>
<path d="M241.749 57.8191C241.186 57.8191 240.808 57.396 240.685 56.9728C240.538 56.4719 240.707 55.9861 241.113 55.7335C241.713 55.36 242.259 55.5997 242.537 55.7832C242.421 55.4744 242.237 55.2499 241.989 55.116C241.454 54.8224 240.791 55.0361 240.784 55.0383C240.746 55.0513 240.702 55.0297 240.689 54.9908C240.676 54.952 240.698 54.9088 240.737 54.8958C240.767 54.885 241.467 54.6583 242.06 54.9843C242.404 55.1722 242.635 55.5047 242.753 55.9732L242.818 56.2366L242.626 56.0466C242.598 56.0185 241.955 55.3924 241.19 55.8652C240.767 56.1265 240.73 56.6058 240.828 56.9339C240.927 57.2751 241.229 57.6723 241.747 57.6723C241.752 57.6723 241.758 57.6723 241.762 57.6723C241.803 57.6723 241.838 57.7047 241.838 57.7457C241.838 57.7868 241.806 57.8213 241.765 57.8213C241.76 57.8191 241.756 57.8191 241.749 57.8191Z" fill="#F07162"/>
<path d="M243.731 62.0508C243.731 62.0508 243.943 68.1069 251.508 68.6855L251.072 65.1252C251.072 65.1252 246.167 66.1119 243.731 62.0508Z" fill="#F07162"/>
<path d="M249.994 59.3627C249.962 59.3627 249.934 59.3433 249.923 59.3109C249.91 59.2721 249.931 59.2289 249.97 59.2159L251.481 58.7172L251.004 55.1613C250.998 55.1202 251.028 55.0814 251.069 55.077C251.11 55.0706 251.149 55.1008 251.153 55.1418L251.648 58.823L250.018 59.3627C250.011 59.3627 250.003 59.3627 249.994 59.3627Z" fill="#F07162"/>
<path d="M240.708 63.4048L241.233 58.3008L242.5 58.4411V63.5516L240.708 63.4048Z" fill="#FE9F73"/>
<path d="M242.403 46.02C242.403 46.02 241.516 48.138 242.971 51.6724C244.426 55.2067 239.236 50.3554 239.236 50.3554C239.236 50.3554 239.597 45.1823 242.403 46.02Z" fill="#FECC86"/>
<path d="M242.973 51.6724C242.973 51.6724 254.497 50.9901 255.208 48.2891C255.918 45.5903 253.208 45.5191 253.208 45.5191C253.208 45.5191 253.716 41.6825 250.236 42.8203C246.756 43.9581 240.305 43.8091 238.491 47.0347C236.676 50.2603 242.973 51.6724 242.973 51.6724Z" fill="#FECC86"/>
<path d="M242.734 53.6003L243.23 55.7032L243.731 55.0749C243.731 55.0749 244.716 52.0544 244.036 50.6057C243.356 49.1569 240.633 51.2404 240.633 51.2404L242.734 53.6003Z" fill="#FECC86"/>
<path d="M240.238 67.7812L247.14 73.017L251.507 68.6859L254.42 69.5042L251.507 77.266L247.334 74.7053L243.029 77.5466L237.244 69.0119L240.238 67.7812Z" fill="#EDFCFB"/>
<path d="M251.989 60.6344C251.941 60.6215 248.837 60.3516 248.837 60.3516C248.837 60.3516 249.146 61.6621 250.298 61.7658C251.453 61.8694 251.989 60.6344 251.989 60.6344Z" fill="#FBFDFC"/>
<path d="M267.997 111.096H267.924H260.271L262.207 133.883H267.924H267.997H273.921L275.651 111.096H267.997Z" fill="#49263E"/>
<path d="M273.608 107.1H267.999H267.926H262.317C261.661 107.1 261.127 107.637 261.127 108.298H267.926H267.999H274.797C274.797 107.635 274.264 107.1 273.608 107.1Z" fill="#CE1D37"/>
<path d="M275.48 108.913C275.404 108.555 275.091 108.298 274.728 108.298H267.999H267.926H261.196C260.834 108.298 260.519 108.555 260.445 108.913L259.806 111.96C259.705 112.441 260.069 112.894 260.557 112.894H267.926H267.999H275.367C275.855 112.894 276.22 112.441 276.119 111.96L275.48 108.913Z" fill="#EF3A4C"/>
<path d="M260.65 118.094L261.151 127.356H267.913H268.008H274.77L275.27 118.094H268.008H267.913H260.65Z" fill="#EF3A4C"/>
<path d="M274.77 127.516H260.998L260.488 118.1C260.484 118.011 260.551 117.936 260.642 117.929C260.73 117.925 260.806 117.992 260.81 118.081L261.302 127.192H274.77C274.858 127.192 274.931 127.263 274.931 127.354C274.931 127.444 274.86 127.516 274.77 127.516Z" fill="#21111D"/>
<path d="M271.587 115.848C271.561 115.848 271.533 115.842 271.507 115.827C271.429 115.783 271.403 115.684 271.447 115.606L272.761 113.285C272.805 113.208 272.904 113.182 272.982 113.225C273.059 113.268 273.085 113.367 273.042 113.445L271.727 115.766C271.697 115.82 271.643 115.848 271.587 115.848Z" fill="#21111D"/>
<path d="M271.807 117.18C271.779 117.18 271.751 117.174 271.727 117.159C271.649 117.113 271.623 117.016 271.669 116.939L272.858 114.896C272.904 114.818 273.001 114.792 273.079 114.838C273.156 114.883 273.182 114.98 273.137 115.058L271.947 117.1C271.917 117.152 271.863 117.18 271.807 117.18Z" fill="#21111D"/>
<path d="M270.372 124.791C273.099 122.217 270.242 121.783 270.242 121.783C271.572 120.242 271.264 119.52 270.776 119.19C270.417 118.948 269.968 118.92 269.573 119.084C268.319 119.607 264.498 121.213 262.162 122.368C260.502 122.243 261.03 119.244 261.773 117.707C262.155 116.915 262.181 115.608 260.381 116.925C258.908 118.001 256.695 121.544 256.695 121.544L247.442 120.591L248.822 134.252C248.822 134.252 259.383 134.094 260.974 134.081C262.565 134.068 267.896 132.125 269.504 130.625C272.425 127.9 270.588 127.762 270.588 127.762C273.375 124.629 270.372 124.791 270.372 124.791Z" fill="#FE9F73"/>
<path d="M266.903 124.039C266.823 124.046 266.743 123.998 266.711 123.914C266.67 123.811 266.717 123.69 266.814 123.646C268.183 123.042 270.113 121.63 270.132 121.617C270.219 121.552 270.34 121.578 270.398 121.671C270.458 121.764 270.435 121.891 270.348 121.956C270.268 122.014 268.366 123.405 266.959 124.026C266.942 124.033 266.922 124.037 266.903 124.039Z" fill="#F07162"/>
<path d="M267.09 126.628C267 126.637 266.915 126.574 266.892 126.477C266.864 126.367 266.924 126.255 267.028 126.226C268.768 125.726 270.249 124.635 270.262 124.624C270.348 124.56 270.469 124.583 270.527 124.676C270.588 124.769 270.566 124.896 270.48 124.961C270.417 125.007 268.934 126.103 267.125 126.624C267.114 126.626 267.103 126.628 267.09 126.628Z" fill="#F07162"/>
<path d="M267.732 129.545C267.643 129.551 267.559 129.493 267.533 129.4C267.503 129.292 267.561 129.178 267.66 129.145C269.152 128.666 270.458 127.613 270.471 127.602C270.555 127.533 270.676 127.552 270.739 127.641C270.804 127.731 270.786 127.859 270.702 127.928C270.646 127.973 269.327 129.037 267.768 129.538C267.757 129.54 267.744 129.543 267.732 129.545Z" fill="#F07162"/>
<path d="M242.123 115.28L251.432 115.919C251.432 115.919 253.314 122.28 251.052 135.174C250.832 136.426 250.37 138.566 250.37 138.566C250.37 138.566 240.916 139.373 239.433 136.083C238.5 134.016 240.538 125.093 240.538 125.093L242.123 115.28Z" fill="#FECC86"/>
<path d="M250.601 138.893L218.731 137.851L218.748 137.212L250.139 138.237C250.588 136.246 253.461 122.856 251.22 116.226L227.572 114.602L227.61 113.963L251.641 115.612L251.71 115.802C254.32 123.052 250.81 138.01 250.659 138.643L250.601 138.893Z" fill="#21111D"/>
<path d="M260.65 115.688L260.92 118.093H262.731L262.47 115.511L260.65 115.688Z" fill="#49263E"/>
<path d="M260.92 118.093L261.239 122.491C261.239 122.491 261.922 122.709 263.962 121.52C266.002 120.33 262.61 118.093 262.61 118.093H260.92Z" fill="#EF3A4C"/>
<path d="M329.577 36.2734C329.577 36.2734 333.193 38.1389 331.384 45.4343L330.018 44.7283L330.48 40.8528L329.577 36.2734Z" fill="black"/>
<path d="M316.909 40.799V51.4906C316.909 51.4906 316.76 55.1049 319.902 55.5561L319.314 60.3773C319.096 62.1693 320.161 63.8857 321.873 64.4298C322.708 64.6954 323.708 64.8919 324.839 64.8919C328.429 64.8919 330.374 62.1822 330.674 60.8264C330.974 59.4705 330.076 52.9955 330.076 52.9955L330.186 49.813L329.778 37.4849L316.909 40.799Z" fill="#FE9F73"/>
<path d="M325.579 46.145C325.616 46.145 325.655 46.1321 325.683 46.104C325.743 46.0457 325.745 45.9507 325.687 45.8903C325.665 45.8687 323.608 43.7506 321.728 45.2749C321.663 45.3267 321.652 45.4217 321.706 45.4865C321.758 45.5513 321.853 45.5621 321.915 45.5103C323.582 44.1586 325.395 46.0198 325.471 46.0997C325.501 46.1299 325.54 46.145 325.579 46.145Z" fill="black"/>
<path d="M319.411 45.2422C319.452 45.2422 319.495 45.225 319.523 45.1904C319.577 45.1278 319.571 45.0328 319.508 44.9788C319.448 44.927 318.021 43.6985 317.118 44.4758C317.056 44.5298 317.049 44.6248 317.101 44.6874C317.155 44.75 317.25 44.7586 317.313 44.7046C318.019 44.0936 319.299 45.1948 319.312 45.2055C319.342 45.2293 319.377 45.2422 319.411 45.2422Z" fill="black"/>
<path d="M322.555 46.7535C322.555 47.0039 322.755 47.2047 323.004 47.2047C323.252 47.2047 323.453 47.0018 323.453 46.7535C323.453 46.503 323.252 46.3022 323.004 46.3022C322.755 46.3022 322.555 46.5052 322.555 46.7535Z" fill="black"/>
<path d="M317.784 46.3023C317.784 46.5528 317.984 46.7535 318.233 46.7535C318.481 46.7535 318.682 46.5506 318.682 46.3023C318.682 46.0519 318.481 45.8511 318.233 45.8511C317.984 45.8511 317.784 46.0519 317.784 46.3023Z" fill="black"/>
<path d="M327.792 46.9113C327.792 48.4075 328.999 49.6209 330.486 49.6209C331.974 49.6209 333.181 48.4075 333.181 46.9113C333.181 45.415 331.974 44.2017 330.486 44.2017C328.999 44.2017 327.792 45.4129 327.792 46.9113Z" fill="#FE9F73"/>
<path d="M330.683 48.5716C331.242 48.5716 331.615 48.1485 331.739 47.7253C331.883 47.2244 331.717 46.7386 331.313 46.486C330.717 46.1125 330.175 46.3521 329.899 46.5356C330.016 46.229 330.197 46.0045 330.443 45.8685C330.974 45.5748 331.633 45.7886 331.639 45.7908C331.678 45.8037 331.721 45.7821 331.734 45.7433C331.747 45.7044 331.726 45.6612 331.687 45.6483C331.656 45.6375 330.961 45.4108 330.372 45.7368C330.033 45.9246 329.802 46.2571 329.685 46.7235L329.621 46.9847L329.811 46.7947C329.837 46.7667 330.478 46.1405 331.236 46.6134C331.654 46.8746 331.691 47.3518 331.596 47.6821C331.497 48.0232 331.199 48.4205 330.685 48.4205C330.681 48.4205 330.674 48.4205 330.67 48.4205C330.629 48.4205 330.596 48.4529 330.594 48.4939C330.594 48.5349 330.627 48.5695 330.668 48.5695C330.672 48.5717 330.678 48.5716 330.683 48.5716Z" fill="#F07162"/>
<path d="M316.389 49.7894C316.389 49.7894 315.411 57.0287 320.188 57.2878C327.023 57.6549 327.686 53.7297 328.092 50.517L328.161 43.8866L327.941 41.9629C327.457 42.5134 327.162 43.2022 327.097 43.9341C326.954 45.5232 326.605 49.8067 326.212 49.9967C325.655 50.2644 317.453 49.0921 316.389 49.7894Z" fill="black"/>
<path d="M320.97 49.8003C321.002 49.8003 321.03 49.7809 321.041 49.7485C321.054 49.7096 321.033 49.6665 320.994 49.6535L319.493 49.1548L319.966 45.6031C319.973 45.5621 319.942 45.5233 319.901 45.5189C319.86 45.5125 319.824 45.5427 319.817 45.5837L319.327 49.2606L320.944 49.7982C320.955 49.8003 320.963 49.8003 320.97 49.8003Z" fill="#F07162"/>
<path d="M322.131 51.2682C322.086 51.2595 319.169 51.1904 319.169 51.1904C319.169 51.1904 319.536 52.4038 320.62 52.4318C321.704 52.4599 322.131 51.2682 322.131 51.2682Z" fill="#FBFDFC"/>
<path d="M318.997 60.388L319.469 57.659C319.469 57.659 327.537 57.4495 330.737 56.668L331.175 60.4808C331.175 60.4808 324.014 63.7798 318.997 60.388Z" fill="#CEE4EF"/>
<path d="M327.954 42.0858L329.305 40.853L330.704 44.2168C330.704 44.2168 328.975 44.5018 328.945 46.3025C328.915 48.101 329.886 50.9099 326.771 54.9473C323.655 58.9826 327.021 48.9236 327.051 48.5716C327.084 48.2219 327.954 42.0858 327.954 42.0858Z" fill="black"/>
<path d="M329.577 36.2739C328.135 34.8424 323.131 34.0263 319.562 36.1767V36.1724C315.497 38.1609 316.775 42.2091 316.909 42.33L316.961 42.289C316.941 42.3818 316.922 42.4768 316.909 42.5696C316.909 42.5696 317.08 42.2976 317.444 41.9198L319.042 40.6956C319.938 40.1904 321.138 39.7564 322.695 39.6549C324.238 39.5535 325.586 39.6398 326.693 39.981C326.987 40.8985 327.224 42.7186 326.881 46.3027C326.356 51.7694 328.744 45.1389 329.614 42.5977C329.8 43.0727 329.936 43.606 330.003 44.217C330 44.217 332.468 39.1411 329.577 36.2739Z" fill="black"/>
<path d="M316.909 43.8023C316.909 43.8023 316.803 41.6087 316.907 41.1272C317.01 40.6457 321.896 39.2661 324.571 39.6331C327.246 40.0002 322.06 42.9451 322.002 42.9451C321.944 42.9473 316.909 43.8023 316.909 43.8023Z" fill="#FE9F73"/>
<path d="M326.182 40.1967L328.766 37.7915L326.333 41.3086L326.182 40.1967Z" fill="#FE9F73"/>
<path d="M326.182 35.4619C326.182 35.4619 325.655 30.2758 328.541 31.405C331.426 32.532 331.922 34.9221 329.308 36.5004C326.693 38.0765 326.182 35.4619 326.182 35.4619Z" fill="black"/>
<path d="M334.364 269.242L347.382 269.421L347.57 257.14L334.601 255.521L334.364 269.242Z" fill="#FE9F73"/>
<path d="M320.985 271.452H347.567V266.102C347.567 266.102 345.633 263.535 342.69 264.846C342.69 264.846 338.332 268.002 334.407 264.23L324.564 268.456C324.564 268.456 320.985 269.632 320.985 271.452Z" fill="#4C222E"/>
<path d="M347.57 273.325H320.234C320.011 273.325 319.832 273.145 319.832 272.923V271.854C319.832 271.632 320.011 271.453 320.234 271.453H347.57V273.325Z" fill="#8CD2F9"/>
<path d="M304.895 269.242L317.913 269.421L318.101 257.14L305.132 255.521L304.895 269.242Z" fill="#FE9F73"/>
<path d="M291.516 271.452H318.099V266.102C318.099 266.102 316.164 263.535 313.222 264.846C313.222 264.846 308.863 268.002 304.938 264.23L295.096 268.456C295.096 268.456 291.516 269.632 291.516 271.452Z" fill="#4C222E"/>
<path d="M318.101 273.325H290.765C290.542 273.325 290.363 273.145 290.363 272.923V271.854C290.363 271.632 290.542 271.453 290.765 271.453H318.101V273.325Z" fill="#8CD2F9"/>
<path d="M304.537 158.908C306.525 161.464 307.041 158.944 307.041 158.944C308.25 160.207 308.863 159.968 309.165 159.549C309.385 159.242 309.433 158.845 309.318 158.484C308.954 157.342 307.827 153.86 306.993 151.724C307.188 150.254 309.649 150.876 310.884 151.616C311.52 151.996 312.604 152.087 311.609 150.416C310.795 149.051 307.973 146.903 307.973 146.903L309.267 138.718L297.848 139.252C297.848 139.252 297.406 148.656 297.33 150.073C297.255 151.489 298.578 156.33 299.737 157.839C301.84 160.576 302.056 158.949 302.056 158.949C304.508 161.589 304.537 158.908 304.537 158.908Z" fill="#FE9F73"/>
<path d="M305.348 155.859C305.346 155.787 305.391 155.718 305.463 155.695C305.551 155.664 305.648 155.712 305.679 155.8C306.106 157.051 307.175 158.838 307.185 158.856C307.233 158.935 307.207 159.041 307.127 159.089C307.045 159.136 306.941 159.11 306.894 159.03C306.849 158.955 305.797 157.193 305.359 155.911C305.353 155.893 305.348 155.876 305.348 155.859Z" fill="#F07162"/>
<path d="M303.189 155.896C303.187 155.816 303.243 155.743 303.325 155.725C303.418 155.706 303.506 155.766 303.526 155.859C303.848 157.433 304.672 158.804 304.681 158.819C304.731 158.899 304.705 159.005 304.625 159.055C304.545 159.104 304.439 159.078 304.389 158.998C304.355 158.94 303.526 157.565 303.191 155.93C303.189 155.917 303.189 155.907 303.189 155.896Z" fill="#F07162"/>
<path d="M300.732 156.319C300.73 156.241 300.784 156.168 300.864 156.151C300.955 156.129 301.048 156.185 301.069 156.278C301.387 157.63 302.19 158.845 302.198 158.858C302.25 158.936 302.229 159.042 302.151 159.096C302.073 159.147 301.967 159.126 301.913 159.048C301.879 158.996 301.067 157.768 300.735 156.358C300.735 156.343 300.732 156.33 300.732 156.319Z" fill="#F07162"/>
<path d="M296.794 142.782L296.997 146.761C296.997 146.761 299.072 148.147 302.887 148.043L301.928 142.782H296.794Z" fill="#E2F2F1"/>
<path d="M327.902 130.67C327.902 130.67 326.175 212.12 320.229 259.127C320.229 259.127 312.311 261.618 302.352 256.961L301.929 136.914L300.491 118.929L327.902 130.67Z" fill="#3AAAA4"/>
<path d="M348.802 131.457C348.802 131.457 352.284 211.75 348.387 259.064C348.387 259.064 340.989 263.725 330.842 259.69L318.573 144.33L313.364 113.464L348.802 131.457Z" fill="#7FC6A6"/>
<path d="M338.342 261.51C343.938 261.51 348.444 259.34 348.509 259.31L348.632 259.249L348.657 259.113C351.991 241.066 349.864 152.132 349.843 151.236C349.838 151.087 349.717 150.969 349.569 150.969C349.566 150.969 349.564 150.969 349.562 150.969C349.411 150.973 349.292 151.098 349.294 151.249C349.316 152.143 351.432 240.567 348.144 258.874C347.032 259.379 338.664 262.941 330.957 259.439C330.821 259.377 330.657 259.437 330.594 259.575C330.531 259.714 330.592 259.875 330.73 259.938C333.29 261.102 335.92 261.51 338.342 261.51Z" fill="black"/>
<path d="M314.528 260.014C316.333 260.014 318.267 259.837 320.288 259.396C320.435 259.364 320.53 259.217 320.497 259.07C320.465 258.921 320.316 258.831 320.171 258.861C311.076 260.849 303.72 257.356 302.626 256.797L302.205 148.039C302.205 147.888 302.082 147.767 301.931 147.767C301.78 147.767 301.657 147.89 301.659 148.041L302.082 257.125L302.222 257.203C302.283 257.237 307.373 260.014 314.528 260.014Z" fill="black"/>
<path d="M305.625 61.6426C305.625 61.6426 299.128 64.2939 298.045 69.4367C296.961 74.5796 294.146 136.672 296.095 142.782H305.625V61.6426Z" fill="#4C222E"/>
<path d="M352.162 97.4308L352.673 137.192C352.673 137.192 321.862 145.968 301.931 135.503C301.931 135.503 305.417 65.615 306.043 62.5362C306.782 58.909 326.663 58.6132 334.96 59.5028C334.96 59.5028 347.816 59.1811 354.69 62.9767L352.162 97.4308Z" fill="#E2F2F1"/>
<path d="M352.671 86.8107L352.021 147.765C352.021 147.765 336.268 153.819 328.308 150.634C328.308 150.634 328.356 61.7916 331.605 59.082C332.006 59.0928 340.182 59.2504 346.02 59.9824C351.86 60.7143 352.671 86.8107 352.671 86.8107Z" fill="#4C222E"/>
<path d="M318.422 59.082C318.422 59.082 316.777 138.788 315.154 150.634C315.154 150.634 308.53 151.09 300.084 148.05C300.084 148.05 301.604 64.9007 303.785 62.679C305.963 60.4595 318.422 59.082 318.422 59.082Z" fill="#4C222E"/>
<path d="M330.557 59.1922C330.557 59.1922 320.249 58.9482 318.521 59.2742C318.521 59.2742 319.879 63.3354 320.102 63.4973C320.324 63.6592 327.002 65.0194 327.002 65.0194C327.002 65.0194 329.279 63.6787 329.381 63.2231C329.482 62.7654 330.557 59.1922 330.557 59.1922Z" fill="#E2F2F1"/>
<path d="M352.671 106.631C352.822 106.631 352.945 106.508 352.945 106.357V93.3958C352.945 93.2447 352.822 93.1216 352.671 93.1216C352.52 93.1216 352.397 93.2447 352.397 93.3958V106.357C352.397 106.508 352.52 106.631 352.671 106.631Z" fill="black"/>
<path d="M328.31 150.908C328.461 150.908 328.584 150.785 328.584 150.634C328.448 94.0714 329.996 74.4132 330.011 74.2211C330.024 74.0699 329.912 73.9382 329.761 73.9253C329.614 73.9167 329.478 74.0246 329.465 74.1757C329.45 74.3679 327.9 94.0411 328.036 150.634C328.036 150.785 328.159 150.908 328.31 150.908Z" fill="black"/>
<path d="M300.085 148.324C300.087 148.324 300.089 148.324 300.091 148.324C300.243 148.32 300.363 148.194 300.359 148.043C299.824 123.277 304.178 69.7194 304.221 69.1818C304.234 69.0306 304.122 68.8989 303.971 68.886C303.811 68.8752 303.688 68.9853 303.675 69.1364C303.632 69.674 299.275 123.26 299.811 148.054C299.813 148.205 299.936 148.324 300.085 148.324Z" fill="black"/>
<path d="M318.066 75.0672C318.215 75.0672 318.336 74.9485 318.34 74.7995L318.703 58.7837L318.401 58.8074C317.844 58.8506 304.692 59.928 300.808 64.4447C300.709 64.5591 300.722 64.7319 300.836 64.8312C300.951 64.9305 301.123 64.9176 301.223 64.8031C304.644 60.824 316.125 59.5739 318.142 59.3817L317.794 74.7887C317.792 74.9399 317.911 75.0651 318.062 75.0694C318.064 75.0672 318.064 75.0672 318.066 75.0672Z" fill="black"/>
<path d="M373.64 116.375C371.965 107.879 375.633 102.509 378.375 99.6787C379.321 102.395 379.996 105.135 380.283 107.866C380.666 111.532 378.695 116.381 375.666 121.442C374.778 120.183 374.066 118.529 373.64 116.375Z" fill="#FEC786"/>
<path d="M351.827 66.6017C351.771 66.6017 351.715 66.5758 351.678 66.5283C349.88 64.1317 346.944 63.158 346.913 63.1472C346.816 63.1148 346.762 63.0112 346.795 62.9119C346.827 62.8147 346.931 62.7607 347.028 62.7931C347.153 62.8341 350.104 63.81 351.976 66.3037C352.039 66.3858 352.021 66.5024 351.939 66.565C351.905 66.5909 351.866 66.6017 351.827 66.6017Z" fill="#21111D"/>
<path d="M351.475 68.3244C351.419 68.3244 351.363 68.2984 351.326 68.2509C349.528 65.8544 346.591 64.8806 346.561 64.8699C346.464 64.8375 346.41 64.7338 346.443 64.6345C346.475 64.5374 346.579 64.4834 346.676 64.5158C346.801 64.5568 349.752 65.5327 351.624 68.0264C351.686 68.1084 351.669 68.225 351.587 68.2876C351.555 68.3136 351.514 68.3244 351.475 68.3244Z" fill="#21111D"/>
<path d="M343.91 260.85C344.059 260.85 344.182 260.729 344.185 260.58L344.666 228.369C344.668 228.218 344.547 228.092 344.396 228.09C344.394 228.09 344.394 228.09 344.392 228.09C344.243 228.09 344.12 228.211 344.118 228.36L343.636 260.571C343.634 260.722 343.755 260.847 343.906 260.85C343.908 260.85 343.908 260.85 343.91 260.85Z" fill="black"/>
<path d="M314.197 260.016C314.342 260.016 314.463 259.904 314.472 259.757L316.277 228.377C316.285 228.226 316.171 228.097 316.017 228.088C315.866 228.073 315.737 228.194 315.728 228.347L313.923 259.727C313.915 259.878 314.029 260.008 314.182 260.016C314.187 260.016 314.191 260.016 314.197 260.016Z" fill="black"/>
<path d="M373.727 123.819L324.405 123.651L324.636 93.3916L373.958 93.5622L373.727 123.819Z" fill="#8CD2F9"/>
<path d="M336.761 123.692L324.405 123.651L324.636 93.3916L336.992 93.4348L336.761 123.692Z" fill="#3AA1C9"/>
<path d="M341.6 100.22L331.788 100.188L331.805 97.8882L341.62 97.9206L341.6 100.22Z" fill="#D7E4F7"/>
<path d="M341.466 117.708L331.654 117.674L331.672 115.376L341.486 115.409L341.466 117.708Z" fill="#D7E4F7"/>
<g opacity="0.5">
<g opacity="0.5">
<g opacity="0.5">
<path opacity="0.5" d="M371.285 107.691L353.619 107.628L353.623 107.136L371.289 107.196L371.285 107.691Z" fill="#D7E4F7"/>
</g>
</g>
</g>
<g opacity="0.5">
<g opacity="0.5">
<g opacity="0.5">
<path opacity="0.5" d="M371.272 109.458L353.605 109.398L353.61 108.906L371.274 108.966L371.272 109.458Z" fill="#D7E4F7"/>
</g>
</g>
</g>
<path d="M354.303 124.026C354.301 124.026 354.303 124.026 354.303 124.026L324.13 123.922L324.364 93.3912C324.366 93.24 324.487 93.1191 324.638 93.1191H324.64C324.791 93.1213 324.912 93.2444 324.912 93.3955L324.683 123.378L354.305 123.48C354.456 123.48 354.577 123.603 354.577 123.754C354.575 123.903 354.452 124.026 354.303 124.026Z" fill="black"/>
<path d="M373.789 115.794C373.636 115.791 373.515 115.668 373.515 115.517L373.681 93.8317L342.632 93.7259C342.481 93.7259 342.36 93.6029 342.36 93.4517C342.36 93.3006 342.483 93.1797 342.634 93.1797L374.232 93.2876L374.061 115.522C374.061 115.673 373.94 115.794 373.789 115.794Z" fill="black"/>
<path d="M350.9 105.886C350.827 105.886 350.751 105.855 350.697 105.797L348.551 103.435C348.45 103.323 348.459 103.15 348.569 103.049C348.681 102.947 348.854 102.956 348.955 103.066L351.101 105.428C351.203 105.54 351.194 105.713 351.084 105.814C351.032 105.864 350.967 105.886 350.9 105.886Z" fill="black"/>
<path d="M350.652 107.848C350.583 107.848 350.512 107.822 350.458 107.768L348.31 105.609C348.204 105.501 348.204 105.329 348.31 105.223C348.418 105.117 348.59 105.117 348.696 105.223L350.844 107.382C350.95 107.49 350.95 107.663 350.844 107.768C350.793 107.822 350.721 107.848 350.652 107.848Z" fill="black"/>
<path d="M336.998 154.624C333.787 155.052 335.186 152.895 335.186 152.895C333.44 152.946 333.17 152.346 333.248 151.837C333.304 151.463 333.552 151.146 333.885 150.971C334.945 150.414 338.189 148.721 340.281 147.782C341.173 146.597 338.982 145.314 337.585 144.975C336.864 144.8 336.028 144.103 337.909 143.611C339.446 143.209 342.963 143.656 342.963 143.656L347.779 136.916L355.545 145.306C355.545 145.306 349.264 152.32 348.325 153.383C347.386 154.447 343.047 156.967 341.164 157.23C337.745 157.705 338.733 156.395 338.733 156.395C335.137 156.554 336.998 154.624 336.998 154.624Z" fill="#FE9F73"/>
<path d="M338.557 151.88C338.608 151.83 338.624 151.75 338.589 151.681C338.548 151.597 338.444 151.562 338.36 151.606C337.179 152.195 335.163 152.722 335.143 152.728C335.053 152.752 334.999 152.845 335.02 152.936C335.044 153.026 335.137 153.082 335.228 153.059C335.312 153.037 337.298 152.517 338.511 151.912C338.531 151.904 338.546 151.893 338.557 151.88Z" fill="#F07162"/>
<path d="M340.07 153.421C340.128 153.365 340.139 153.275 340.091 153.206C340.039 153.128 339.934 153.106 339.854 153.16C338.519 154.056 336.969 154.456 336.954 154.46C336.864 154.484 336.807 154.577 336.831 154.667C336.855 154.758 336.948 154.814 337.038 154.79C337.103 154.773 338.66 154.374 340.044 153.443C340.054 153.437 340.063 153.428 340.07 153.421Z" fill="#F07162"/>
<path d="M341.525 155.445C341.581 155.388 341.594 155.302 341.549 155.231C341.499 155.151 341.393 155.127 341.313 155.177C340.141 155.917 338.714 156.22 338.699 156.224C338.606 156.243 338.548 156.334 338.567 156.425C338.587 156.518 338.677 156.576 338.768 156.556C338.828 156.543 340.271 156.237 341.495 155.464C341.508 155.462 341.516 155.453 341.525 155.445Z" fill="#F07162"/>
<path d="M340.989 59.684C340.989 59.684 354.381 58.462 361.063 69.5357C367.168 79.6531 378.822 93.8682 380.283 107.865C381.464 119.179 360.234 141.732 354.69 147.123L344.873 136.656C344.873 136.656 360.499 111.87 361.715 108.813C362.82 106.032 339.959 75.8725 339.959 75.8725L340.989 59.684Z" fill="#4C222E"/>
<path d="M354.452 146.871L352.343 149.227C352.343 149.227 344.478 142.445 343.91 141.551C344.046 141.415 346.276 138.153 346.276 138.153L354.452 146.871Z" fill="#E2F2F1"/>
<path d="M373.642 89.665C373.694 89.665 373.744 89.6499 373.791 89.6219C373.919 89.5398 373.956 89.3693 373.873 89.2419L359.135 66.4466C351.598 58.3869 342.371 59.4556 342.28 59.4686C342.131 59.488 342.023 59.624 342.043 59.7752C342.062 59.9242 342.203 60.03 342.349 60.0127C342.44 60.0019 351.384 58.9763 358.718 66.805L373.414 89.542C373.463 89.6197 373.552 89.665 373.642 89.665Z" fill="black"/>
<path d="M367.056 110.8C367.207 110.8 367.33 110.677 367.33 110.525C367.33 110.374 367.207 110.251 367.056 110.251C365.387 110.251 362.524 108.6 361.958 108.263C361.05 104.551 348.185 86.4239 347.632 85.6445C347.544 85.5214 347.373 85.4912 347.25 85.5797C347.127 85.6683 347.097 85.8388 347.185 85.9619C347.321 86.154 360.834 105.195 361.447 108.485L361.468 108.604L361.572 108.669C361.712 108.757 365.052 110.8 367.056 110.8Z" fill="black"/>
<path d="M354.69 147.398C354.755 147.398 354.817 147.376 354.869 147.331C354.983 147.232 354.994 147.059 354.895 146.944C352.656 144.375 346.285 137.732 345.221 136.624C350.681 128.236 361.987 108.98 361.989 108.438C361.989 108.287 361.868 108.164 361.717 108.164C361.585 108.164 361.473 108.259 361.449 108.384C361.13 109.232 350.53 127.496 344.647 136.508L344.528 136.691L344.679 136.849C344.752 136.926 352.06 144.524 354.487 147.307C354.536 147.365 354.612 147.398 354.69 147.398Z" fill="black"/>
<path d="M369.351 273.324H373.064L366.365 179.032H358.938L369.351 273.324Z" fill="#FEC786"/>
<path d="M211.266 273.324H207.552L214.251 179.032H221.678L211.266 273.324Z" fill="#FEC786"/>
<path d="M189.327 166.762C189.39 166.16 188.947 165.618 188.349 165.517L184.632 164.88C184.515 164.86 184.424 164.768 184.405 164.651C184.377 164.478 184.513 164.325 184.688 164.331L190.256 164.536C190.892 164.56 191.333 164.064 191.231 163.433C191.13 162.803 190.525 162.267 189.886 162.244L184.209 162.034C184.077 162.03 183.967 161.933 183.945 161.801L183.93 161.708C183.906 161.557 184.008 161.415 184.159 161.391L190.381 160.391C190.979 160.294 191.43 159.759 191.372 159.156C191.309 158.495 190.702 158.033 190.057 158.137L183.796 159.143C183.645 159.167 183.503 159.065 183.479 158.914L183.431 158.621C183.41 158.485 183.492 158.351 183.626 158.312L189.271 156.628C189.852 156.455 190.23 155.866 190.094 155.274C189.945 154.627 189.284 154.249 188.658 154.434C188.658 154.434 179.91 156.539 178.518 156.755L179.914 153.776C180.284 153.266 180.169 152.554 179.66 152.187C179.15 151.818 178.438 151.932 178.071 152.442L173.114 157.841C172.874 158.174 173.002 158.983 173.261 159.612C173.818 166.307 173.958 167.332 174.275 169.124L181.322 167.747C183.356 167.35 185.443 167.326 187.486 167.676L188 167.764C188.645 167.877 189.256 167.423 189.327 166.762Z" fill="#FE9F73"/>
<path d="M149.228 157.915L174.385 154.277C174.385 154.277 177.926 165.251 177.194 171.357C177.194 171.357 153.82 177.668 148.917 177.044C144.014 176.42 139.016 169.403 139.016 169.403C139.016 169.403 138.239 132.833 138.971 133.399C139.705 133.962 149.228 157.915 149.228 157.915Z" fill="#EF3A4C"/>
<path d="M195.789 268.452L176.842 266.912L176.648 262.929L176.462 248.88L196.026 250.866L195.789 268.452Z" fill="#FE9F73"/>
<path d="M144.683 169.58C144.683 169.58 185.551 174.708 191.264 182.031C194.081 185.643 199.819 234.086 197.438 254.239C197.438 254.239 182.84 255.243 175.858 253.552L174.159 204.414L142.777 194.923L126.665 170.167L144.683 169.58Z" fill="#258D8C"/>
<path d="M185.858 254.794C179.932 254.794 175.838 253.822 175.797 253.811L175.599 253.764L173.88 204.078L176.074 205.844L175.737 206.26L174.455 205.228L176.119 253.334C177.028 253.531 180.983 254.312 186.376 254.254L186.38 254.789C186.206 254.794 186.031 254.794 185.858 254.794Z" fill="#21111D"/>
<path d="M182.44 273.325L208.31 273.318C208.543 273.281 208.736 273.24 208.874 273.195C210.534 272.666 210.672 271.697 210.594 271.135C210.56 270.887 210.415 270.667 210.201 270.529L195.91 261.275L191.188 263.365C189.685 264.034 188.084 264.46 186.443 264.617C183.092 264.939 177.717 265.114 176.648 263.032L176.816 271.021C176.819 271.019 176.037 273.387 182.44 273.325Z" fill="#EF3A4C"/>
<path d="M141.326 269.486H125.523V215.423H122.013V269.486H106.62C104.472 269.486 102.729 271.228 102.729 273.374H122.013H125.523H145.214C145.214 271.228 143.474 269.486 141.326 269.486Z" fill="#4C222E"/>
<path d="M78.0664 131.767H114.388L133.602 215.423L91.9805 211.084L78.0664 131.767Z" fill="#FEC786"/>
<path d="M161.264 206.901C161.264 206.901 113.53 206.901 99.2861 206.901C96.9869 206.901 95.0158 205.26 94.5991 203L81.9329 134.426C81.5918 132.585 79.7913 131.38 77.9476 131.79C76.1902 132.179 75.0935 133.941 75.4195 135.711L89.7675 213.396C89.8798 213.998 90.1475 214.529 90.5231 214.961C91.4471 216.675 93.2585 217.843 95.3418 217.843H161.264C164.284 217.843 166.734 215.395 166.734 212.372C166.734 209.352 164.284 206.901 161.264 206.901Z" fill="#F99247"/>
<path d="M99.2859 207.169C96.8594 207.169 94.7782 205.438 94.3356 203.05L81.6694 134.476C81.5183 133.654 81.0498 132.948 80.3525 132.486C79.6551 132.024 78.8218 131.87 78.0036 132.052C77.8611 132.084 77.7165 131.993 77.6862 131.849C77.6539 131.704 77.7445 131.561 77.8892 131.531C78.8499 131.318 79.83 131.499 80.6482 132.041C81.4665 132.583 82.017 133.414 82.194 134.379L94.8602 202.953C95.2553 205.086 97.1163 206.636 99.2859 206.636C99.4328 206.636 99.5536 206.755 99.5536 206.904C99.5515 207.05 99.4328 207.169 99.2859 207.169Z" fill="#21111D"/>
<path d="M145.227 207.424C145.227 207.424 129.565 207.681 118.587 207.305C115.063 207.184 111.926 207.433 110.07 207.02C102.429 205.323 100.547 181.472 109.223 166.857C117.9 152.243 148.256 197.112 148.256 197.112L145.227 207.424Z" fill="#7FC6A6"/>
<path d="M173.422 268.717L157.265 267.847C155.516 267.752 154.133 266.329 154.089 264.578L153.694 248.67L173.26 250.657L173.422 268.717Z" fill="#FE9F73"/>
<path d="M132.088 174.708C132.088 174.708 174.055 179.685 175.165 184.128C176.274 188.571 178.664 234.194 176.283 254.347C176.283 254.347 160.586 255.245 153.604 253.554L151.723 207.202L144.953 207.437L128.535 178.551L132.088 174.708Z" fill="#7FC6A6"/>
<path d="M163.023 254.893C156.087 254.893 153.615 253.848 153.496 253.796L153.343 253.729L151.521 207.102L154.388 208.454L154.159 208.937L152.09 207.961L153.863 253.36C154.612 253.619 158.211 254.657 166.706 254.264L166.73 254.8C165.374 254.865 164.141 254.893 163.023 254.893Z" fill="#21111D"/>
<path d="M156.518 244.838C155.778 241.982 155.566 214.13 155.558 212.947L156.093 212.942C156.095 213.232 156.313 241.913 157.036 244.704L156.518 244.838Z" fill="#21111D"/>
<path d="M133.442 207.923C126.607 207.923 118.414 207.692 109.202 206.999L109.243 206.468C136.687 208.536 155.094 206.489 155.275 206.468L155.336 206.997C155.215 207.012 147.011 207.923 133.442 207.923Z" fill="#21111D"/>
<path d="M159.867 273.325L185.737 273.318C185.97 273.281 186.162 273.24 186.3 273.195C187.96 272.666 188.099 271.697 188.021 271.135C187.986 270.887 187.842 270.667 187.628 270.529L173.336 261.275L168.615 263.365C167.112 264.034 165.51 264.46 163.869 264.617C160.519 264.939 155.091 265.112 154.025 263.03L154.243 271.019C154.243 271.019 153.461 273.387 159.867 273.325Z" fill="#FF424D"/>
<path d="M115.892 191.585C115.892 191.585 125.806 186.863 135.024 179.905C144.243 172.948 149.811 168.552 149.811 168.552C149.811 168.552 148.528 165.72 147.293 163.349L145.124 159.178L139.821 136.033C139.821 136.033 138.163 124.901 123.153 122.252C123.727 122.517 121.926 122.044 121.926 122.044C121.926 122.044 108.334 122.537 103.185 123.249C95.1798 124.357 94.3594 145.047 94.3594 145.047C94.3572 158.787 95.9829 177.595 100.758 183.72C106.825 191.501 113.82 191.749 115.901 191.631C115.894 191.6 115.892 191.585 115.892 191.585Z" fill="#EF3A4C"/>
<path d="M111.957 121.615C111.957 121.615 102.894 121.298 98.5672 123.748C92.1099 127.406 94.4113 148.355 94.4113 148.355C94.4113 148.355 99.897 145.362 100.23 144.365C100.562 143.367 111.957 121.615 111.957 121.615Z" fill="#EF3A4C"/>
<path d="M109.632 190.83C110.217 191.052 110.769 191.223 111.277 191.359C114.329 192.168 116.462 191.832 116.551 191.816C116.687 191.795 116.777 191.665 116.756 191.529C116.734 191.393 116.605 191.303 116.469 191.324C116.447 191.329 114.331 191.659 111.376 190.869C108.649 190.141 104.627 188.282 100.951 183.565C96.3327 177.642 94.6467 159.409 94.6056 145.595C94.6056 145.457 94.4934 145.345 94.3552 145.347C94.217 145.347 94.1069 145.459 94.1069 145.598C94.148 159.491 95.8621 177.852 100.558 183.873C103.649 187.835 106.985 189.828 109.632 190.83Z" fill="#21111D"/>
<path d="M117.043 168.017C117.088 168.034 117.138 168.039 117.187 168.026C117.321 167.993 117.405 167.859 117.373 167.725C117.332 167.548 113.204 150.004 111.449 138.965C111.427 138.829 111.298 138.736 111.164 138.758C111.028 138.779 110.935 138.906 110.957 139.043C112.716 150.101 116.846 167.665 116.889 167.84C116.909 167.926 116.969 167.989 117.043 168.017Z" fill="#21111D"/>
<path d="M117.106 131.471C117.298 131.49 117.494 131.507 117.695 131.522C117.809 131.531 117.909 131.445 117.915 131.33C117.924 131.216 117.842 131.119 117.723 131.11C109.135 130.508 107.54 124.218 107.527 124.156C107.505 124.046 107.399 123.968 107.289 123.987C107.179 124.007 107.101 124.106 107.119 124.218C107.129 124.281 108.714 130.603 117.106 131.471Z" fill="#21111D"/>
<path d="M123.012 218.155L97.1553 218.109C90.1907 218.738 89.3617 212.776 89.3207 212.45L87.7836 204.127C87.7576 203.983 87.8526 203.842 87.9973 203.816C88.1419 203.79 88.2823 203.885 88.3082 204.03L89.8496 212.383C89.8734 212.621 90.5167 218.18 97.1186 217.578L97.1424 217.576L123.01 217.621C123.157 217.621 123.276 217.742 123.276 217.889C123.278 218.036 123.159 218.155 123.012 218.155Z" fill="#21111D"/>
<path d="M92.0601 132.032L79.3485 132.013C79.2017 132.013 79.083 131.892 79.083 131.745C79.083 131.598 79.2017 131.479 79.3507 131.479L92.0601 131.499C92.2069 131.499 92.3257 131.618 92.3257 131.767C92.3257 131.913 92.2069 132.032 92.0601 132.032Z" fill="#21111D"/>
<path d="M138.995 156.805C137.311 151.129 135.493 144.695 134.86 141.372C134.834 141.236 134.703 141.148 134.569 141.173C134.433 141.199 134.344 141.329 134.37 141.465C135.009 144.82 136.846 151.317 138.539 157.025C138.692 156.952 138.846 156.878 138.995 156.805Z" fill="#21111D"/>
<path d="M134.284 180.639C134.213 180.639 134.144 180.604 134.1 180.542C134.034 180.44 134.059 180.304 134.161 180.237C137.032 178.322 148.258 169.496 149.552 168.477C147.781 163.189 142.79 156.678 141.985 155.648L117.699 167.864L114.491 170.198C114.394 170.269 114.256 170.247 114.185 170.15C114.113 170.053 114.135 169.915 114.232 169.844L117.486 167.482L142.106 155.097L142.218 155.235C142.276 155.309 148.125 162.658 150.018 168.49L150.065 168.637L149.945 168.732C149.819 168.831 137.451 178.575 134.405 180.606C134.368 180.628 134.327 180.639 134.284 180.639Z" fill="#21111D"/>
<path d="M176.849 166.43C176.726 166.43 176.62 166.335 176.609 166.21C176.167 161.261 174.576 155.717 174.248 154.614L149.073 158.126L144.599 147.057C140.405 135.163 136.914 130.27 136.879 130.223C131.309 123.124 122 122.293 121.905 122.284C121.771 122.273 121.674 122.156 121.685 122.023C121.696 121.889 121.812 121.789 121.946 121.802C122.041 121.811 131.562 122.662 137.266 129.931C137.307 129.987 140.832 134.923 145.051 146.886L149.379 157.595L174.591 154.076L174.651 154.272C174.671 154.335 176.596 160.614 177.091 166.164C177.102 166.298 177.004 166.415 176.873 166.426C176.864 166.43 176.858 166.43 176.849 166.43Z" fill="#21111D"/>
<path d="M123.975 103.338L124.255 114.192C124.255 114.192 124.491 117.677 121.451 118.193L122.142 122.833C122.399 124.558 121.408 126.242 119.758 126.81C118.953 127.088 117.988 127.302 116.887 127.33C113.398 127.421 111.44 124.853 111.116 123.551C110.793 122.25 111.503 115.978 111.503 115.978L111.317 112.91L111.406 100.998L123.975 103.338Z" fill="#FE9F73"/>
<path d="M114.299 115.412C114.299 115.412 114.655 121.245 121.963 121.615L121.453 118.192C121.451 118.192 116.747 119.266 114.299 115.412Z" fill="#F07162"/>
<path d="M115.7 109.25C115.663 109.25 115.626 109.239 115.598 109.211C115.54 109.157 115.536 109.064 115.59 109.006C115.609 108.984 117.556 106.888 119.422 108.313C119.486 108.363 119.497 108.453 119.45 108.516C119.4 108.581 119.309 108.591 119.247 108.544C117.593 107.281 115.879 109.123 115.808 109.202C115.775 109.233 115.739 109.248 115.7 109.25Z" fill="black"/>
<path d="M110.65 107.853L113.805 108.425L114.387 108.998C114.387 108.998 113.979 103.745 113.362 102.725C112.745 101.709 110.65 107.853 110.65 107.853Z" fill="black"/>
<path d="M121.669 108.222C121.628 108.222 121.587 108.207 121.557 108.175C121.503 108.117 121.507 108.024 121.566 107.97C121.624 107.918 122.98 106.696 123.876 107.423C123.938 107.473 123.947 107.566 123.897 107.629C123.848 107.691 123.755 107.7 123.692 107.65C122.99 107.08 121.775 108.173 121.762 108.186C121.738 108.207 121.704 108.22 121.669 108.222Z" fill="black"/>
<path d="M118.655 109.759C118.662 110.001 118.472 110.2 118.23 110.206C117.988 110.213 117.789 110.023 117.783 109.781C117.776 109.539 117.966 109.341 118.208 109.334C118.448 109.33 118.649 109.52 118.655 109.759Z" fill="black"/>
<path d="M123.28 109.205C123.286 109.447 123.096 109.645 122.854 109.652C122.612 109.658 122.414 109.468 122.407 109.226C122.401 108.985 122.591 108.786 122.833 108.779C123.072 108.773 123.273 108.963 123.28 109.205Z" fill="black"/>
<path d="M114.257 111.642C115.288 110.629 115.302 108.972 114.29 107.942C113.277 106.911 111.62 106.896 110.59 107.909C109.559 108.922 109.544 110.578 110.557 111.609C111.57 112.64 113.226 112.655 114.257 111.642Z" fill="#FE9F73"/>
<path d="M112.012 111.234C111.468 111.249 111.095 110.85 110.965 110.444C110.812 109.965 110.961 109.492 111.347 109.237C111.917 108.861 112.448 109.08 112.723 109.25C112.602 108.956 112.418 108.745 112.178 108.62C111.656 108.35 111.021 108.572 111.015 108.574C110.978 108.587 110.935 108.568 110.922 108.531C110.909 108.494 110.928 108.451 110.965 108.438C110.993 108.427 111.665 108.192 112.243 108.49C112.578 108.663 112.811 108.978 112.936 109.427L113.005 109.678L112.815 109.498C112.789 109.472 112.15 108.883 111.427 109.36C111.026 109.624 111.002 110.086 111.103 110.401C111.209 110.729 111.509 111.103 112.008 111.09C112.012 111.09 112.017 111.09 112.023 111.09C112.062 111.09 112.096 111.12 112.099 111.159C112.101 111.2 112.068 111.232 112.029 111.234C112.023 111.234 112.017 111.234 112.012 111.234Z" fill="#F07162"/>
<path d="M120.27 112.661C120.24 112.661 120.21 112.644 120.199 112.614C120.186 112.575 120.205 112.534 120.242 112.521L121.686 112.001L121.138 108.583C121.131 108.544 121.16 108.505 121.198 108.498C121.239 108.492 121.276 108.52 121.283 108.559L121.85 112.096L120.292 112.657C120.285 112.661 120.277 112.661 120.27 112.661Z" fill="#F07162"/>
<path d="M119.178 114.108C119.223 114.097 122.053 113.959 122.053 113.959C122.053 113.959 121.727 115.14 120.676 115.194C119.625 115.248 119.178 114.108 119.178 114.108Z" fill="#FBFDFC"/>
<path d="M110.65 107.853C110.65 107.853 109.635 102.781 111.145 100.84C112.656 98.9016 121.522 95.3456 122.632 96.2654C123.742 97.1873 122.686 98.3683 122.686 98.3683C122.686 98.3683 126.25 97.1225 127.148 100.29C128.046 103.457 120.348 105.014 115.698 103.641C115.698 103.643 112.671 104.61 110.65 107.853Z" fill="black"/>
<path d="M154.131 161.303L160.424 160.966C161.028 160.933 161.534 160.448 161.54 159.841C161.546 159.176 160.994 158.653 160.342 158.69L154.01 159.029C153.857 159.038 153.727 158.921 153.718 158.768L153.703 158.472C153.697 158.334 153.792 158.211 153.928 158.185L159.72 157.107C160.316 156.997 160.752 156.451 160.681 155.849C160.601 155.188 159.986 154.743 159.342 154.862C159.342 154.862 150.422 156.03 149.012 156.099L150.717 153.284C151.138 152.815 151.1 152.096 150.631 151.675C150.163 151.254 149.444 151.293 149.023 151.762L143.524 156.609C143.477 156.661 143.44 156.73 143.41 156.81C145.081 159.089 148.088 163.466 149.632 167.415L150.638 167.326C152.702 167.145 154.781 167.344 156.775 167.907L157.276 168.05C157.904 168.227 158.561 167.84 158.699 167.19C158.826 166.597 158.442 166.014 157.857 165.847L154.228 164.82C154.113 164.787 154.034 164.686 154.027 164.569C154.018 164.394 154.17 164.256 154.342 164.28L159.856 165.072C160.489 165.163 160.977 164.716 160.942 164.079C160.907 163.442 160.363 162.846 159.731 162.756L154.107 161.946C153.977 161.926 153.878 161.819 153.869 161.687L153.865 161.594C153.861 161.441 153.98 161.309 154.131 161.303Z" fill="#FE9F73"/>
<path d="M169.614 273.324H165.901L172.6 179.032H180.026L169.614 273.324Z" fill="#FEC786"/>
<path d="M230.106 148.888H198.278L187.179 177.156H219.005L230.106 148.888Z" fill="#4CB7D8"/>
<path d="M187.179 177.156H188.839L199.938 148.888H198.278L187.179 177.156Z" fill="#3AA1C9"/>
<path d="M209.297 162.123C208.856 163.42 209.178 164.705 210.018 164.99C210.858 165.275 211.896 164.454 212.339 163.155C212.779 161.857 212.457 160.572 211.618 160.287C210.778 160.002 209.739 160.823 209.297 162.123Z" fill="#E2F2F1"/>
<path d="M176.656 174.874H188.547V177.156H176.656C176.026 177.156 175.514 176.644 175.514 176.014C175.514 175.386 176.026 174.874 176.656 174.874Z" fill="#3AA1C9"/>
<path d="M179.668 176.016H187.178V175.658H179.668V176.016Z" fill="#4CB7D8"/>
<path d="M167.948 158.575V160.808C164.038 160.808 160.858 163.988 160.858 167.898C160.858 171.806 164.038 174.986 167.948 174.986V175.874C167.948 176.582 168.522 177.154 169.228 177.154H179.096C179.804 177.154 180.376 176.58 180.376 175.874V158.573H167.948V158.575ZM162.607 167.9C162.607 164.955 165.003 162.559 167.948 162.559V173.242C165.003 173.24 162.607 170.845 162.607 167.9Z" fill="#FEBAC7"/>
<path d="M173.377 167.766L173.083 167.943L174.916 171L175.211 170.823L173.377 167.766Z" fill="#49263E"/>
<path d="M175.455 168.346L175.157 168.518L176.889 171.524L177.186 171.353L175.455 168.346Z" fill="#49263E"/>
<path d="M314.78 158.575V175.876C314.78 176.584 315.355 177.156 316.06 177.156H325.929C326.637 177.156 327.209 176.582 327.209 175.876V174.988C331.119 174.988 334.299 171.808 334.299 167.9C334.299 163.99 331.119 160.81 327.209 160.81V158.577H314.78V158.575ZM327.211 173.239V162.556C330.156 162.556 332.552 164.953 332.552 167.898C332.552 170.845 330.156 173.239 327.211 173.239Z" fill="#FECC86"/>
<path d="M321.799 167.791L319.965 170.848L320.26 171.024L322.094 167.968L321.799 167.791Z" fill="#49263E"/>
<path d="M319.691 168.36L317.958 171.366L318.256 171.537L319.988 168.531L319.691 168.36Z" fill="#49263E"/>
<path d="M380.579 145.11C380.672 144.509 381.24 144.101 381.844 144.155L385.603 144.49C385.722 144.501 385.832 144.434 385.879 144.326C385.951 144.166 385.858 143.983 385.687 143.944L380.253 142.717C379.631 142.577 379.334 141.986 379.593 141.4C379.852 140.818 380.573 140.455 381.197 140.595L386.738 141.845C386.868 141.873 386.998 141.809 387.052 141.688L387.09 141.601C387.153 141.461 387.09 141.299 386.95 141.236L381.19 138.678C380.635 138.432 380.337 137.799 380.549 137.229C380.78 136.605 381.482 136.316 382.08 136.581L387.874 139.155C388.014 139.218 388.176 139.155 388.239 139.015L388.36 138.745C388.416 138.617 388.371 138.468 388.252 138.397L383.224 135.325C382.706 135.01 382.494 134.343 382.775 133.805C383.083 133.218 383.82 133.021 384.377 133.36C384.377 133.36 392.293 137.633 393.587 138.199L392.997 134.96C392.77 134.373 393.064 133.714 393.651 133.49C394.238 133.263 394.897 133.557 395.121 134.144L398.53 140.632C398.677 141.014 398.347 141.765 397.937 142.305C395.685 148.635 395.286 149.592 394.521 151.241L388.062 148.106C386.199 147.202 384.185 146.645 382.121 146.459L381.602 146.414C380.95 146.362 380.476 145.766 380.579 145.11Z" fill="#FE9F73"/>
<path d="M399.318 139.552L425.86 162.168L422.835 177.169L415.27 176.049L389.845 150.324C389.847 150.324 393.021 142.409 399.318 139.552Z" fill="#FD7583"/>
<path d="M421.391 158.601C421.335 158.601 421.281 158.582 421.235 158.543L399.282 139.835C394.562 142.117 391.751 147.178 391.723 147.23C391.659 147.346 391.512 147.389 391.395 147.325C391.279 147.26 391.235 147.113 391.3 146.996C391.328 146.942 394.266 141.646 399.217 139.33L399.357 139.263L421.548 158.172C421.65 158.258 421.663 158.411 421.576 158.513C421.529 158.573 421.46 158.601 421.391 158.601Z" fill="#21111D"/>
<path d="M430.683 101.577C430.683 101.577 428.5 96.8613 433.856 92.7893C439.215 88.7174 440.216 95.4579 442.332 96.0495C444.448 96.6411 448.234 95.8185 449.707 99.7264C451.179 103.634 450.106 106.795 451.725 108.425C454.43 111.148 461.086 117.066 456.956 127.902C454.245 135.016 445.298 143.337 445.298 143.337C445.298 143.337 423.299 129.269 421.304 121.958C419.307 114.648 421.995 111.439 425.542 108.92C427.725 107.367 432.127 106.05 430.683 101.577Z" fill="#4C222E"/>
<path d="M433.632 103.835C433.632 103.835 431.38 113.896 432.926 116.275C432.926 116.275 433.675 117.536 435.674 117.718L435.214 124.082L444.195 124.732L445.707 103.85L433.632 103.835Z" fill="#FE9F73"/>
<path d="M435.989 112.033C436.028 112.035 436.062 112.011 436.073 111.975C436.086 111.931 436.06 111.886 436.017 111.873C435.499 111.722 435.214 111.048 435.132 110.83C435.909 110.485 436.404 109.999 436.602 109.384C436.924 108.382 436.345 107.41 436.319 107.372C436.296 107.333 436.246 107.32 436.207 107.343C436.168 107.367 436.155 107.417 436.179 107.456C436.185 107.464 436.745 108.404 436.445 109.334C436.257 109.919 435.769 110.383 434.998 110.709L434.931 110.737L434.953 110.809C434.966 110.85 435.268 111.826 435.972 112.031C435.978 112.033 435.983 112.033 435.989 112.033Z" fill="#F07162"/>
<path d="M435.49 120.278L435.676 117.718C435.676 117.718 440.022 117.776 442.798 116.295C442.796 116.295 438.942 119.499 435.49 120.278Z" fill="#F07162"/>
<path d="M441.315 108.082C441.357 108.084 441.398 108.073 441.432 108.045C441.501 107.987 441.512 107.883 441.454 107.814C441.434 107.791 439.491 105.493 437.462 106.901C437.388 106.953 437.369 107.054 437.421 107.13C437.473 107.203 437.574 107.223 437.65 107.171C439.431 105.938 441.13 107.94 441.201 108.024C441.231 108.058 441.272 108.08 441.315 108.082Z" fill="#4C222E"/>
<path d="M435.653 107.313C435.698 107.317 435.745 107.3 435.78 107.266C435.845 107.201 435.845 107.097 435.78 107.035C435.722 106.976 434.355 105.625 433.375 106.35C433.302 106.404 433.286 106.508 433.34 106.579C433.394 106.652 433.498 106.668 433.569 106.614C434.323 106.057 435.536 107.253 435.547 107.266C435.577 107.294 435.616 107.311 435.653 107.313Z" fill="#4C222E"/>
<path d="M433.688 108.447C433.671 108.699 433.859 108.917 434.111 108.935C434.364 108.952 434.582 108.764 434.599 108.512C434.616 108.259 434.429 108.041 434.176 108.024C433.926 108.006 433.708 108.194 433.688 108.447Z" fill="black"/>
<path d="M438.737 109.194C438.986 109.15 439.151 108.912 439.106 108.663C439.061 108.414 438.823 108.249 438.574 108.294C438.325 108.339 438.16 108.577 438.205 108.825C438.25 109.074 438.488 109.239 438.737 109.194Z" fill="black"/>
<path d="M448.28 112.354C448.863 111.064 448.291 109.546 447.001 108.963C445.712 108.379 444.194 108.952 443.61 110.241C443.027 111.531 443.599 113.049 444.889 113.633C446.178 114.216 447.697 113.644 448.28 112.354Z" fill="#FE9F73"/>
<path d="M446.013 112.886C446.55 112.924 446.937 112.547 447.084 112.154C447.259 111.687 447.131 111.212 446.762 110.945C446.235 110.562 445.719 110.727 445.434 110.878C445.564 110.614 445.745 110.426 445.976 110.321C446.496 110.083 447.101 110.327 447.105 110.329C447.146 110.347 447.196 110.327 447.213 110.284C447.231 110.243 447.211 110.193 447.168 110.176C447.14 110.165 446.492 109.9 445.907 110.169C445.568 110.325 445.324 110.625 445.182 111.059L445.089 111.338L445.311 111.145C445.339 111.122 445.983 110.58 446.663 111.072C447.038 111.344 447.041 111.791 446.928 112.091C446.812 112.406 446.501 112.758 446.011 112.717C445.968 112.713 445.927 112.747 445.922 112.793C445.918 112.838 445.952 112.877 445.998 112.881C446.002 112.883 446.009 112.883 446.013 112.886Z" fill="#F07162"/>
<path d="M433.632 103.835C433.632 103.835 434.694 99.9576 439.988 99.9058C445.281 99.854 445.704 103.85 445.704 103.85L439.61 104.634L434.02 103.835H433.632Z" fill="#FE9F73"/>
<path d="M433.874 100.504C433.874 100.504 436.915 103.945 441.216 103.526C441.216 103.526 442.259 108.818 445.348 108.801C448.437 108.783 447.287 101.475 447.287 101.475C447.287 101.475 441.71 98.718 441.345 98.6921C440.983 98.6662 434.912 97.8608 434.912 97.8608L433.874 100.504Z" fill="#4C222E"/>
<path d="M435.1 113.108C435.148 113.093 438.202 112.705 438.202 112.705C438.202 112.705 437.95 114.011 436.814 114.16C435.679 114.307 435.1 113.108 435.1 113.108Z" fill="#FBFDFC"/>
<path d="M428.863 269.486H444.666V215.423H448.176V269.486H463.569C465.717 269.486 467.46 271.228 467.46 273.374H448.176H444.666H424.973C424.975 271.228 426.715 269.486 428.863 269.486Z" fill="#4C222E"/>
<path d="M492.123 131.767H455.802L436.587 215.423L478.209 211.084L492.123 131.767Z" fill="#FEC786"/>
<path d="M408.925 206.902C408.925 206.902 456.658 206.902 470.903 206.902C473.202 206.902 475.173 205.262 475.59 203.001L488.256 134.427C488.597 132.586 490.397 131.381 492.241 131.791C493.999 132.18 495.095 133.942 494.769 135.712L480.421 213.397C480.309 213.999 480.041 214.53 479.666 214.962C478.742 216.676 476.93 217.844 474.847 217.844H408.925C405.905 217.844 403.455 215.396 403.455 212.373C403.457 209.353 405.905 206.902 408.925 206.902Z" fill="#F99247"/>
<path d="M470.902 207.169C473.329 207.169 475.41 205.438 475.853 203.05L488.519 134.476C488.67 133.654 489.139 132.948 489.836 132.486C490.533 132.024 491.367 131.87 492.185 132.052C492.327 132.084 492.472 131.993 492.502 131.849C492.535 131.704 492.444 131.561 492.299 131.531C491.339 131.318 490.359 131.499 489.54 132.041C488.722 132.583 488.172 133.414 487.995 134.379L475.328 202.953C474.933 205.086 473.072 206.636 470.902 206.636C470.756 206.636 470.635 206.755 470.635 206.904C470.637 207.051 470.756 207.169 470.902 207.169Z" fill="#21111D"/>
<path d="M478.128 132.032C478.128 132.032 478.13 132.032 478.128 132.032L490.84 132.013C490.987 132.013 491.105 131.892 491.105 131.745C491.105 131.598 490.987 131.479 490.838 131.479L478.128 131.499C477.982 131.499 477.863 131.618 477.863 131.767C477.863 131.913 477.982 132.032 478.128 132.032Z" fill="#21111D"/>
<path d="M374.4 268.452L393.347 266.912L393.541 262.929L393.729 248.88L374.163 250.866L374.4 268.452Z" fill="#FE9F73"/>
<path d="M425.506 169.58C425.506 169.58 384.638 174.708 378.925 182.031C376.108 185.643 370.369 234.086 372.751 254.239C372.751 254.239 387.349 255.242 394.331 253.552L396.03 204.414L427.412 194.923L443.524 170.167L425.506 169.58Z" fill="#3AA1C9"/>
<path d="M384.331 254.794C390.257 254.794 394.35 253.822 394.391 253.811L394.59 253.764L396.308 204.078L394.115 205.844L394.452 206.26L395.734 205.228L394.07 253.334C393.161 253.531 389.206 254.312 383.813 254.254L383.809 254.789C383.983 254.794 384.158 254.794 384.331 254.794Z" fill="#21111D"/>
<path d="M387.749 273.325L361.879 273.318C361.646 273.281 361.453 273.24 361.315 273.195C359.655 272.666 359.517 271.697 359.595 271.135C359.629 270.887 359.774 270.667 359.988 270.529L374.279 261.275L379.001 263.365C380.503 264.034 382.105 264.46 383.746 264.617C387.097 264.939 392.472 265.114 393.541 263.032L393.373 271.021C393.373 271.019 394.154 273.387 387.749 273.325Z" fill="#CE1D37"/>
<path d="M424.962 207.424C424.962 207.424 440.624 207.681 451.602 207.305C455.126 207.184 458.262 207.433 460.119 207.02C467.759 205.323 469.642 181.472 460.965 166.857C452.289 152.243 421.933 197.112 421.933 197.112L424.962 207.424Z" fill="#4CB7D8"/>
<path d="M396.766 268.717L412.923 267.847C414.672 267.752 416.056 266.329 416.099 264.578L416.494 248.67L396.928 250.657L396.766 268.717Z" fill="#FE9F73"/>
<path d="M438.103 174.708C438.103 174.708 396.136 179.685 395.026 184.128C393.917 188.571 391.527 234.194 393.908 254.347C393.908 254.347 409.605 255.245 416.587 253.554L418.468 207.202L425.238 207.437L441.656 178.551L438.103 174.708Z" fill="#4CB7D8"/>
<path d="M407.166 254.893C414.102 254.893 416.574 253.848 416.693 253.796L416.846 253.729L418.668 207.103L415.801 208.454L416.03 208.938L418.098 207.962L416.326 253.36C415.577 253.619 411.978 254.658 403.483 254.265L403.459 254.8C404.815 254.865 406.048 254.893 407.166 254.893Z" fill="#21111D"/>
<path d="M415.149 244.467C415.89 241.611 414.622 214.13 414.631 212.947L414.096 212.943C414.094 213.232 415.354 241.542 414.631 244.333L415.149 244.467Z" fill="#21111D"/>
<path d="M436.747 207.923C443.582 207.923 451.775 207.692 460.987 206.999L460.946 206.468C433.502 208.536 415.095 206.489 414.914 206.468L414.854 206.997C414.974 207.012 423.178 207.923 436.747 207.923Z" fill="#21111D"/>
<path d="M410.324 273.325L384.454 273.318C384.221 273.281 384.029 273.24 383.89 273.195C382.23 272.666 382.092 271.697 382.17 271.135C382.204 270.887 382.349 270.667 382.563 270.529L396.855 261.275L401.576 263.365C403.079 264.034 404.681 264.46 406.321 264.617C409.672 264.939 415.099 265.112 416.166 263.03L415.948 271.019C415.946 271.019 416.727 273.387 410.324 273.325Z" fill="#EF3A4C"/>
<path d="M447.176 218.155L473.033 218.109C479.998 218.737 480.827 212.776 480.868 212.45L482.405 204.127C482.431 203.983 482.336 203.842 482.191 203.816C482.047 203.79 481.906 203.885 481.881 204.03L480.339 212.383C480.315 212.621 479.672 218.18 473.07 217.578L473.046 217.576L447.179 217.621C447.032 217.621 446.913 217.742 446.913 217.889C446.911 218.036 447.03 218.155 447.176 218.155Z" fill="#21111D"/>
<path d="M419.836 138.155C419.333 138.848 417.269 160.797 416.956 164.144L417.733 165.359L427.338 177.154C429.193 174.335 429.955 172.709 429.955 172.709C429.955 172.709 420.38 137.404 419.836 138.155Z" fill="#FD7583"/>
<path d="M458.401 187.462C458.401 187.462 447.556 185.73 436.749 181.658C425.942 177.586 419.361 174.941 419.361 174.941C419.361 174.941 419.791 171.862 420.307 169.239L421.211 164.625L419.765 140.923C419.765 140.923 418.215 129.776 431.866 122.997C431.391 123.413 432.984 122.453 432.984 122.453C432.984 122.453 446.714 118.955 451.766 120.183C461.116 122.453 465.922 136.739 465.922 136.739C469.802 149.92 473.552 168.421 470.7 175.645C467.077 184.821 460.436 187.034 458.407 187.507C458.403 187.477 458.401 187.462 458.401 187.462Z" fill="#FD7583"/>
<path d="M417.809 155.549C417.8 155.549 417.794 155.549 417.785 155.547C417.654 155.534 417.557 155.415 417.57 155.283L417.813 152.8C418.485 140.146 420.473 134.414 420.493 134.358C423.917 125.765 432.809 122.26 432.898 122.226C433.021 122.178 433.161 122.241 433.211 122.364C433.258 122.489 433.196 122.627 433.072 122.677C432.984 122.712 424.286 126.142 420.946 134.528C420.929 134.576 418.964 140.254 418.297 152.837L418.053 155.331C418.038 155.456 417.932 155.549 417.809 155.549Z" fill="#21111D"/>
<path d="M433.688 122.277C433.688 122.277 435.944 126.684 439.877 126.257C443.813 125.827 446.665 121.906 446.455 120.039C446.455 120.039 437.729 120.589 433.688 122.277Z" fill="#FE9F73"/>
<path d="M411.438 151.306H411.514H419.165L417.231 174.093H411.514H411.438H405.516L403.787 151.306H411.438Z" fill="#49263E"/>
<path d="M405.83 147.31H411.438H411.512H417.121C417.777 147.31 418.31 147.847 418.31 148.508H411.512H411.438H404.64C404.64 147.845 405.173 147.31 405.83 147.31Z" fill="#CE1D37"/>
<path d="M403.958 149.123C404.033 148.765 404.346 148.508 404.709 148.508H411.438H411.512H418.241C418.604 148.508 418.919 148.765 418.992 149.123L419.631 152.17C419.733 152.651 419.368 153.104 418.88 153.104H411.512H411.438H404.07C403.582 153.104 403.217 152.651 403.319 152.17L403.958 149.123Z" fill="#EF3A4C"/>
<path d="M418.787 158.301L418.286 167.566H411.525H411.43H404.666L404.165 158.301H411.43H411.525H418.787Z" fill="#EF3A4C"/>
<path d="M418.44 167.725H404.668C404.58 167.725 404.506 167.654 404.506 167.563C404.506 167.475 404.578 167.401 404.668 167.401H418.135L418.628 158.29C418.632 158.202 418.708 158.133 418.798 158.139C418.887 158.143 418.956 158.219 418.949 158.31L418.44 167.725Z" fill="#21111D"/>
<path d="M407.849 156.058C407.793 156.058 407.739 156.028 407.709 155.976L406.394 153.655C406.351 153.577 406.377 153.48 406.455 153.435C406.533 153.392 406.63 153.418 406.675 153.495L407.99 155.816C408.033 155.894 408.007 155.991 407.929 156.037C407.903 156.052 407.875 156.058 407.849 156.058Z" fill="#21111D"/>
<path d="M407.63 157.39C407.574 157.39 407.52 157.362 407.49 157.31L406.3 155.268C406.255 155.19 406.281 155.093 406.358 155.048C406.436 155.002 406.533 155.028 406.579 155.106L407.768 157.148C407.813 157.226 407.787 157.323 407.71 157.369C407.684 157.384 407.656 157.39 407.63 157.39Z" fill="#21111D"/>
<path d="M406.699 163.602C405.715 162.147 407.131 160.795 407.131 160.795C407.028 158.852 408.034 158.038 408.034 158.038C408.034 158.038 412.498 160.597 415.197 162.212C416.879 162.272 417.606 161.579 417.606 161.579L417.636 161.655C417.932 160.243 418.303 158.476 418.34 158.278C418.403 157.939 419.046 157.498 419.692 158.727C420.337 159.955 421.771 163.013 421.771 163.013L426.123 161.443L427.34 173.974C427.34 173.974 416.818 173.51 415.218 173.329C413.619 173.147 408.37 170.828 406.989 169.17C405.607 167.512 406.186 166.368 406.186 166.368C405.244 164.679 406.699 163.602 406.699 163.602Z" fill="#FE9F73"/>
<path d="M410.264 163.269C410.344 163.284 410.428 163.248 410.469 163.172C410.521 163.079 410.484 162.961 410.391 162.911C409.075 162.196 407.276 160.666 407.259 160.65C407.177 160.581 407.056 160.59 406.987 160.672C406.918 160.754 406.926 160.875 407.008 160.944C407.084 161.009 408.856 162.516 410.208 163.25C410.225 163.259 410.245 163.265 410.264 163.269Z" fill="#F07162"/>
<path d="M409.815 165.677C409.905 165.694 409.996 165.645 410.03 165.556C410.069 165.457 410.02 165.345 409.92 165.306C408.219 164.649 406.842 163.466 406.829 163.455C406.747 163.386 406.626 163.395 406.557 163.475C406.488 163.555 406.496 163.678 406.576 163.747C406.635 163.796 408.016 164.984 409.782 165.666C409.791 165.673 409.802 165.675 409.815 165.677Z" fill="#F07162"/>
<path d="M408.878 168.345C408.966 168.363 409.055 168.315 409.091 168.231C409.132 168.132 409.087 168.019 408.988 167.978C407.537 167.369 406.328 166.24 406.315 166.227C406.237 166.154 406.114 166.158 406.041 166.236C405.967 166.314 405.972 166.437 406.049 166.51C406.101 166.558 407.321 167.7 408.837 168.334C408.852 168.339 408.865 168.343 408.878 168.345Z" fill="#F07162"/>
<path d="M464.193 184.97C463.694 185.348 463.213 185.67 462.764 185.942C460.063 187.58 457.923 187.859 457.833 187.872C457.697 187.889 457.572 187.792 457.554 187.656C457.537 187.52 457.634 187.395 457.77 187.377C457.792 187.375 459.914 187.094 462.526 185.503C464.936 184.035 468.269 181.118 470.467 175.554C473.226 168.57 469.696 150.602 465.836 137.337C465.797 137.205 465.872 137.065 466.006 137.028C466.138 136.989 466.276 137.065 466.315 137.199C470.197 150.537 473.735 168.637 470.931 175.738C469.087 180.406 466.451 183.26 464.193 184.97Z" fill="#21111D"/>
<path d="M450.644 165.178C450.605 165.206 450.56 165.226 450.508 165.228C450.37 165.236 450.253 165.131 450.244 164.992C450.234 164.811 449.241 146.815 447.809 135.729C447.792 135.593 447.889 135.468 448.025 135.45C448.161 135.433 448.286 135.53 448.303 135.666C449.737 146.772 450.732 164.787 450.741 164.967C450.747 165.051 450.709 165.128 450.644 165.178Z" fill="#21111D"/>
<path d="M439.34 129.34C439.15 129.375 438.955 129.407 438.757 129.437C438.645 129.454 438.539 129.377 438.521 129.262C438.504 129.15 438.58 129.044 438.696 129.027C447.211 127.749 448.306 121.356 448.312 121.291C448.325 121.179 448.424 121.095 448.537 121.105C448.649 121.116 448.733 121.209 448.727 121.323C448.72 121.388 447.639 127.814 439.34 129.34Z" fill="#21111D"/>
<path d="M426.421 160.618C426.434 154.696 426.361 148.011 426.03 144.645C426.017 144.507 426.117 144.386 426.255 144.373C426.393 144.36 426.514 144.46 426.527 144.598C426.862 147.996 426.933 154.747 426.92 160.702C426.754 160.672 426.585 160.644 426.421 160.618Z" fill="#21111D"/>
<path d="M431.352 166.173L427.341 160.855L423.226 160.35C423.226 160.35 420.763 165.577 420.141 169.872C419.519 174.166 419.15 174.706 419.15 174.706L432.984 175.168L431.352 166.173Z" fill="#FD7583"/>
<path d="M437.666 182.152C437.735 182.133 437.791 182.079 437.815 182.008C437.852 181.891 437.787 181.768 437.671 181.734C434.374 180.708 421.114 175.41 419.586 174.797C419.793 169.224 422.742 161.568 423.225 160.353L449.972 165.217L453.709 166.549C453.823 166.59 453.949 166.53 453.99 166.415C454.031 166.301 453.97 166.176 453.856 166.134L450.069 164.787L422.953 159.856L422.886 160.02C422.85 160.106 419.316 168.81 419.143 174.937L419.139 175.09L419.281 175.146C419.428 175.205 434.044 181.062 437.541 182.152C437.582 182.165 437.627 182.165 437.666 182.152Z" fill="#21111D"/>
<path d="M572.371 194.588C572.371 194.588 570.804 172.726 562.317 176.971C553.83 181.213 546.913 209.071 545.991 209.9C545.07 210.732 545.346 236.189 545.346 236.189L555.214 231.208C555.216 231.21 557.842 170.355 572.371 194.588Z" fill="#258D8C"/>
<path d="M562.861 149.324C562.861 149.324 543.847 166.337 538.657 195.51C533.467 224.683 549.864 233.268 549.864 233.268C549.864 233.268 552.198 171.929 562.861 149.324Z" fill="#7FC6A6"/>
<path d="M527.591 237.204C527.591 237.204 524.409 175.103 508.36 148.178C508.36 148.178 536.535 164.988 545.879 209.113C546.406 211.598 546.717 214.357 547.116 217.017C547.531 219.783 547.777 222.233 547.714 224.679C547.602 229 547.004 232.713 546.827 235.442C545.303 259.021 527.591 237.204 527.591 237.204Z" fill="#258D8C"/>
<path d="M528.135 210.833C527.043 201.979 523.681 193.539 518.28 186.44C514.377 181.312 509.86 177.415 506.33 180.196C498.489 186.375 496.922 224.75 496.922 224.75C496.922 224.75 505.778 198.183 509.651 199.936C513.524 201.69 517.123 237.757 517.123 237.757L531.604 238.955L528.135 210.833Z" fill="#7FC6A6"/>
<path d="M547.887 235.036C548.48 221.477 546.781 208.465 542.833 196.359C539.674 186.673 535.078 177.543 529.171 169.222C519.113 155.052 508.593 148.05 508.487 147.981L508.23 148.372C508.334 148.441 518.796 155.404 528.802 169.509C538.034 182.521 548.759 204.449 547.418 235.012L547.887 235.036Z" fill="#21111D"/>
<path d="M550.1 233.277C550.106 233.123 550.704 217.74 552.598 199.794C554.344 183.243 557.578 161.072 563.073 149.423L562.649 149.223C557.127 160.929 553.882 183.159 552.131 199.747C550.236 217.708 549.636 233.104 549.631 233.257L550.1 233.277Z" fill="#21111D"/>
<path d="M555.449 231.219C555.454 231.12 555.898 221.117 557.369 210.982C559.301 197.657 562.094 190.158 565.445 189.299C567.425 188.791 569.687 190.612 572.17 194.707L572.572 194.463C569.968 190.169 567.531 188.28 565.329 188.843C561.727 189.765 558.895 197.192 556.905 210.915C555.432 221.074 554.985 231.096 554.981 231.195L555.449 231.219Z" fill="#21111D"/>
<path d="M531.371 238.985L531.836 238.926L528.366 210.803C527.259 201.83 523.835 193.355 518.463 186.297C515.063 181.828 512.043 179.397 509.484 179.073C508.278 178.92 507.166 179.235 506.184 180.01C502.883 182.612 500.281 190.939 498.452 204.757C497.095 215.015 496.691 224.642 496.687 224.737L497.155 224.757C497.17 224.374 498.809 186.421 506.475 180.377C507.356 179.682 508.351 179.399 509.428 179.535C511.855 179.844 514.772 182.213 518.092 186.578C523.414 193.569 526.805 201.966 527.902 210.857L531.371 238.985Z" fill="#21111D"/>
<path d="M516.29 204.291L515.874 204.505L518.915 210.404L519.331 210.189L516.29 204.291Z" fill="#21111D"/>
<path d="M516.315 208.279L515.904 208.505L518.946 214.029L519.356 213.803L516.315 208.279Z" fill="#21111D"/>
<path d="M550.026 169.162L547.426 174.872L547.852 175.066L550.452 169.356L550.026 169.162Z" fill="#21111D"/>
<path d="M549.672 173.594L547.458 177.59L547.867 177.817L550.081 173.821L549.672 173.594Z" fill="#21111D"/>
<path d="M564.593 179.065L560.165 181.322L560.378 181.74L564.806 179.483L564.593 179.065Z" fill="#21111D"/>
<path d="M562.715 181.669L560.096 183.263L560.339 183.663L562.958 182.07L562.715 181.669Z" fill="#21111D"/>
<path d="M560.242 229.63C560.242 229.63 559.415 275.03 547.257 273.966H537.695H536.16H526.598C514.439 275.03 513.612 229.63 513.612 229.63C525.119 227.892 548.735 227.892 560.242 229.63Z" fill="#F99247"/>
<path d="M518.448 235.452L518.108 235.774L531.391 249.809L531.731 249.487L518.448 235.452Z" fill="#21111D"/>
<path d="M522.353 244.496L522 244.804L529.312 253.216L529.666 252.908L522.353 244.496Z" fill="#21111D"/>
<path d="M361.305 169.725C361.305 169.725 362.831 173.564 361.551 176.468L390.884 176.714L393.591 176.468L395.976 174.989V172.726L395.314 170.856L393.148 169.725H361.305Z" fill="white"/>
<path d="M392.256 177.089H360.565C360.358 177.089 360.192 176.922 360.192 176.715C360.192 176.508 360.358 176.342 360.565 176.342H392.256C394.169 176.342 395.725 174.897 395.725 173.122C395.725 171.348 394.169 169.903 392.256 169.903H360.565C360.358 169.903 360.192 169.735 360.192 169.53C360.192 169.325 360.358 169.156 360.565 169.156H392.256C394.581 169.156 396.472 170.935 396.472 173.122C396.472 175.307 394.581 177.089 392.256 177.089Z" fill="#EF3A4C"/>
<path d="M377.287 173.205H361.734C361.689 173.205 361.652 173.168 361.652 173.123C361.652 173.078 361.689 173.041 361.734 173.041H377.287C377.332 173.041 377.369 173.078 377.369 173.123C377.369 173.168 377.332 173.205 377.287 173.205Z" fill="#AAC9F8"/>
<path d="M394.586 173.205H379.478C379.433 173.205 379.396 173.168 379.396 173.123C379.396 173.078 379.433 173.041 379.478 173.041H394.586C394.631 173.041 394.668 173.078 394.668 173.123C394.668 173.168 394.631 173.205 394.586 173.205Z" fill="#AAC9F8"/>
<path d="M394.18 174.693H386.428C386.382 174.693 386.346 174.656 386.346 174.611C386.346 174.566 386.382 174.529 386.428 174.529H394.18C394.226 174.529 394.262 174.566 394.262 174.611C394.262 174.656 394.226 174.693 394.18 174.693Z" fill="#AAC9F8"/>
<path d="M385.29 174.693H361.734C361.689 174.693 361.652 174.656 361.652 174.611C361.652 174.566 361.689 174.529 361.734 174.529H385.29C385.335 174.529 385.372 174.566 385.372 174.611C385.374 174.656 385.337 174.693 385.29 174.693Z" fill="#AAC9F8"/>
<path d="M392.256 177.172H360.566C360.313 177.172 360.108 176.966 360.108 176.714C360.108 176.461 360.313 176.256 360.566 176.256C360.611 176.256 360.648 176.293 360.648 176.338C360.648 176.383 360.611 176.42 360.566 176.42C360.406 176.42 360.275 176.55 360.275 176.712C360.275 176.871 360.404 177.003 360.566 177.003H392.256C394.536 177.003 396.391 175.261 396.391 173.119C396.391 170.977 394.536 169.235 392.256 169.235H360.566C360.406 169.235 360.275 169.364 360.275 169.526C360.275 169.686 360.404 169.818 360.566 169.818C360.611 169.818 360.648 169.854 360.648 169.9C360.648 169.945 360.611 169.982 360.566 169.982C360.313 169.982 360.108 169.777 360.108 169.524C360.108 169.272 360.313 169.066 360.566 169.066H392.256C394.627 169.066 396.557 170.882 396.557 173.117C396.557 175.356 394.627 177.172 392.256 177.172Z" fill="#21111D"/>
<path d="M370.113 171.634C370.113 171.634 369.115 174.121 369.689 175.952L370.501 174.7C370.501 174.7 371.054 175.365 371.395 175.952C371.395 175.952 372.015 171.863 373.215 171.634H370.113Z" fill="#7FC6A6"/>
<path d="M394.18 171.716H361.736C361.691 171.716 361.654 171.679 361.654 171.634C361.654 171.588 361.691 171.552 361.736 171.552H394.18C394.226 171.552 394.262 171.588 394.262 171.634C394.262 171.679 394.226 171.716 394.18 171.716Z" fill="#AAC9F8"/>
<path d="M411.002 273.324H414.715L408.016 179.032H400.59L411.002 273.324Z" fill="#FEC786"/>
<path d="M423.5 177.152H157.119V184.126H423.5V177.152Z" fill="#4C222E"/>
<path d="M622.69 273.426H0.844727V275H622.69V273.426Z" fill="black"/>
</svg>
