<svg width="68" height="56" viewBox="0 0 68 56" fill="none" xmlns="http://www.w3.org/2000/svg">
<path d="M60.553 29.6204H7.37455C6.2594 29.6204 5.35289 30.5801 5.45001 31.7077C6.61553 45.1332 18.9362 55.6977 33.962 55.6977C48.9878 55.6977 61.3085 45.1332 62.474 31.7077C62.5747 30.5801 61.6682 29.6204 60.553 29.6204Z" fill="#FF6633"/>
<path d="M24.3642 9.53173C23.7706 9.53173 23.1807 9.26168 22.7957 8.74349C20.8532 6.15255 17.1624 4.5396 13.1658 4.5396C9.16928 4.5396 5.47847 6.1489 3.53594 8.74349C2.87764 9.62296 1.64018 9.79082 0.776837 9.12301C-0.0901055 8.45521 -0.25558 7.19988 0.402721 6.32406C3.11506 2.70404 7.88505 0.543701 13.1658 0.543701C18.4466 0.543701 23.2166 2.70404 25.9326 6.32406C26.5909 7.20352 26.4218 8.45521 25.5584 9.12301C25.1987 9.40035 24.7814 9.53173 24.3642 9.53173Z" fill="#414141"/>
<path d="M65.956 9.53173C65.3624 9.53173 64.7725 9.26168 64.3875 8.74349C62.445 6.15255 58.7542 4.5396 54.7576 4.5396C50.7611 4.5396 47.0703 6.1489 45.1277 8.74349C44.4694 9.62296 43.232 9.79082 42.3686 9.12301C41.5017 8.45521 41.3362 7.19988 41.9945 6.32406C44.7069 2.70404 49.4768 0.543701 54.7576 0.543701C60.0384 0.543701 64.8084 2.70404 67.5244 6.32406C68.1827 7.20352 68.0136 8.45521 67.1502 9.12301C66.7905 9.40035 66.3732 9.53173 65.956 9.53173Z" fill="#414141"/>
</svg>
