<svg width="42" height="50" viewBox="0 0 42 50" fill="none" xmlns="http://www.w3.org/2000/svg">
<path fill-rule="evenodd" clip-rule="evenodd" d="M20.3325 1.89792C20.3324 1.89801 20.3327 1.89782 20.3325 1.89792L12.3337 5.89736L12.3325 5.89792C11.8229 6.15117 11.5005 6.67105 11.5 7.24015V16.7636C11.4961 17.3335 11.8154 17.8564 12.3242 18.1132C12.3239 18.113 12.3245 18.1133 12.3242 18.1132L20.3237 22.1129C20.7462 22.3244 21.2438 22.3244 21.6663 22.113L29.6664 18.1129L29.6675 18.1124C30.1773 17.8591 30.4997 17.3391 30.5 16.7699V7.24042C30.4997 6.67121 30.1773 6.15121 29.6675 5.89792L29.6664 5.89736L21.6675 1.89792C21.6674 1.89782 21.6677 1.89801 21.6675 1.89792C21.2474 1.68935 20.7527 1.68934 20.3325 1.89792ZM19.8875 1.00238C20.5883 0.654153 21.4118 0.654153 22.1125 1.00238L22.1137 1.00293L30.1125 5.00238C30.1124 5.0023 30.1127 5.00247 30.1125 5.00238C30.9618 5.42464 31.4995 6.29138 31.5 7.23988V16.7701C31.4995 17.7186 30.9624 18.5853 30.1132 19.0076C30.113 19.0077 30.1134 19.0075 30.1132 19.0076L22.1138 23.0073C22.1138 23.0073 22.1138 23.0073 22.1138 23.0073C21.4097 23.3596 20.5806 23.3597 19.8764 23.0074C19.8764 23.0073 19.8765 23.0074 19.8764 23.0074L11.8764 19.0074L11.8751 19.0067C11.0268 18.5793 10.4941 17.7082 10.5 16.7585V7.24015C10.5006 6.29169 11.0377 5.42496 11.8869 5.00268C11.8867 5.00278 11.8871 5.00258 11.8869 5.00268L19.8864 1.00294L19.8875 1.00238Z" fill="#414141"/>
<path fill-rule="evenodd" clip-rule="evenodd" d="M10.8732 5.93617C10.9967 5.68918 11.297 5.58907 11.544 5.71256L21.0004 10.4408L30.4568 5.71256C30.7038 5.58907 31.0041 5.68918 31.1276 5.93617C31.2511 6.18316 31.151 6.4835 30.904 6.60699L21.224 11.447C21.0833 11.5174 20.9176 11.5174 20.7768 11.447L11.0968 6.60699C10.8498 6.4835 10.7497 6.18316 10.8732 5.93617Z" fill="#414141"/>
<path fill-rule="evenodd" clip-rule="evenodd" d="M21 10.5C21.2761 10.5 21.5 10.7239 21.5 11V22.76C21.5 23.0361 21.2761 23.26 21 23.26C20.7239 23.26 20.5 23.0361 20.5 22.76V11C20.5 10.7239 20.7239 10.5 21 10.5Z" fill="#414141"/>
<path fill-rule="evenodd" clip-rule="evenodd" d="M15.5529 3.2765C15.6764 3.02951 15.9767 2.9294 16.2237 3.0529L26.2237 8.0529C26.4707 8.17639 26.5708 8.47673 26.4473 8.72372C26.3238 8.97071 26.0235 9.07082 25.7765 8.94732L15.7765 3.94732C15.5295 3.82383 15.4294 3.52349 15.5529 3.2765Z" fill="#414141"/>
<path d="M3.69319 45.12C3.20519 45.12 2.77319 45.064 2.39719 44.952C2.02119 44.84 1.70519 44.688 1.44919 44.496C1.19319 44.296 0.989188 44.068 0.837188 43.812C0.693188 43.556 0.609188 43.28 0.585188 42.984C0.577188 42.912 0.597188 42.856 0.645188 42.816C0.701188 42.776 0.765188 42.756 0.837188 42.756H1.43719C1.50919 42.756 1.57319 42.772 1.62919 42.804C1.69319 42.836 1.74119 42.904 1.77319 43.008C1.86919 43.328 2.07719 43.592 2.39719 43.8C2.71719 44 3.14519 44.1 3.68119 44.1C4.05719 44.1 4.39719 44.044 4.70119 43.932C5.00519 43.812 5.24919 43.644 5.43319 43.428C5.61719 43.204 5.70919 42.936 5.70919 42.624C5.70919 42.152 5.53719 41.788 5.19319 41.532C4.85719 41.268 4.39719 41.136 3.81319 41.136H2.94919C2.86919 41.136 2.80519 41.112 2.75719 41.064C2.70919 41.008 2.68519 40.94 2.68519 40.86V40.44C2.68519 40.352 2.70919 40.284 2.75719 40.236C2.80519 40.18 2.86919 40.152 2.94919 40.152H3.76519C4.26119 40.152 4.66119 40.044 4.96519 39.828C5.27719 39.612 5.43319 39.268 5.43319 38.796C5.43319 38.532 5.35319 38.304 5.19319 38.112C5.04119 37.92 4.83719 37.772 4.58119 37.668C4.32519 37.556 4.03719 37.5 3.71719 37.5C3.22919 37.5 2.82119 37.588 2.49319 37.764C2.16519 37.94 1.96119 38.224 1.88119 38.616C1.85719 38.704 1.82119 38.768 1.77319 38.808C1.72519 38.84 1.66519 38.856 1.59319 38.856H0.945188C0.873188 38.856 0.809188 38.832 0.753188 38.784C0.705188 38.736 0.685188 38.676 0.693188 38.604C0.717188 38.3 0.801188 38.02 0.945188 37.764C1.08919 37.5 1.28519 37.272 1.53319 37.08C1.78919 36.888 2.10119 36.74 2.46919 36.636C2.83719 36.532 3.25719 36.48 3.72919 36.48C4.37719 36.48 4.91319 36.588 5.33719 36.804C5.76119 37.02 6.08119 37.3 6.29719 37.644C6.51319 37.98 6.62119 38.344 6.62119 38.736C6.62119 38.976 6.58919 39.212 6.52519 39.444C6.46919 39.676 6.36919 39.888 6.22519 40.08C6.08919 40.272 5.90119 40.44 5.66119 40.584C5.94919 40.72 6.18119 40.896 6.35719 41.112C6.54119 41.32 6.67719 41.556 6.76519 41.82C6.86119 42.076 6.90919 42.352 6.90919 42.648C6.90919 43.136 6.77719 43.564 6.51319 43.932C6.25719 44.3 5.88919 44.592 5.40919 44.808C4.92919 45.016 4.35719 45.12 3.69319 45.12ZM10.1983 45.12C9.79831 45.12 9.43431 45.04 9.10631 44.88C8.77831 44.72 8.51431 44.504 8.31431 44.232C8.11431 43.96 8.01431 43.652 8.01431 43.308C8.01431 42.756 8.23831 42.316 8.68631 41.988C9.13431 41.66 9.71831 41.444 10.4383 41.34L12.2263 41.088V40.74C12.2263 40.356 12.1143 40.056 11.8903 39.84C11.6743 39.624 11.3183 39.516 10.8223 39.516C10.4623 39.516 10.1703 39.588 9.94631 39.732C9.73031 39.876 9.57831 40.06 9.49031 40.284C9.44231 40.404 9.35831 40.464 9.23831 40.464H8.69831C8.61031 40.464 8.54231 40.44 8.49431 40.392C8.45431 40.336 8.43431 40.272 8.43431 40.2C8.43431 40.08 8.47831 39.932 8.56631 39.756C8.66231 39.58 8.80631 39.408 8.99831 39.24C9.19031 39.072 9.43431 38.932 9.73031 38.82C10.0343 38.7 10.4023 38.64 10.8343 38.64C11.3143 38.64 11.7183 38.704 12.0463 38.832C12.3743 38.952 12.6303 39.116 12.8143 39.324C13.0063 39.532 13.1423 39.768 13.2223 40.032C13.3103 40.296 13.3543 40.564 13.3543 40.836V44.724C13.3543 44.804 13.3263 44.872 13.2703 44.928C13.2223 44.976 13.1583 45 13.0783 45H12.5263C12.4383 45 12.3703 44.976 12.3223 44.928C12.2743 44.872 12.2503 44.804 12.2503 44.724V44.208C12.1463 44.352 12.0063 44.496 11.8303 44.64C11.6543 44.776 11.4343 44.892 11.1703 44.988C10.9063 45.076 10.5823 45.12 10.1983 45.12ZM10.4503 44.22C10.7783 44.22 11.0783 44.152 11.3503 44.016C11.6223 43.872 11.8343 43.652 11.9863 43.356C12.1463 43.06 12.2263 42.688 12.2263 42.24V41.904L10.8343 42.108C10.2663 42.188 9.83831 42.324 9.55031 42.516C9.26231 42.7 9.11831 42.936 9.11831 43.224C9.11831 43.448 9.18231 43.636 9.31031 43.788C9.44631 43.932 9.61431 44.04 9.81431 44.112C10.0223 44.184 10.2343 44.22 10.4503 44.22ZM15.3554 45C15.2754 45 15.2074 44.976 15.1514 44.928C15.1034 44.872 15.0794 44.804 15.0794 44.724V39.036C15.0794 38.956 15.1034 38.892 15.1514 38.844C15.2074 38.788 15.2754 38.76 15.3554 38.76H15.9194C15.9994 38.76 16.0634 38.788 16.1114 38.844C16.1674 38.892 16.1954 38.956 16.1954 39.036V41.34H17.2874L18.9074 38.94C18.9474 38.884 18.9914 38.84 19.0394 38.808C19.0874 38.776 19.1514 38.76 19.2314 38.76H19.8554C19.9274 38.76 19.9874 38.776 20.0354 38.808C20.0834 38.84 20.1074 38.888 20.1074 38.952C20.1074 38.968 20.0994 38.992 20.0834 39.024C20.0754 39.048 20.0634 39.072 20.0474 39.096L18.2474 41.748L20.2874 44.652C20.3274 44.7 20.3474 44.752 20.3474 44.808C20.3474 44.872 20.3234 44.92 20.2754 44.952C20.2354 44.984 20.1794 45 20.1074 45H19.3754C19.3034 45 19.2434 44.984 19.1954 44.952C19.1474 44.92 19.1034 44.876 19.0634 44.82L17.2994 42.312H16.1954V44.724C16.1954 44.804 16.1674 44.872 16.1114 44.928C16.0634 44.976 15.9994 45 15.9194 45H15.3554ZM23.253 45.12C22.853 45.12 22.489 45.04 22.161 44.88C21.833 44.72 21.569 44.504 21.369 44.232C21.169 43.96 21.069 43.652 21.069 43.308C21.069 42.756 21.293 42.316 21.741 41.988C22.189 41.66 22.773 41.444 23.493 41.34L25.281 41.088V40.74C25.281 40.356 25.169 40.056 24.945 39.84C24.729 39.624 24.373 39.516 23.877 39.516C23.517 39.516 23.225 39.588 23.001 39.732C22.785 39.876 22.633 40.06 22.545 40.284C22.497 40.404 22.413 40.464 22.293 40.464H21.753C21.665 40.464 21.597 40.44 21.549 40.392C21.509 40.336 21.489 40.272 21.489 40.2C21.489 40.08 21.533 39.932 21.621 39.756C21.717 39.58 21.861 39.408 22.053 39.24C22.245 39.072 22.489 38.932 22.785 38.82C23.089 38.7 23.457 38.64 23.889 38.64C24.369 38.64 24.773 38.704 25.101 38.832C25.429 38.952 25.685 39.116 25.869 39.324C26.061 39.532 26.197 39.768 26.277 40.032C26.365 40.296 26.409 40.564 26.409 40.836V44.724C26.409 44.804 26.381 44.872 26.325 44.928C26.277 44.976 26.213 45 26.133 45H25.581C25.493 45 25.425 44.976 25.377 44.928C25.329 44.872 25.305 44.804 25.305 44.724V44.208C25.201 44.352 25.061 44.496 24.885 44.64C24.709 44.776 24.489 44.892 24.225 44.988C23.961 45.076 23.637 45.12 23.253 45.12ZM23.505 44.22C23.833 44.22 24.133 44.152 24.405 44.016C24.677 43.872 24.889 43.652 25.041 43.356C25.201 43.06 25.281 42.688 25.281 42.24V41.904L23.889 42.108C23.321 42.188 22.893 42.324 22.605 42.516C22.317 42.7 22.173 42.936 22.173 43.224C22.173 43.448 22.237 43.636 22.365 43.788C22.501 43.932 22.669 44.04 22.869 44.112C23.077 44.184 23.289 44.22 23.505 44.22ZM30.3061 45.12C29.8341 45.12 29.4341 45.064 29.1061 44.952C28.7861 44.832 28.5261 44.684 28.3261 44.508C28.1341 44.324 27.9941 44.136 27.9061 43.944C27.8181 43.744 27.7701 43.56 27.7621 43.392C27.7621 43.32 27.7861 43.264 27.8341 43.224C27.8821 43.176 27.9381 43.152 28.0021 43.152H28.5661C28.6381 43.152 28.6981 43.172 28.7461 43.212C28.7941 43.244 28.8301 43.304 28.8541 43.392C28.9501 43.696 29.1341 43.908 29.4061 44.028C29.6781 44.148 30.0101 44.208 30.4021 44.208C30.6581 44.208 30.8941 44.176 31.1101 44.112C31.3261 44.04 31.4941 43.928 31.6141 43.776C31.7421 43.624 31.8061 43.436 31.8061 43.212C31.8061 42.884 31.7101 42.636 31.5181 42.468C31.3341 42.3 31.0461 42.216 30.6541 42.216H29.9941C29.9141 42.216 29.8501 42.192 29.8021 42.144C29.7541 42.096 29.7301 42.032 29.7301 41.952V41.628C29.7301 41.556 29.7541 41.496 29.8021 41.448C29.8501 41.392 29.9141 41.364 29.9941 41.364H30.5821C30.9101 41.364 31.1621 41.3 31.3381 41.172C31.5141 41.044 31.6021 40.84 31.6021 40.56C31.6021 40.392 31.5621 40.232 31.4821 40.08C31.4021 39.928 31.2661 39.804 31.0741 39.708C30.8901 39.604 30.6341 39.552 30.3061 39.552C29.8421 39.552 29.5141 39.632 29.3221 39.792C29.1381 39.944 29.0061 40.172 28.9261 40.476C28.8941 40.564 28.8541 40.624 28.8061 40.656C28.7661 40.688 28.7061 40.704 28.6261 40.704H28.0861C28.0141 40.704 27.9541 40.684 27.9061 40.644C27.8581 40.604 27.8341 40.548 27.8341 40.476C27.8421 40.236 27.8941 40.008 27.9901 39.792C28.0941 39.576 28.2461 39.38 28.4461 39.204C28.6541 39.028 28.9101 38.892 29.2141 38.796C29.5261 38.692 29.8901 38.64 30.3061 38.64C30.9061 38.64 31.3781 38.732 31.7221 38.916C32.0741 39.1 32.3221 39.328 32.4661 39.6C32.6181 39.864 32.6941 40.128 32.6941 40.392C32.6941 40.704 32.6421 40.964 32.5381 41.172C32.4421 41.38 32.2501 41.556 31.9621 41.7C32.3221 41.836 32.5701 42.04 32.7061 42.312C32.8421 42.584 32.9141 42.9 32.9221 43.26C32.9301 43.676 32.8181 44.02 32.5861 44.292C32.3621 44.564 32.0541 44.772 31.6621 44.916C31.2701 45.052 30.8181 45.12 30.3061 45.12ZM34.5507 45C34.4707 45 34.4027 44.976 34.3467 44.928C34.2987 44.872 34.2747 44.804 34.2747 44.724V39.036C34.2747 38.956 34.2987 38.892 34.3467 38.844C34.4027 38.788 34.4707 38.76 34.5507 38.76H35.1267C35.2067 38.76 35.2707 38.788 35.3187 38.844C35.3747 38.892 35.4027 38.956 35.4027 39.036V40.8H36.6507C37.4667 40.8 38.0627 40.992 38.4387 41.376C38.8147 41.76 39.0027 42.28 39.0027 42.936C39.0027 43.64 38.7947 44.16 38.3787 44.496C37.9627 44.832 37.3387 45 36.5067 45H34.5507ZM35.3907 44.1H36.5427C37.0307 44.1 37.3867 44.016 37.6107 43.848C37.8347 43.672 37.9467 43.368 37.9467 42.936C37.9467 42.52 37.8387 42.212 37.6227 42.012C37.4067 41.804 37.0467 41.7 36.5427 41.7H35.3907V44.1ZM40.1307 45C40.0507 45 39.9827 44.976 39.9267 44.928C39.8787 44.872 39.8547 44.804 39.8547 44.724V39.036C39.8547 38.956 39.8787 38.892 39.9267 38.844C39.9827 38.788 40.0507 38.76 40.1307 38.76H40.7067C40.7867 38.76 40.8507 38.788 40.8987 38.844C40.9547 38.892 40.9827 38.956 40.9827 39.036V44.724C40.9827 44.804 40.9547 44.872 40.8987 44.928C40.8507 44.976 40.7867 45 40.7067 45H40.1307Z" fill="#414141"/>
</svg>
